<svg xmlns="http://www.w3.org/2000/svg" xmlns:xlink="http://www.w3.org/1999/xlink" width="512" zoomAndPan="magnify" viewBox="0 0 384 383.999986" height="512" preserveAspectRatio="xMidYMid meet" version="1.0"><defs><clipPath id="78a3d081e6"><path d="M 196 82.589844 L 204 82.589844 L 204 90 L 196 90 Z M 196 82.589844 " clip-rule="nonzero"/></clipPath><clipPath id="2d3b157ed8"><path d="M 81.625 134 L 89 134 L 89 141 L 81.625 141 Z M 81.625 134 " clip-rule="nonzero"/></clipPath><clipPath id="60805f8349"><path d="M 90 292 L 100 292 L 100 301.589844 L 90 301.589844 Z M 90 292 " clip-rule="nonzero"/></clipPath></defs><path fill="#7b649f" d="M 264.867188 135.378906 C 281.636719 138.746094 291.863281 163.003906 284.945312 180.0625 C 297.792969 193.757812 291.8125 212.265625 281.085938 216.601562 L 281.0625 216.601562 C 285.132812 236.867188 272.078125 251.582031 258.652344 254.515625 C 254.597656 272.753906 233.195312 278.464844 224.40625 274.035156 C 214.6875 289.289062 181.550781 291.054688 170.824219 274.695312 C 156.730469 281.683594 135.902344 270.683594 134.433594 258.25 C 117.453125 256.433594 104.695312 238.941406 106.03125 222.214844 C 93.335938 216 91.578125 192.035156 102.328125 179.410156 C 94.082031 159.464844 107.699219 139.789062 121.941406 135.246094 L 121.941406 135.222656 C 124.929688 118.882812 146.921875 107.5 163.445312 112.867188 C 174.359375 96.675781 211.820312 91.445312 227.75 113.210938 C 242.644531 108.800781 262.246094 120.46875 264.867188 135.355469 L 264.867188 135.378906 " fill-opacity="1" fill-rule="nonzero"/><path fill="#2e283f" d="M 209.867188 226.464844 C 206.46875 228.148438 202.25 229.40625 196.410156 230.199219 C 172.140625 233.074219 163.226562 217.460938 165.925781 209.527344 C 167.113281 206.015625 171.136719 204.332031 176.253906 204.183594 C 194.480469 203.636719 207.039062 199.625 211.054688 198.914062 C 215.898438 198.03125 219.871094 198.832031 222.320312 204.664062 C 224 208.667969 222.640625 220.199219 209.867188 226.464844 " fill-opacity="1" fill-rule="nonzero"/><path fill="#2e283f" d="M 116.855469 94.175781 C 116.855469 96.917969 114.636719 99.140625 111.902344 99.140625 C 109.171875 99.140625 106.960938 96.917969 106.960938 94.175781 C 106.960938 91.4375 109.171875 89.222656 111.902344 89.222656 C 114.636719 89.222656 116.855469 91.4375 116.855469 94.175781 " fill-opacity="1" fill-rule="nonzero"/><path fill="#2e283f" d="M 116.855469 94.175781 C 116.855469 96.917969 114.636719 99.140625 111.902344 99.140625 C 109.171875 99.140625 106.960938 96.917969 106.960938 94.175781 C 106.960938 91.4375 109.171875 89.222656 111.902344 89.222656 C 114.636719 89.222656 116.855469 91.4375 116.855469 94.175781 " fill-opacity="1" fill-rule="nonzero"/><g clip-path="url(#78a3d081e6)"><path fill="#2e283f" d="M 203.242188 85.96875 C 203.242188 87.808594 201.75 89.296875 199.917969 89.296875 C 198.082031 89.296875 196.59375 87.808594 196.59375 85.96875 C 196.59375 84.132812 198.082031 82.636719 199.917969 82.636719 C 201.75 82.636719 203.242188 84.132812 203.242188 85.96875 " fill-opacity="1" fill-rule="nonzero"/><path fill="#2e283f" d="M 203.242188 85.96875 C 203.242188 87.808594 201.75 89.296875 199.917969 89.296875 C 198.082031 89.296875 196.59375 87.808594 196.59375 85.96875 C 196.59375 84.132812 198.082031 82.636719 199.917969 82.636719 C 201.75 82.636719 203.242188 84.132812 203.242188 85.96875 " fill-opacity="1" fill-rule="nonzero"/></g><g clip-path="url(#2d3b157ed8)"><path fill="#2e283f" d="M 88.351562 137.535156 C 88.351562 139.375 86.867188 140.867188 85.027344 140.867188 C 83.191406 140.867188 81.703125 139.375 81.703125 137.535156 C 81.703125 135.695312 83.191406 134.203125 85.027344 134.203125 C 86.867188 134.203125 88.351562 135.695312 88.351562 137.535156 " fill-opacity="1" fill-rule="nonzero"/><path fill="#2e283f" d="M 88.351562 137.535156 C 88.351562 139.375 86.867188 140.867188 85.027344 140.867188 C 83.191406 140.867188 81.703125 139.375 81.703125 137.535156 C 81.703125 135.695312 83.191406 134.203125 85.027344 134.203125 C 86.867188 134.203125 88.351562 135.695312 88.351562 137.535156 " fill-opacity="1" fill-rule="nonzero"/></g><path fill="#2e283f" d="M 147.644531 292.484375 C 147.644531 294.324219 146.160156 295.816406 144.324219 295.816406 C 142.492188 295.816406 141 294.324219 141 292.484375 C 141 290.644531 142.492188 289.152344 144.324219 289.152344 C 146.160156 289.152344 147.644531 290.644531 147.644531 292.484375 " fill-opacity="1" fill-rule="nonzero"/><path fill="#2e283f" d="M 147.644531 292.484375 C 147.644531 294.324219 146.160156 295.816406 144.324219 295.816406 C 142.492188 295.816406 141 294.324219 141 292.484375 C 141 290.644531 142.492188 289.152344 144.324219 289.152344 C 146.160156 289.152344 147.644531 290.644531 147.644531 292.484375 " fill-opacity="1" fill-rule="nonzero"/><path fill="#2e283f" d="M 259.296875 100.792969 C 259.296875 102.097656 258.242188 103.152344 256.941406 103.152344 C 255.652344 103.152344 254.597656 102.097656 254.597656 100.792969 C 254.597656 99.492188 255.652344 98.4375 256.941406 98.4375 C 258.242188 98.4375 259.296875 99.492188 259.296875 100.792969 " fill-opacity="1" fill-rule="nonzero"/><path fill="#2e283f" d="M 259.296875 100.792969 C 259.296875 102.097656 258.242188 103.152344 256.941406 103.152344 C 255.652344 103.152344 254.597656 102.097656 254.597656 100.792969 C 254.597656 99.492188 255.652344 98.4375 256.941406 98.4375 C 258.242188 98.4375 259.296875 99.492188 259.296875 100.792969 " fill-opacity="1" fill-rule="nonzero"/><path fill="#2e283f" d="M 87.382812 248.617188 C 87.382812 249.921875 86.328125 250.96875 85.027344 250.96875 C 83.726562 250.96875 82.683594 249.921875 82.683594 248.617188 C 82.683594 247.316406 83.726562 246.261719 85.027344 246.261719 C 86.328125 246.261719 87.382812 247.316406 87.382812 248.617188 " fill-opacity="1" fill-rule="nonzero"/><path fill="#2e283f" d="M 87.382812 248.617188 C 87.382812 249.921875 86.328125 250.96875 85.027344 250.96875 C 83.726562 250.96875 82.683594 249.921875 82.683594 248.617188 C 82.683594 247.316406 83.726562 246.261719 85.027344 246.261719 C 86.328125 246.261719 87.382812 247.316406 87.382812 248.617188 " fill-opacity="1" fill-rule="nonzero"/><path fill="#2e283f" d="M 253.761719 295.816406 C 253.761719 297.109375 252.707031 298.164062 251.40625 298.164062 C 250.117188 298.164062 249.0625 297.109375 249.0625 295.816406 C 249.0625 294.511719 250.117188 293.457031 251.40625 293.457031 C 252.707031 293.457031 253.761719 294.511719 253.761719 295.816406 " fill-opacity="1" fill-rule="nonzero"/><path fill="#2e283f" d="M 253.761719 295.816406 C 253.761719 297.109375 252.707031 298.164062 251.40625 298.164062 C 250.117188 298.164062 249.0625 297.109375 249.0625 295.816406 C 249.0625 294.511719 250.117188 293.457031 251.40625 293.457031 C 252.707031 293.457031 253.761719 294.511719 253.761719 295.816406 " fill-opacity="1" fill-rule="nonzero"/><path fill="#2e283f" d="M 299.109375 281.019531 C 299.109375 283.367188 297.203125 285.277344 294.859375 285.277344 C 292.511719 285.277344 290.609375 283.367188 290.609375 281.019531 C 290.609375 278.667969 292.511719 276.761719 294.859375 276.761719 C 297.203125 276.761719 299.109375 278.667969 299.109375 281.019531 " fill-opacity="1" fill-rule="nonzero"/><path fill="#2e283f" d="M 299.109375 281.019531 C 299.109375 283.367188 297.203125 285.277344 294.859375 285.277344 C 292.511719 285.277344 290.609375 283.367188 290.609375 281.019531 C 290.609375 278.667969 292.511719 276.761719 294.859375 276.761719 C 297.203125 276.761719 299.109375 278.667969 299.109375 281.019531 " fill-opacity="1" fill-rule="nonzero"/><g clip-path="url(#60805f8349)"><path fill="#2e283f" d="M 99.652344 297.074219 C 99.652344 299.609375 97.605469 301.667969 95.074219 301.667969 C 92.542969 301.667969 90.488281 299.609375 90.488281 297.074219 C 90.488281 294.535156 92.542969 292.484375 95.074219 292.484375 C 97.605469 292.484375 99.652344 294.535156 99.652344 297.074219 " fill-opacity="1" fill-rule="nonzero"/><path fill="#2e283f" d="M 99.652344 297.074219 C 99.652344 299.609375 97.605469 301.667969 95.074219 301.667969 C 92.542969 301.667969 90.488281 299.609375 90.488281 297.074219 C 90.488281 294.535156 92.542969 292.484375 95.074219 292.484375 C 97.605469 292.484375 99.652344 294.535156 99.652344 297.074219 " fill-opacity="1" fill-rule="nonzero"/></g><path fill="#2e283f" d="M 301.96875 115.292969 C 301.96875 118.148438 299.652344 120.46875 296.800781 120.46875 C 293.949219 120.46875 291.632812 118.148438 291.632812 115.292969 C 291.632812 112.433594 293.949219 110.113281 296.800781 110.113281 C 299.652344 110.113281 301.96875 112.433594 301.96875 115.292969 " fill-opacity="1" fill-rule="nonzero"/><path fill="#2e283f" d="M 301.96875 115.292969 C 301.96875 118.148438 299.652344 120.46875 296.800781 120.46875 C 293.949219 120.46875 291.632812 118.148438 291.632812 115.292969 C 291.632812 112.433594 293.949219 110.113281 296.800781 110.113281 C 299.652344 110.113281 301.96875 112.433594 301.96875 115.292969 " fill-opacity="1" fill-rule="nonzero"/><path fill="#2e283f" d="M 215.335938 173.566406 C 218.054688 173.566406 220.238281 175.765625 220.238281 178.488281 C 220.238281 181.191406 218.054688 183.390625 215.335938 183.390625 C 212.625 183.390625 210.445312 181.191406 210.445312 178.488281 C 210.445312 175.765625 212.625 173.566406 215.335938 173.566406 " fill-opacity="1" fill-rule="nonzero"/><path fill="#ffffff" d="M 211.054688 198.914062 C 211.339844 199.664062 211.496094 200.484375 211.496094 201.347656 C 211.496094 205.214844 208.359375 208.359375 204.5 208.359375 C 201.054688 208.359375 198.1875 205.867188 197.609375 202.589844 C 202.414062 201.519531 207.039062 199.625 211.054688 198.914062 " fill-opacity="1" fill-rule="nonzero"/><path fill="#ffffff" d="M 202.988281 220.792969 C 206.386719 220.792969 209.242188 223.246094 209.867188 226.464844 C 206.46875 228.148438 202.21875 229.449219 197 230.125 C 196.8125 230.148438 196.59375 230.183594 196.410156 230.199219 C 196.140625 229.449219 195.984375 228.648438 195.984375 227.804688 C 195.984375 223.933594 199.121094 220.792969 202.988281 220.792969 " fill-opacity="1" fill-rule="nonzero"/><path fill="#ffffff" d="M 187.59375 203.644531 C 187.648438 203.9375 187.667969 204.234375 187.667969 204.542969 C 187.667969 207.707031 185.105469 210.277344 181.953125 210.277344 C 178.796875 210.277344 176.234375 207.707031 176.234375 204.542969 C 176.234375 204.429688 176.234375 204.296875 176.253906 204.183594 C 179.730469 203.816406 183.710938 203.800781 187.59375 203.644531 " fill-opacity="1" fill-rule="nonzero"/><path fill="#2e283f" d="M 171.476562 173.566406 C 174.1875 173.566406 176.367188 175.765625 176.367188 178.488281 C 176.367188 181.191406 174.1875 183.390625 171.476562 183.390625 C 168.753906 183.390625 166.574219 181.191406 166.574219 178.488281 C 166.574219 175.765625 168.753906 173.566406 171.476562 173.566406 " fill-opacity="1" fill-rule="nonzero"/><path fill="#2e283f" d="M 237.789062 147.332031 C 235.535156 139.929688 228.847656 134.152344 219.8125 131.996094 C 209.710938 129.59375 199.964844 132.296875 194.988281 138.890625 C 194.03125 140.15625 194.28125 141.957031 195.542969 142.917969 C 196.804688 143.875 198.605469 143.628906 199.5625 142.355469 C 203.117188 137.65625 210.714844 135.738281 218.488281 137.59375 C 223.574219 138.808594 229.289062 141.980469 231.710938 147.414062 C 231.5625 147.445312 231.402344 147.453125 231.246094 147.488281 C 229.707031 147.847656 228.753906 149.398438 229.109375 150.9375 C 229.476562 152.488281 231.015625 153.445312 232.5625 153.085938 C 236.230469 152.226562 240.316406 153.460938 243.476562 156.394531 C 247.03125 159.710938 248.734375 164.410156 248.015625 168.984375 C 247.769531 170.554688 248.84375 172.023438 250.40625 172.269531 C 250.5625 172.292969 250.714844 172.308594 250.855469 172.308594 C 252.246094 172.308594 253.460938 171.289062 253.6875 169.875 C 254.695312 163.410156 252.339844 156.800781 247.375 152.183594 C 244.582031 149.585938 241.234375 147.929688 237.789062 147.332031 " fill-opacity="1" fill-rule="nonzero"/><path fill="#2e283f" d="M 282.9375 212.191406 C 282.921875 212.140625 282.90625 212.09375 282.890625 212.042969 C 282.445312 210.523438 280.851562 209.65625 279.328125 210.105469 C 277.8125 210.558594 276.945312 212.15625 277.394531 213.679688 C 281.652344 228.035156 276.320312 237.722656 272.757812 242.210938 C 267.640625 248.671875 259.789062 252.5625 252.765625 252.144531 C 251.207031 252.03125 249.832031 253.257812 249.734375 254.839844 C 249.636719 256.425781 250.839844 257.785156 252.421875 257.882812 C 252.894531 257.914062 253.371094 257.921875 253.84375 257.921875 C 254.082031 257.921875 254.320312 257.882812 254.558594 257.875 C 251.648438 264.703125 246.03125 268.300781 242.601562 269.941406 C 237.402344 272.410156 232.144531 272.957031 228.484375 272.320312 C 228.566406 272.105469 228.671875 271.902344 228.753906 271.679688 C 229.296875 270.1875 228.535156 268.535156 227.050781 267.996094 C 225.554688 267.449219 223.910156 268.210938 223.367188 269.703125 C 220.066406 278.726562 208.203125 283.0625 197.917969 283.347656 C 188.535156 283.617188 176.074219 280.398438 171.816406 270.503906 C 171.191406 269.042969 169.496094 268.371094 168.046875 269 C 166.589844 269.628906 165.925781 271.320312 166.550781 272.777344 C 166.605469 272.921875 166.6875 273.039062 166.746094 273.183594 C 161.078125 274.84375 154.085938 273.910156 147.789062 270.480469 C 143.300781 268.039062 139.914062 264.703125 138.292969 261.265625 C 139.8125 261.15625 140.992188 259.875 140.945312 258.332031 C 140.910156 256.777344 139.632812 255.542969 138.085938 255.542969 C 138.054688 255.542969 138.03125 255.542969 138.011719 255.542969 C 129.519531 255.773438 121.269531 251.515625 115.488281 243.886719 C 109.417969 235.871094 107.304688 225.515625 109.960938 216.871094 C 110.425781 215.351562 109.582031 213.742188 108.066406 213.277344 C 106.539062 212.804688 104.941406 213.660156 104.480469 215.179688 C 104.277344 215.820312 104.097656 216.480469 103.949219 217.140625 C 101.519531 214.683594 99.699219 211.105469 98.792969 206.765625 C 97.257812 199.394531 98.546875 191.234375 101.945312 185.082031 C 102.261719 185.628906 102.566406 186.167969 102.902344 186.707031 C 103.457031 187.5625 104.382812 188.03125 105.324219 188.03125 C 105.855469 188.03125 106.382812 187.890625 106.863281 187.582031 C 108.199219 186.730469 108.59375 184.949219 107.742188 183.609375 C 100.953125 172.949219 101.074219 160.300781 108.070312 149.785156 C 113.816406 141.15625 122.953125 136.03125 130.226562 137.304688 C 131.796875 137.570312 133.273438 136.53125 133.550781 134.96875 C 133.820312 133.402344 132.773438 131.914062 131.21875 131.636719 C 129.554688 131.351562 127.84375 131.300781 126.113281 131.457031 C 128.171875 126.765625 132.109375 122.484375 137.414062 119.308594 C 144.203125 115.246094 152.226562 113.644531 159.140625 114.789062 C 158.648438 115.914062 158.246094 117.066406 157.976562 118.238281 C 157.632812 119.789062 158.597656 121.332031 160.144531 121.683594 C 160.359375 121.726562 160.570312 121.75 160.777344 121.75 C 162.09375 121.75 163.273438 120.84375 163.578125 119.511719 C 165.527344 110.859375 176.523438 103.636719 190.328125 101.960938 C 203.601562 100.351562 220.503906 104.070312 228.132812 119.355469 C 228.84375 120.777344 230.566406 121.347656 231.980469 120.636719 C 233.398438 119.929688 233.972656 118.203125 233.265625 116.78125 C 233.003906 116.257812 232.703125 115.785156 232.425781 115.285156 C 238.035156 114.757812 244.328125 116.332031 249.949219 119.828125 C 255.136719 123.046875 259.027344 127.511719 260.9375 132.222656 C 259.757812 132.542969 258.816406 133.558594 258.773438 134.863281 C 258.714844 136.449219 259.945312 137.78125 261.527344 137.847656 C 269.042969 138.125 276.117188 143.507812 280.449219 152.234375 C 285.714844 162.863281 285.476562 175.429688 279.835938 183.511719 C 278.933594 184.8125 279.246094 186.601562 280.546875 187.515625 C 281.046875 187.867188 281.621094 188.03125 282.191406 188.03125 C 283.085938 188.03125 283.984375 187.605469 284.535156 186.804688 C 284.863281 186.339844 285.164062 185.855469 285.460938 185.359375 C 288.875 190.464844 290.136719 196.382812 288.875 202.125 C 287.949219 206.332031 285.777344 209.9375 282.9375 212.191406 Z M 294.476562 203.359375 C 296.316406 194.984375 294.035156 186.355469 288.210938 179.425781 C 291.273438 170.382812 290.4375 159.457031 285.582031 149.675781 C 281.324219 141.089844 274.707031 135.164062 267.234375 133 C 265.40625 126.007812 260.320312 119.503906 252.96875 114.9375 C 245.304688 110.179688 236.46875 108.429688 228.886719 110.015625 C 218.898438 97.738281 202.714844 94.671875 189.640625 96.257812 C 177.773438 97.703125 167.859375 102.726562 162.308594 109.609375 C 153.488281 107.425781 143.253906 109.117188 134.46875 114.371094 C 126.753906 118.988281 121.421875 125.722656 119.53125 133.023438 C 113.449219 135.378906 107.609375 140.125 103.300781 146.597656 C 96.660156 156.574219 95.253906 168.167969 99.078125 178.886719 C 93.355469 186.527344 91.042969 197.722656 93.175781 207.941406 C 94.6875 215.164062 98.183594 220.703125 103.089844 223.808594 C 102.867188 231.9375 105.578125 240.304688 110.917969 247.359375 C 116.460938 254.671875 123.929688 259.375 132.035156 260.816406 C 133.566406 266.46875 138.265625 271.84375 145.046875 275.53125 C 150.171875 278.316406 155.730469 279.730469 160.988281 279.730469 C 164.101562 279.730469 167.105469 279.214844 169.855469 278.210938 C 176.277344 286.144531 187.265625 289.109375 196.804688 289.109375 C 197.230469 289.109375 197.65625 289.101562 198.082031 289.09375 C 209.921875 288.765625 219.9375 284.378906 225.429688 277.5 C 227.242188 278.046875 229.265625 278.332031 231.433594 278.332031 C 235.78125 278.332031 240.621094 277.246094 245.066406 275.128906 C 253.101562 271.304688 258.660156 264.84375 260.960938 256.867188 C 267.078125 255.121094 272.914062 251.261719 277.253906 245.78125 C 283.378906 238.058594 285.769531 228.441406 284.257812 218.222656 C 289.21875 215.351562 293.042969 209.855469 294.476562 203.359375 " fill-opacity="1" fill-rule="nonzero"/><path fill="#2e283f" d="M 247.480469 221.53125 C 245.902344 221.644531 244.707031 223.015625 244.820312 224.59375 C 245.535156 234.871094 240.054688 240.835938 236.722656 243.476562 C 231.910156 247.292969 225.832031 248.828125 221.238281 247.40625 C 219.722656 246.925781 218.117188 247.78125 217.644531 249.292969 C 217.175781 250.8125 218.027344 252.421875 219.535156 252.890625 C 221.246094 253.421875 223.058594 253.683594 224.921875 253.683594 C 230.082031 253.683594 235.617188 251.6875 240.285156 247.980469 C 247.464844 242.292969 251.199219 233.628906 250.542969 224.195312 C 250.429688 222.609375 249.03125 221.425781 247.480469 221.53125 " fill-opacity="1" fill-rule="nonzero"/><path fill="#2e283f" d="M 138.953125 175.167969 C 139.042969 175.167969 139.132812 175.160156 139.21875 175.152344 C 140.796875 175 141.953125 173.601562 141.8125 172.023438 C 141.453125 168.167969 142.878906 164.058594 145.71875 160.757812 C 149.066406 156.875 153.980469 154.488281 159.203125 154.203125 C 160.785156 154.121094 161.996094 152.765625 161.914062 151.179688 C 161.832031 149.59375 160.449219 148.378906 158.894531 148.460938 C 152.121094 148.828125 145.742188 151.941406 141.378906 157.007812 C 137.523438 161.484375 135.597656 167.152344 136.097656 172.554688 C 136.242188 174.042969 137.488281 175.167969 138.953125 175.167969 " fill-opacity="1" fill-rule="nonzero"/><path fill="#2e283f" d="M 180.511719 251.988281 C 175.769531 254.402344 170.707031 252.929688 167.546875 250.738281 C 165.199219 249.113281 163.585938 246.949219 163.003906 244.816406 C 163.355469 244.757812 163.707031 244.71875 164.058594 244.644531 C 165.605469 244.300781 166.574219 242.765625 166.238281 241.214844 C 165.894531 239.667969 164.355469 238.6875 162.816406 239.03125 C 157.265625 240.257812 151.375 238.09375 147.054688 233.238281 C 143.066406 228.746094 141.347656 222.945312 142.792969 218.792969 C 143.304688 217.296875 142.515625 215.65625 141.011719 215.132812 C 139.519531 214.617188 137.890625 215.410156 137.367188 216.90625 C 135.238281 223.066406 137.359375 230.976562 142.769531 237.0625 C 146.78125 241.566406 151.882812 244.300781 157.199219 244.957031 C 157.8125 248.878906 160.328125 252.71875 164.28125 255.464844 C 167.636719 257.785156 171.476562 258.976562 175.253906 258.976562 C 177.972656 258.976562 180.664062 258.355469 183.113281 257.113281 C 184.523438 256.386719 185.085938 254.660156 184.367188 253.242188 C 183.648438 251.828125 181.917969 251.269531 180.511719 251.988281 " fill-opacity="1" fill-rule="nonzero"/><path fill="#ffffff" d="M 211.054688 198.914062 C 211.339844 199.664062 211.496094 200.484375 211.496094 201.347656 C 211.496094 205.214844 208.359375 208.359375 204.5 208.359375 C 201.054688 208.359375 198.1875 205.867188 197.609375 202.589844 C 202.414062 201.519531 207.039062 199.625 211.054688 198.914062 " fill-opacity="1" fill-rule="nonzero"/><path fill="#ffffff" d="M 202.988281 220.792969 C 206.386719 220.792969 209.242188 223.246094 209.867188 226.464844 C 206.46875 228.148438 202.21875 229.449219 197 230.125 C 196.8125 230.148438 196.59375 230.183594 196.410156 230.199219 C 196.140625 229.449219 195.984375 228.648438 195.984375 227.804688 C 195.984375 223.933594 199.121094 220.792969 202.988281 220.792969 " fill-opacity="1" fill-rule="nonzero"/><path fill="#ffffff" d="M 187.59375 203.644531 C 187.648438 203.9375 187.667969 204.234375 187.667969 204.542969 C 187.667969 207.707031 185.105469 210.277344 181.953125 210.277344 C 178.796875 210.277344 176.234375 207.707031 176.234375 204.542969 C 176.234375 204.429688 176.234375 204.296875 176.253906 204.183594 C 179.730469 203.816406 183.710938 203.800781 187.59375 203.644531 " fill-opacity="1" fill-rule="nonzero"/><path fill="#2e283f" d="M 214.074219 201.480469 C 213.335938 201.480469 212.503906 201.570312 211.570312 201.734375 C 210.773438 201.886719 209.636719 202.15625 208.1875 202.507812 C 202.21875 203.945312 191.113281 206.609375 176.335938 207.058594 C 174.351562 207.109375 169.613281 207.566406 168.644531 210.449219 C 167.898438 212.640625 168.433594 216.441406 171.304688 220 C 176.121094 225.964844 185.136719 228.640625 196.074219 227.347656 C 201.269531 226.636719 205.265625 225.535156 208.597656 223.890625 C 208.605469 223.882812 208.605469 223.882812 208.613281 223.882812 C 220.386719 218.105469 220.648438 208.097656 219.675781 205.777344 C 218.40625 202.753906 216.859375 201.480469 214.074219 201.480469 Z M 190.867188 233.410156 C 180.527344 233.410156 171.96875 229.96875 166.84375 223.613281 C 163.054688 218.914062 161.660156 213.164062 163.214844 208.597656 C 164.730469 204.101562 169.332031 201.511719 176.164062 201.308594 C 190.351562 200.882812 201.085938 198.300781 206.851562 196.917969 C 208.449219 196.535156 209.695312 196.234375 210.554688 196.085938 C 213.140625 195.613281 221.019531 194.167969 224.964844 203.546875 C 227.167969 208.785156 225.339844 222.070312 211.140625 229.046875 C 207.230469 230.976562 202.675781 232.25 196.796875 233.050781 C 194.765625 233.289062 192.785156 233.410156 190.867188 233.410156 " fill-opacity="1" fill-rule="nonzero"/></svg>