<svg id="svg" version="1.1" xmlns="http://www.w3.org/2000/svg" xmlns:xlink="http://www.w3.org/1999/xlink" width="400" height="400" viewBox="0, 0, 400,400"><g id="svgg"><path id="path0" d="M164.600 111.057 C 158.434 111.836,152.400 117.035,152.400 121.567 C 152.400 122.223,152.236 123.624,152.035 124.680 C 151.835 125.736,151.469 127.950,151.221 129.600 C 150.974 131.250,150.601 133.680,150.391 135.000 C 150.182 136.320,149.553 140.550,148.994 144.400 C 148.435 148.250,147.805 152.480,147.595 153.800 C 147.385 155.120,146.849 158.630,146.406 161.600 C 145.962 164.570,145.426 168.080,145.215 169.400 C 145.004 170.720,144.627 173.150,144.378 174.800 C 143.103 183.243,144.110 182.289,135.709 183.016 C 132.019 183.335,127.740 183.763,126.200 183.968 C 124.660 184.172,121.690 184.549,119.600 184.805 C 111.756 185.765,100.814 187.489,96.800 188.398 C 95.810 188.622,94.190 188.969,93.200 189.169 C 92.210 189.369,89.960 189.925,88.200 190.404 C 86.440 190.884,84.503 191.370,83.895 191.484 C 83.287 191.599,82.692 191.851,82.571 192.046 C 82.451 192.241,82.006 192.400,81.583 192.400 C 80.433 192.400,73.734 195.383,71.574 196.857 C 65.689 200.873,67.766 205.162,77.600 209.302 C 80.881 210.684,90.245 213.315,95.800 214.416 C 97.120 214.678,98.740 215.031,99.400 215.202 C 100.737 215.548,103.692 216.034,111.400 217.178 C 120.734 218.563,124.623 219.025,136.400 220.145 L 141.400 220.621 141.400 231.205 L 141.400 241.789 139.709 242.595 C 131.385 246.560,131.660 258.966,140.139 262.032 L 141.600 262.561 141.600 273.816 L 141.600 285.072 140.021 285.593 C 131.001 288.570,131.749 302.725,141.069 305.438 C 152.273 308.700,159.792 292.712,149.872 286.723 C 147.029 285.006,147.199 285.825,147.206 273.871 C 147.213 262.131,147.145 262.556,149.200 261.307 C 156.283 257.002,155.796 244.948,148.445 242.614 C 147.226 242.227,147.163 241.595,147.287 231.000 L 147.400 221.400 151.400 221.465 C 153.600 221.501,158.910 221.771,163.200 222.065 C 174.889 222.867,234.500 222.743,247.200 221.891 C 252.370 221.545,256.738 221.394,256.907 221.558 C 257.541 222.170,257.057 241.685,256.400 242.010 C 256.070 242.174,255.270 242.553,254.621 242.854 C 246.768 246.494,247.377 259.286,255.533 261.978 L 257.200 262.528 257.200 273.652 L 257.200 284.777 255.005 285.815 C 243.795 291.118,249.651 308.438,261.689 305.585 C 270.813 303.422,272.944 291.525,265.103 286.531 C 262.276 284.730,262.400 285.322,262.400 273.586 C 262.400 262.347,262.522 261.600,264.351 261.600 C 266.419 261.600,270.000 255.624,270.000 252.173 C 270.000 249.088,266.735 243.200,265.024 243.200 C 264.745 243.200,264.041 242.759,263.458 242.219 L 262.400 241.238 262.400 231.468 C 262.400 223.715,262.512 221.605,262.944 221.246 C 263.244 220.998,267.249 220.434,271.844 219.994 C 282.981 218.928,289.603 218.150,295.600 217.205 C 297.030 216.979,299.010 216.696,300.000 216.574 C 300.990 216.453,302.520 216.196,303.400 216.003 C 304.280 215.811,306.170 215.449,307.600 215.200 C 310.633 214.671,312.424 214.284,316.000 213.383 C 317.430 213.023,319.230 212.576,320.000 212.391 C 320.770 212.205,322.030 211.871,322.800 211.649 C 323.570 211.427,324.833 211.083,325.606 210.886 C 326.999 210.530,327.540 210.311,332.200 208.218 C 343.175 203.289,340.961 197.267,326.400 192.444 C 321.928 190.962,321.362 190.800,320.666 190.800 C 320.294 190.800,319.677 190.639,319.295 190.443 C 318.913 190.246,317.610 189.877,316.400 189.623 C 315.190 189.369,313.435 188.990,312.500 188.780 C 308.425 187.869,307.231 187.635,304.400 187.197 C 302.750 186.941,300.590 186.574,299.600 186.381 C 298.610 186.188,296.360 185.838,294.600 185.602 C 292.840 185.366,290.230 185.000,288.800 184.788 C 285.712 184.330,277.041 183.411,269.800 182.775 C 266.940 182.524,264.496 182.255,264.368 182.178 C 264.059 181.990,263.436 179.053,261.976 170.900 C 261.769 169.745,261.420 167.810,261.200 166.600 C 260.980 165.390,260.620 163.410,260.400 162.200 C 260.180 160.990,259.820 159.010,259.600 157.800 C 259.380 156.590,259.028 154.655,258.818 153.500 C 258.608 152.345,258.233 150.230,257.983 148.800 C 257.447 145.724,257.476 145.883,254.805 131.200 C 254.585 129.990,254.050 126.970,253.616 124.488 C 252.433 117.724,250.432 114.473,246.360 112.704 C 245.612 112.378,244.460 111.862,243.800 111.556 C 242.673 111.034,168.481 110.566,164.600 111.057 M147.244 247.632 C 149.633 249.332,150.297 252.578,148.764 255.058 C 146.452 258.800,139.598 257.919,138.550 253.745 C 137.292 248.730,143.075 244.663,147.244 247.632 M262.807 247.605 C 267.296 250.801,265.046 257.212,259.445 257.187 C 255.521 257.170,254.000 255.800,254.000 252.285 C 254.000 247.588,259.030 244.916,262.807 247.605 M146.704 290.398 C 151.824 293.520,149.779 300.800,143.782 300.800 C 140.357 300.800,138.157 298.273,138.497 294.730 C 138.889 290.653,143.302 288.324,146.704 290.398 M262.193 290.575 C 267.217 293.519,265.228 300.800,259.400 300.800 C 257.268 300.800,256.996 300.690,255.553 299.247 C 250.924 294.618,256.551 287.268,262.193 290.575 " stroke="none" fill="#f9fafb" fill-rule="evenodd"></path><path id="path1" d="M190.000 47.592 C 189.670 47.810,187.566 47.991,185.324 47.994 C 183.045 47.997,181.138 48.176,181.000 48.400 C 180.864 48.620,179.694 48.800,178.400 48.800 C 177.106 48.800,175.936 48.980,175.800 49.200 C 175.664 49.420,174.584 49.600,173.400 49.600 C 172.216 49.600,171.136 49.780,171.000 50.000 C 170.864 50.220,169.863 50.400,168.776 50.400 C 167.689 50.400,166.800 50.580,166.800 50.800 C 166.800 51.020,166.080 51.200,165.200 51.200 C 164.320 51.200,163.600 51.380,163.600 51.600 C 163.600 51.820,162.981 52.000,162.224 52.000 C 161.467 52.000,160.736 52.180,160.600 52.400 C 160.464 52.620,159.733 52.800,158.976 52.800 C 158.219 52.800,157.600 52.980,157.600 53.200 C 157.600 53.420,157.060 53.600,156.400 53.600 C 155.740 53.600,155.200 53.780,155.200 54.000 C 155.200 54.220,154.660 54.400,154.000 54.400 C 153.340 54.400,152.800 54.580,152.800 54.800 C 152.800 55.020,152.260 55.200,151.600 55.200 C 150.940 55.200,150.400 55.380,150.400 55.600 C 150.400 55.820,149.860 56.000,149.200 56.000 C 148.540 56.000,148.000 56.180,148.000 56.400 C 148.000 56.620,147.460 56.800,146.800 56.800 C 146.140 56.800,145.600 56.980,145.600 57.200 C 145.600 57.420,145.150 57.600,144.600 57.600 C 144.050 57.600,143.600 57.780,143.600 58.000 C 143.600 58.220,143.285 58.401,142.900 58.402 C 142.515 58.404,141.684 58.674,141.054 59.002 C 140.424 59.331,139.740 59.600,139.535 59.600 C 139.329 59.600,138.416 59.960,137.506 60.400 C 136.595 60.840,135.614 61.200,135.325 61.200 C 135.036 61.200,134.800 61.380,134.800 61.600 C 134.800 61.820,134.440 62.000,134.000 62.000 C 133.560 62.000,133.200 62.180,133.200 62.400 C 133.200 62.620,132.840 62.800,132.400 62.800 C 131.960 62.800,131.600 62.980,131.600 63.200 C 131.600 63.420,131.240 63.600,130.800 63.600 C 130.360 63.600,129.999 63.735,129.999 63.900 C 129.998 64.065,129.008 64.650,127.800 65.200 C 126.592 65.750,125.602 66.335,125.601 66.500 C 125.601 66.665,125.280 66.800,124.888 66.800 C 124.497 66.800,123.917 67.160,123.600 67.600 C 123.283 68.040,122.703 68.400,122.312 68.400 C 121.920 68.400,121.600 68.580,121.600 68.800 C 121.600 69.020,121.280 69.200,120.888 69.200 C 120.497 69.200,119.917 69.560,119.600 70.000 C 119.283 70.440,118.743 70.800,118.400 70.800 C 118.057 70.800,117.517 71.160,117.200 71.600 C 116.883 72.040,116.386 72.400,116.095 72.400 C 115.804 72.400,115.180 72.760,114.708 73.200 C 114.236 73.640,113.613 74.000,113.325 74.000 C 113.036 74.000,112.800 74.141,112.800 74.314 C 112.800 74.486,112.215 74.969,111.500 75.386 C 109.909 76.315,107.229 78.353,106.353 79.300 C 105.997 79.685,105.524 80.000,105.301 80.000 C 105.079 80.000,104.200 80.676,103.348 81.502 C 102.497 82.328,101.170 83.450,100.400 83.996 C 98.748 85.166,83.600 100.305,83.600 100.786 C 83.600 100.968,82.790 101.974,81.800 103.022 C 80.810 104.070,80.000 105.103,80.000 105.317 C 80.000 105.531,79.675 105.997,79.277 106.353 C 78.879 106.709,77.670 108.260,76.590 109.800 C 75.511 111.340,74.531 112.690,74.413 112.800 C 74.295 112.910,73.944 113.495,73.632 114.100 C 73.320 114.705,72.915 115.200,72.732 115.200 C 72.550 115.200,72.400 115.520,72.400 115.912 C 72.400 116.303,72.040 116.883,71.600 117.200 C 71.160 117.517,70.800 118.057,70.800 118.400 C 70.800 118.743,70.440 119.283,70.000 119.600 C 69.560 119.917,69.200 120.497,69.200 120.888 C 69.200 121.280,69.020 121.600,68.800 121.600 C 68.580 121.600,68.400 121.920,68.400 122.312 C 68.400 122.703,68.040 123.283,67.600 123.600 C 67.160 123.917,66.800 124.497,66.800 124.888 C 66.800 125.280,66.665 125.601,66.500 125.601 C 66.335 125.602,65.750 126.592,65.200 127.800 C 64.650 129.008,64.065 129.998,63.900 129.999 C 63.735 129.999,63.600 130.360,63.600 130.800 C 63.600 131.240,63.420 131.600,63.200 131.600 C 62.980 131.600,62.800 131.960,62.800 132.400 C 62.800 132.840,62.620 133.200,62.400 133.200 C 62.180 133.200,62.000 133.560,62.000 134.000 C 62.000 134.440,61.820 134.800,61.600 134.800 C 61.380 134.800,61.200 135.124,61.200 135.520 C 61.200 135.916,61.042 136.411,60.849 136.620 C 60.469 137.031,58.856 141.236,58.516 142.700 C 58.401 143.195,58.148 143.600,57.953 143.600 C 57.759 143.600,57.600 144.050,57.600 144.600 C 57.600 145.150,57.420 145.600,57.200 145.600 C 56.980 145.600,56.800 146.140,56.800 146.800 C 56.800 147.460,56.620 148.000,56.400 148.000 C 56.180 148.000,56.000 148.540,56.000 149.200 C 56.000 149.860,55.820 150.400,55.600 150.400 C 55.380 150.400,55.200 150.940,55.200 151.600 C 55.200 152.260,55.020 152.800,54.800 152.800 C 54.580 152.800,54.400 153.340,54.400 154.000 C 54.400 154.660,54.220 155.200,54.000 155.200 C 53.780 155.200,53.600 155.740,53.600 156.400 C 53.600 157.060,53.420 157.600,53.200 157.600 C 52.980 157.600,52.800 158.219,52.800 158.976 C 52.800 159.733,52.620 160.464,52.400 160.600 C 52.180 160.736,52.000 161.467,52.000 162.224 C 52.000 162.981,51.820 163.600,51.600 163.600 C 51.380 163.600,51.200 164.320,51.200 165.200 C 51.200 166.080,51.020 166.800,50.800 166.800 C 50.580 166.800,50.400 167.689,50.400 168.776 C 50.400 169.863,50.220 170.864,50.000 171.000 C 49.780 171.136,49.600 172.216,49.600 173.400 C 49.600 174.584,49.420 175.664,49.200 175.800 C 48.980 175.936,48.800 177.081,48.800 178.344 C 48.800 179.607,48.631 180.811,48.425 181.020 C 47.247 182.215,47.247 217.785,48.425 218.980 C 48.631 219.189,48.800 220.393,48.800 221.656 C 48.800 222.919,48.980 224.064,49.200 224.200 C 49.420 224.336,49.600 225.416,49.600 226.600 C 49.600 227.784,49.780 228.864,50.000 229.000 C 50.220 229.136,50.400 230.137,50.400 231.224 C 50.400 232.311,50.580 233.200,50.800 233.200 C 51.020 233.200,51.200 233.920,51.200 234.800 C 51.200 235.680,51.380 236.400,51.600 236.400 C 51.820 236.400,52.000 237.120,52.000 238.000 C 52.000 238.880,52.180 239.600,52.400 239.600 C 52.620 239.600,52.800 240.230,52.800 241.000 C 52.800 241.770,52.980 242.400,53.200 242.400 C 53.420 242.400,53.600 242.940,53.600 243.600 C 53.600 244.260,53.780 244.800,54.000 244.800 C 54.220 244.800,54.400 245.329,54.400 245.976 C 54.400 246.623,54.580 247.264,54.800 247.400 C 55.020 247.536,55.200 248.076,55.200 248.600 C 55.200 249.124,55.380 249.664,55.600 249.800 C 55.820 249.936,56.000 250.487,56.000 251.024 C 56.000 251.561,56.180 252.000,56.400 252.000 C 56.620 252.000,56.800 252.540,56.800 253.200 C 56.800 253.860,56.980 254.400,57.200 254.400 C 57.420 254.400,57.600 254.835,57.600 255.367 C 57.600 255.898,57.735 256.393,57.900 256.467 C 58.065 256.540,58.541 257.590,58.958 258.800 C 59.375 260.010,60.050 261.709,60.458 262.575 C 60.866 263.441,61.200 264.386,61.200 264.675 C 61.200 264.964,61.380 265.200,61.600 265.200 C 61.820 265.200,62.000 265.560,62.000 266.000 C 62.000 266.440,62.180 266.800,62.400 266.800 C 62.620 266.800,62.800 267.160,62.800 267.600 C 62.800 268.040,62.980 268.400,63.200 268.400 C 63.420 268.400,63.600 268.760,63.600 269.200 C 63.600 269.640,63.780 270.000,64.000 270.000 C 64.220 270.000,64.400 270.360,64.400 270.800 C 64.400 271.240,64.546 271.600,64.725 271.600 C 64.904 271.600,65.298 272.230,65.600 273.000 C 65.902 273.770,66.296 274.400,66.475 274.400 C 66.654 274.400,66.800 274.678,66.800 275.017 C 66.800 275.356,67.160 276.020,67.600 276.492 C 68.040 276.964,68.400 277.587,68.400 277.875 C 68.400 278.164,68.580 278.400,68.800 278.400 C 69.020 278.400,69.200 278.760,69.200 279.200 C 69.200 279.640,69.350 280.000,69.532 280.000 C 69.715 280.000,70.120 280.495,70.432 281.100 C 70.745 281.705,71.315 282.549,71.700 282.975 C 72.085 283.402,72.400 283.987,72.400 284.275 C 72.400 284.564,72.550 284.800,72.732 284.800 C 72.915 284.800,73.320 285.295,73.632 285.900 C 73.945 286.505,74.515 287.349,74.900 287.775 C 75.285 288.202,75.600 288.787,75.600 289.075 C 75.600 289.364,75.741 289.600,75.914 289.600 C 76.086 289.600,76.522 290.095,76.883 290.700 C 77.243 291.305,77.872 292.160,78.280 292.600 C 78.688 293.040,79.463 294.030,80.002 294.800 C 80.541 295.570,81.379 296.601,81.864 297.091 C 82.349 297.581,83.249 298.661,83.864 299.491 C 85.354 301.501,98.973 315.123,100.989 316.620 C 101.863 317.269,103.206 318.385,103.973 319.100 C 104.739 319.815,105.501 320.400,105.665 320.400 C 105.829 320.400,106.377 320.805,106.882 321.300 C 107.387 321.795,108.880 322.920,110.200 323.800 C 111.520 324.680,112.660 325.535,112.733 325.700 C 112.807 325.865,113.122 326.000,113.433 326.000 C 113.745 326.000,114.000 326.180,114.000 326.400 C 114.000 326.620,114.270 326.800,114.600 326.800 C 114.930 326.800,115.200 326.980,115.200 327.200 C 115.200 327.420,115.470 327.600,115.800 327.600 C 116.130 327.600,116.400 327.780,116.400 328.000 C 116.400 328.220,116.670 328.400,117.000 328.400 C 117.330 328.400,117.600 328.580,117.600 328.800 C 117.600 329.020,117.870 329.200,118.200 329.200 C 118.530 329.200,118.800 329.380,118.800 329.600 C 118.800 329.820,119.070 330.000,119.400 330.000 C 119.730 330.000,120.000 330.180,120.000 330.400 C 120.000 330.620,120.278 330.800,120.617 330.800 C 120.956 330.800,121.620 331.160,122.092 331.600 C 122.564 332.040,123.187 332.400,123.475 332.400 C 123.764 332.400,124.000 332.580,124.000 332.800 C 124.000 333.020,124.345 333.200,124.767 333.200 C 125.188 333.200,125.593 333.335,125.667 333.500 C 126.118 334.515,141.060 341.600,142.750 341.600 C 143.218 341.600,143.600 341.780,143.600 342.000 C 143.600 342.220,143.949 342.400,144.376 342.400 C 144.803 342.400,145.264 342.580,145.400 342.800 C 145.536 343.020,146.087 343.200,146.624 343.200 C 147.161 343.200,147.600 343.380,147.600 343.600 C 147.600 343.820,148.039 344.000,148.576 344.000 C 149.113 344.000,149.664 344.180,149.800 344.400 C 149.936 344.620,150.487 344.800,151.024 344.800 C 151.561 344.800,152.000 344.980,152.000 345.200 C 152.000 345.420,152.529 345.600,153.176 345.600 C 153.823 345.600,154.464 345.780,154.600 346.000 C 154.736 346.220,155.276 346.400,155.800 346.400 C 156.324 346.400,156.864 346.580,157.000 346.800 C 157.136 347.020,157.867 347.200,158.624 347.200 C 159.381 347.200,160.000 347.380,160.000 347.600 C 160.000 347.820,160.619 348.000,161.376 348.000 C 162.133 348.000,162.864 348.180,163.000 348.400 C 163.136 348.620,163.856 348.800,164.600 348.800 C 165.344 348.800,166.064 348.980,166.200 349.200 C 166.336 349.420,167.236 349.600,168.200 349.600 C 169.164 349.600,170.064 349.780,170.200 350.000 C 170.336 350.220,171.326 350.400,172.400 350.400 C 173.474 350.400,174.464 350.580,174.600 350.800 C 174.736 351.020,175.881 351.200,177.144 351.200 C 178.407 351.200,179.611 351.363,179.820 351.563 C 181.172 352.855,218.828 352.855,220.180 351.563 C 220.389 351.363,221.593 351.200,222.856 351.200 C 224.119 351.200,225.264 351.020,225.400 350.800 C 225.536 350.580,226.526 350.400,227.600 350.400 C 228.674 350.400,229.664 350.220,229.800 350.000 C 229.936 349.780,230.836 349.600,231.800 349.600 C 232.764 349.600,233.664 349.420,233.800 349.200 C 233.936 348.980,234.656 348.800,235.400 348.800 C 236.144 348.800,236.864 348.620,237.000 348.400 C 237.136 348.180,237.867 348.000,238.624 348.000 C 239.381 348.000,240.000 347.820,240.000 347.600 C 240.000 347.380,240.619 347.200,241.376 347.200 C 242.133 347.200,242.864 347.020,243.000 346.800 C 243.136 346.580,243.777 346.400,244.424 346.400 C 245.071 346.400,245.600 346.220,245.600 346.000 C 245.600 345.780,246.140 345.600,246.800 345.600 C 247.460 345.600,248.000 345.420,248.000 345.200 C 248.000 344.980,248.439 344.800,248.976 344.800 C 249.513 344.800,250.064 344.620,250.200 344.400 C 250.336 344.180,250.799 344.000,251.229 344.000 C 251.659 344.000,252.368 343.820,252.805 343.600 C 253.242 343.380,253.958 343.020,254.395 342.800 C 254.832 342.580,255.462 342.400,255.795 342.400 C 256.128 342.400,256.400 342.220,256.400 342.000 C 256.400 341.780,256.782 341.600,257.250 341.600 C 258.940 341.600,273.882 334.515,274.333 333.500 C 274.407 333.335,274.812 333.200,275.233 333.200 C 275.655 333.200,276.000 333.020,276.000 332.800 C 276.000 332.580,276.236 332.400,276.525 332.400 C 276.813 332.400,277.436 332.040,277.908 331.600 C 278.380 331.160,279.044 330.800,279.383 330.800 C 279.722 330.800,280.000 330.620,280.000 330.400 C 280.000 330.180,280.236 330.000,280.525 330.000 C 280.813 330.000,281.398 329.685,281.825 329.300 C 282.251 328.915,283.095 328.345,283.700 328.032 C 284.305 327.720,284.800 327.315,284.800 327.132 C 284.800 326.950,285.036 326.800,285.325 326.800 C 285.613 326.800,286.236 326.440,286.708 326.000 C 287.180 325.560,287.709 325.198,287.883 325.196 C 288.225 325.192,291.244 322.940,292.686 321.615 C 293.173 321.167,293.714 320.800,293.888 320.800 C 294.062 320.800,294.923 320.124,295.802 319.297 C 296.681 318.470,298.030 317.347,298.800 316.801 C 299.570 316.255,301.308 314.726,302.661 313.404 C 304.015 312.082,306.175 309.991,307.461 308.758 C 310.858 305.502,315.747 300.279,316.845 298.735 C 317.367 298.001,318.470 296.681,319.297 295.802 C 320.124 294.923,320.800 294.062,320.800 293.888 C 320.800 293.714,321.167 293.173,321.615 292.686 C 323.211 290.950,325.192 288.192,325.196 287.700 C 325.198 287.425,325.350 287.200,325.532 287.200 C 325.715 287.200,326.120 286.705,326.432 286.100 C 326.745 285.495,327.315 284.651,327.700 284.225 C 328.085 283.798,328.400 283.296,328.400 283.108 C 328.400 282.920,328.760 282.380,329.200 281.908 C 329.640 281.436,330.000 280.813,330.000 280.525 C 330.000 280.236,330.180 280.000,330.400 280.000 C 330.620 280.000,330.800 279.722,330.800 279.383 C 330.800 279.044,331.160 278.380,331.600 277.908 C 332.040 277.436,332.400 276.813,332.400 276.525 C 332.400 276.236,332.580 276.000,332.800 276.000 C 333.020 276.000,333.200 275.655,333.200 275.233 C 333.200 274.812,333.335 274.407,333.500 274.333 C 334.515 273.882,341.600 258.940,341.600 257.250 C 341.600 256.782,341.780 256.400,342.000 256.400 C 342.220 256.400,342.400 256.128,342.400 255.795 C 342.400 255.462,342.580 254.832,342.800 254.395 C 343.020 253.958,343.380 253.242,343.600 252.805 C 343.820 252.368,344.000 251.659,344.000 251.229 C 344.000 250.799,344.180 250.336,344.400 250.200 C 344.620 250.064,344.800 249.513,344.800 248.976 C 344.800 248.439,344.980 248.000,345.200 248.000 C 345.420 248.000,345.600 247.460,345.600 246.800 C 345.600 246.140,345.780 245.600,346.000 245.600 C 346.220 245.600,346.400 245.071,346.400 244.424 C 346.400 243.777,346.580 243.136,346.800 243.000 C 347.020 242.864,347.200 242.133,347.200 241.376 C 347.200 240.619,347.380 240.000,347.600 240.000 C 347.820 240.000,348.000 239.381,348.000 238.624 C 348.000 237.867,348.180 237.136,348.400 237.000 C 348.620 236.864,348.800 236.144,348.800 235.400 C 348.800 234.656,348.980 233.936,349.200 233.800 C 349.420 233.664,349.600 232.764,349.600 231.800 C 349.600 230.836,349.780 229.936,350.000 229.800 C 350.220 229.664,350.400 228.674,350.400 227.600 C 350.400 226.526,350.580 225.536,350.800 225.400 C 351.020 225.264,351.200 224.119,351.200 222.856 C 351.200 221.593,351.363 220.389,351.563 220.180 C 352.192 219.522,352.491 213.023,352.491 200.000 C 352.491 186.977,352.192 180.478,351.563 179.820 C 351.363 179.611,351.200 178.407,351.200 177.144 C 351.200 175.881,351.020 174.736,350.800 174.600 C 350.580 174.464,350.400 173.474,350.400 172.400 C 350.400 171.326,350.220 170.336,350.000 170.200 C 349.780 170.064,349.600 169.164,349.600 168.200 C 349.600 167.236,349.420 166.336,349.200 166.200 C 348.980 166.064,348.800 165.344,348.800 164.600 C 348.800 163.856,348.620 163.136,348.400 163.000 C 348.180 162.864,348.000 162.133,348.000 161.376 C 348.000 160.619,347.820 160.000,347.600 160.000 C 347.380 160.000,347.200 159.381,347.200 158.624 C 347.200 157.867,347.020 157.136,346.800 157.000 C 346.580 156.864,346.400 156.324,346.400 155.800 C 346.400 155.276,346.220 154.736,346.000 154.600 C 345.780 154.464,345.600 153.823,345.600 153.176 C 345.600 152.529,345.420 152.000,345.200 152.000 C 344.980 152.000,344.800 151.561,344.800 151.024 C 344.800 150.487,344.620 149.936,344.400 149.800 C 344.180 149.664,344.000 149.201,344.000 148.771 C 344.000 148.341,343.820 147.632,343.600 147.195 C 343.380 146.758,343.020 146.042,342.800 145.605 C 342.580 145.168,342.400 144.538,342.400 144.205 C 342.400 143.872,342.220 143.600,342.000 143.600 C 341.780 143.600,341.600 143.218,341.600 142.750 C 341.600 141.060,334.515 126.118,333.500 125.667 C 333.335 125.593,333.200 125.188,333.200 124.767 C 333.200 124.345,333.020 124.000,332.800 124.000 C 332.580 124.000,332.400 123.764,332.400 123.475 C 332.400 123.187,332.040 122.564,331.600 122.092 C 331.160 121.620,330.800 120.956,330.800 120.617 C 330.800 120.278,330.620 120.000,330.400 120.000 C 330.180 120.000,330.000 119.764,330.000 119.475 C 330.000 119.187,329.685 118.602,329.300 118.175 C 328.915 117.749,328.345 116.905,328.032 116.300 C 327.720 115.695,327.315 115.200,327.132 115.200 C 326.950 115.200,326.800 114.930,326.800 114.600 C 326.800 114.270,326.620 114.000,326.400 114.000 C 326.180 114.000,326.000 113.745,326.000 113.433 C 326.000 113.122,325.865 112.807,325.700 112.733 C 325.535 112.660,324.680 111.520,323.800 110.200 C 322.920 108.880,321.795 107.387,321.300 106.882 C 320.805 106.377,320.400 105.829,320.400 105.665 C 320.400 105.501,319.815 104.739,319.100 103.973 C 318.385 103.206,317.269 101.863,316.620 100.989 C 315.123 98.973,301.501 85.354,299.491 83.864 C 298.661 83.249,297.581 82.349,297.091 81.864 C 296.601 81.379,295.570 80.541,294.800 80.002 C 294.030 79.463,293.040 78.688,292.600 78.280 C 292.160 77.872,291.305 77.243,290.700 76.883 C 290.095 76.522,289.600 76.086,289.600 75.914 C 289.600 75.741,289.364 75.600,289.075 75.600 C 288.787 75.600,288.202 75.285,287.775 74.900 C 287.349 74.515,286.505 73.945,285.900 73.632 C 285.295 73.320,284.800 72.915,284.800 72.732 C 284.800 72.550,284.564 72.400,284.275 72.400 C 283.987 72.400,283.402 72.085,282.975 71.700 C 282.549 71.315,281.705 70.745,281.100 70.432 C 280.495 70.120,280.000 69.715,280.000 69.532 C 280.000 69.350,279.640 69.200,279.200 69.200 C 278.760 69.200,278.400 69.020,278.400 68.800 C 278.400 68.580,278.164 68.400,277.875 68.400 C 277.587 68.400,276.964 68.040,276.492 67.600 C 276.020 67.160,275.356 66.800,275.017 66.800 C 274.678 66.800,274.400 66.654,274.400 66.475 C 274.400 66.296,273.770 65.902,273.000 65.600 C 272.230 65.298,271.600 64.904,271.600 64.725 C 271.600 64.546,271.240 64.400,270.800 64.400 C 270.360 64.400,270.000 64.220,270.000 64.000 C 270.000 63.780,269.640 63.600,269.200 63.600 C 268.760 63.600,268.400 63.420,268.400 63.200 C 268.400 62.980,268.040 62.800,267.600 62.800 C 267.160 62.800,266.800 62.620,266.800 62.400 C 266.800 62.180,266.440 62.000,266.000 62.000 C 265.560 62.000,265.200 61.820,265.200 61.600 C 265.200 61.380,264.964 61.200,264.675 61.200 C 264.386 61.200,263.441 60.861,262.575 60.446 C 261.709 60.031,260.010 59.356,258.800 58.946 C 257.590 58.536,256.540 58.065,256.467 57.900 C 256.393 57.735,255.898 57.600,255.367 57.600 C 254.835 57.600,254.400 57.420,254.400 57.200 C 254.400 56.980,253.860 56.800,253.200 56.800 C 252.540 56.800,252.000 56.620,252.000 56.400 C 252.000 56.180,251.561 56.000,251.024 56.000 C 250.487 56.000,249.936 55.820,249.800 55.600 C 249.664 55.380,249.124 55.200,248.600 55.200 C 248.076 55.200,247.536 55.020,247.400 54.800 C 247.264 54.580,246.623 54.400,245.976 54.400 C 245.329 54.400,244.800 54.220,244.800 54.000 C 244.800 53.780,244.260 53.600,243.600 53.600 C 242.940 53.600,242.400 53.420,242.400 53.200 C 242.400 52.980,241.770 52.800,241.000 52.800 C 240.230 52.800,239.600 52.620,239.600 52.400 C 239.600 52.180,238.880 52.000,238.000 52.000 C 237.120 52.000,236.400 51.820,236.400 51.600 C 236.400 51.380,235.680 51.200,234.800 51.200 C 233.920 51.200,233.200 51.020,233.200 50.800 C 233.200 50.580,232.311 50.400,231.224 50.400 C 230.137 50.400,229.136 50.220,229.000 50.000 C 228.864 49.780,227.784 49.600,226.600 49.600 C 225.416 49.600,224.336 49.420,224.200 49.200 C 224.064 48.980,222.919 48.800,221.656 48.800 C 220.393 48.800,219.189 48.631,218.980 48.425 C 218.207 47.662,191.077 46.883,190.000 47.592 M242.294 110.460 C 248.942 112.064,253.191 116.283,254.047 122.133 C 254.245 123.490,254.571 125.500,254.770 126.600 C 254.969 127.700,255.344 129.770,255.603 131.200 C 255.862 132.630,256.237 134.745,256.437 135.900 C 256.793 137.960,257.180 140.110,258.022 144.700 C 258.253 145.965,258.540 147.900,258.658 149.000 C 258.777 150.100,259.037 151.171,259.237 151.380 C 259.437 151.589,259.600 152.613,259.600 153.656 C 259.600 154.699,259.780 155.664,260.000 155.800 C 260.220 155.936,260.400 156.901,260.400 157.944 C 260.400 158.987,260.563 160.011,260.761 160.220 C 260.960 160.429,261.221 161.410,261.342 162.400 C 261.463 163.390,261.751 165.235,261.981 166.500 C 262.212 167.765,262.580 169.790,262.800 171.000 C 263.020 172.210,263.388 174.235,263.619 175.500 C 263.849 176.765,264.138 178.578,264.261 179.529 C 264.546 181.725,262.598 181.326,282.200 183.206 C 284.180 183.396,287.240 183.756,289.000 184.006 C 296.492 185.070,297.912 185.278,300.000 185.616 C 302.702 186.054,305.949 186.639,308.600 187.166 C 310.497 187.543,311.918 187.848,316.300 188.822 C 317.345 189.054,318.787 189.344,319.504 189.466 C 320.221 189.588,320.906 189.849,321.027 190.044 C 321.148 190.240,321.689 190.400,322.229 190.400 C 322.769 190.400,323.523 190.558,323.905 190.751 C 324.287 190.944,325.320 191.316,326.200 191.577 C 328.225 192.179,328.985 192.482,331.138 193.543 C 332.094 194.014,333.048 194.400,333.260 194.400 C 334.101 194.400,338.498 197.742,339.224 198.932 C 341.207 202.184,338.523 206.602,333.451 208.436 C 332.653 208.725,332.000 209.105,332.000 209.280 C 332.000 209.456,331.550 209.600,331.000 209.600 C 330.450 209.600,330.000 209.780,330.000 210.000 C 330.000 210.220,329.651 210.400,329.224 210.400 C 328.797 210.400,328.336 210.580,328.200 210.800 C 328.064 211.020,327.601 211.200,327.171 211.200 C 326.741 211.200,326.077 211.358,325.695 211.551 C 324.539 212.135,322.196 212.800,321.295 212.800 C 320.829 212.800,320.348 212.960,320.227 213.156 C 320.106 213.351,319.421 213.612,318.704 213.734 C 317.987 213.856,316.545 214.146,315.500 214.378 C 314.455 214.610,312.745 214.990,311.700 215.221 C 307.619 216.126,298.329 217.678,292.800 218.379 C 291.150 218.589,288.360 218.951,286.600 219.185 C 281.248 219.897,273.214 220.733,269.200 220.995 C 267.110 221.132,264.995 221.327,264.500 221.429 L 263.600 221.615 263.600 231.710 L 263.600 241.805 264.900 242.362 C 272.505 245.624,272.477 257.729,264.852 262.233 L 263.600 262.972 263.601 273.786 L 263.601 284.600 265.445 285.765 C 274.811 291.682,271.079 305.905,260.047 306.337 C 247.383 306.833,243.296 289.449,255.023 284.970 L 256.800 284.291 256.800 273.733 C 256.800 264.032,256.743 263.156,256.100 262.945 C 246.084 259.650,245.268 246.446,254.802 241.938 L 256.786 241.000 256.793 231.448 L 256.800 221.897 254.700 222.182 C 243.025 223.766,175.128 223.745,151.900 222.150 L 148.000 221.882 148.000 231.722 L 148.000 241.562 149.391 242.222 C 157.216 245.936,157.038 258.271,149.100 262.368 L 148.000 262.935 148.000 273.822 L 148.000 284.709 149.300 285.329 C 159.831 290.355,155.713 306.381,143.887 306.396 C 131.705 306.411,128.299 289.780,139.500 284.975 L 141.200 284.246 141.200 273.710 C 141.200 264.031,141.143 263.156,140.500 262.945 C 130.630 259.698,130.097 245.559,139.700 241.714 L 141.200 241.113 141.200 231.234 L 141.200 221.354 133.500 220.653 C 129.265 220.268,124.630 219.783,123.200 219.576 C 121.770 219.368,118.440 218.921,115.800 218.582 C 113.160 218.242,109.920 217.786,108.600 217.567 C 107.280 217.348,105.120 216.998,103.800 216.789 C 101.051 216.352,98.195 215.792,95.600 215.181 C 92.501 214.450,90.248 213.964,88.896 213.734 C 88.179 213.612,87.494 213.351,87.373 213.156 C 87.252 212.960,86.771 212.800,86.305 212.800 C 85.404 212.800,83.061 212.135,81.905 211.551 C 81.523 211.358,80.936 211.200,80.600 211.200 C 80.264 211.200,79.632 211.020,79.195 210.800 C 78.758 210.580,78.042 210.220,77.605 210.000 C 77.168 209.780,76.538 209.600,76.205 209.600 C 75.872 209.600,75.600 209.420,75.600 209.200 C 75.600 208.980,75.366 208.800,75.080 208.800 C 74.344 208.800,72.407 207.859,72.403 207.500 C 72.401 207.335,72.175 207.194,71.900 207.187 C 70.357 207.148,67.600 203.507,67.600 201.508 C 67.600 198.701,73.285 193.600,76.412 193.600 C 76.845 193.600,77.200 193.420,77.200 193.200 C 77.200 192.980,77.549 192.800,77.976 192.800 C 78.403 192.800,78.864 192.620,79.000 192.400 C 79.136 192.180,79.676 192.000,80.200 192.000 C 80.724 192.000,81.264 191.820,81.400 191.600 C 81.536 191.380,82.076 191.200,82.600 191.200 C 83.124 191.200,83.664 191.020,83.800 190.800 C 83.936 190.580,84.566 190.400,85.200 190.400 C 85.834 190.400,86.464 190.220,86.600 190.000 C 86.736 189.780,87.456 189.600,88.200 189.600 C 88.944 189.600,89.652 189.439,89.774 189.242 C 89.895 189.045,90.671 188.787,91.497 188.668 C 92.324 188.549,93.900 188.252,95.000 188.008 C 99.028 187.113,102.700 186.434,108.000 185.603 C 116.138 184.328,118.785 183.972,125.800 183.209 C 130.843 182.660,141.699 181.603,142.300 181.601 C 142.622 181.600,142.800 180.989,142.800 179.880 C 142.800 178.934,142.965 177.989,143.166 177.780 C 143.368 177.571,143.629 176.320,143.748 175.000 C 143.948 172.759,144.261 170.514,145.196 164.600 C 145.405 163.280,145.752 160.940,145.967 159.400 C 146.182 157.860,146.542 155.430,146.766 154.000 C 146.990 152.570,147.448 149.510,147.783 147.200 C 148.118 144.890,148.561 141.920,148.768 140.600 C 150.232 131.229,150.777 127.492,151.185 124.000 C 152.050 116.611,155.819 112.305,163.000 110.503 C 165.396 109.901,239.813 109.861,242.294 110.460 M142.000 247.720 C 137.439 249.844,138.673 256.800,143.610 256.800 C 146.179 256.800,147.347 256.220,148.144 254.548 C 150.177 250.284,146.136 245.793,142.000 247.720 M257.146 247.842 C 255.296 248.820,254.247 251.133,254.677 253.284 C 255.362 256.710,260.220 258.119,262.722 255.617 C 266.623 251.715,262.004 245.274,257.146 247.842 M142.800 290.648 C 139.017 291.975,137.956 295.629,140.500 298.569 C 144.197 302.841,150.619 298.243,148.160 293.085 C 147.243 291.161,144.670 289.992,142.800 290.648 M257.800 290.669 C 254.581 291.517,253.540 296.279,256.031 298.769 C 259.830 302.568,265.830 298.389,263.813 293.349 C 262.922 291.122,260.381 289.990,257.800 290.669 " stroke="none" fill="#045c9c" fill-rule="evenodd"></path><path id="path2" d="M249.200 114.125 C 249.200 114.194,249.785 114.779,250.500 115.425 L 251.800 116.600 250.625 115.300 C 249.530 114.088,249.200 113.816,249.200 114.125 M268.500 182.276 C 268.885 182.376,269.515 182.376,269.900 182.276 C 270.285 182.175,269.970 182.093,269.200 182.093 C 268.430 182.093,268.115 182.175,268.500 182.276 M336.800 196.925 C 336.800 196.994,337.385 197.579,338.100 198.225 L 339.400 199.400 338.225 198.100 C 337.130 196.888,336.800 196.616,336.800 196.925 M150.305 221.883 C 150.802 221.979,151.522 221.975,151.905 221.875 C 152.287 221.775,151.880 221.696,151.000 221.701 C 150.120 221.705,149.807 221.787,150.305 221.883 M162.905 222.687 C 163.514 222.779,164.414 222.777,164.905 222.682 C 165.397 222.587,164.900 222.511,163.800 222.514 C 162.700 222.517,162.297 222.595,162.905 222.687 M242.505 222.687 C 243.114 222.779,244.014 222.777,244.505 222.682 C 244.997 222.587,244.500 222.511,243.400 222.514 C 242.300 222.517,241.897 222.595,242.505 222.687 M178.905 223.087 C 179.514 223.179,180.414 223.177,180.905 223.082 C 181.397 222.987,180.900 222.911,179.800 222.914 C 178.700 222.917,178.297 222.995,178.905 223.087 M225.305 223.087 C 225.914 223.179,226.814 223.177,227.305 223.082 C 227.797 222.987,227.300 222.911,226.200 222.914 C 225.100 222.917,224.697 222.995,225.305 223.087 M195.100 223.500 C 199.555 223.564,206.845 223.564,211.300 223.500 C 215.755 223.435,212.110 223.382,203.200 223.382 C 194.290 223.382,190.645 223.435,195.100 223.500 M143.300 247.076 C 143.685 247.176,144.315 247.176,144.700 247.076 C 145.085 246.975,144.770 246.893,144.000 246.893 C 143.230 246.893,142.915 246.975,143.300 247.076 M258.705 247.083 C 259.202 247.179,259.922 247.175,260.305 247.075 C 260.687 246.975,260.280 246.896,259.400 246.901 C 258.520 246.905,258.207 246.987,258.705 247.083 M132.893 252.000 C 132.893 252.770,132.975 253.085,133.076 252.700 C 133.176 252.315,133.176 251.685,133.076 251.300 C 132.975 250.915,132.893 251.230,132.893 252.000 M132.893 295.200 C 132.893 295.970,132.975 296.285,133.076 295.900 C 133.176 295.515,133.176 294.885,133.076 294.500 C 132.975 294.115,132.893 294.430,132.893 295.200 M143.300 300.676 C 143.685 300.776,144.315 300.776,144.700 300.676 C 145.085 300.575,144.770 300.493,144.000 300.493 C 143.230 300.493,142.915 300.575,143.300 300.676 M151.775 302.900 L 150.600 304.200 151.900 303.025 C 153.112 301.930,153.384 301.600,153.075 301.600 C 153.006 301.600,152.421 302.185,151.775 302.900 " stroke="none" fill="#5894c0" fill-rule="evenodd"></path><path id="path3" d="M163.800 110.786 C 162.920 110.951,161.750 111.297,161.200 111.554 L 160.200 112.023 161.200 111.775 C 164.771 110.891,170.265 110.779,204.890 110.885 C 236.067 110.980,242.808 111.096,243.800 111.556 C 244.460 111.862,245.619 112.382,246.376 112.711 C 247.132 113.040,248.662 114.133,249.776 115.140 L 251.800 116.971 250.056 115.126 C 248.474 113.451,247.588 112.888,243.800 111.151 C 242.466 110.539,166.959 110.195,163.800 110.786 M158.546 112.700 C 157.036 113.552,155.667 114.698,154.600 116.003 C 154.160 116.542,154.850 116.041,156.132 114.891 C 157.415 113.741,158.709 112.800,159.009 112.800 C 159.308 112.800,159.664 112.620,159.800 112.400 C 160.138 111.853,159.981 111.891,158.546 112.700 M152.981 118.437 C 152.629 119.118,152.412 119.745,152.499 119.832 C 152.586 119.919,152.956 119.362,153.322 118.595 C 154.144 116.870,153.859 116.738,152.981 118.437 M252.621 119.600 C 252.793 120.150,253.152 121.680,253.419 123.000 C 253.686 124.320,253.926 125.004,253.952 124.520 C 254.023 123.223,253.178 119.463,252.712 119.000 C 252.443 118.732,252.413 118.930,252.621 119.600 M151.815 123.015 C 151.661 124.254,151.624 125.357,151.734 125.467 C 151.844 125.577,152.061 124.654,152.215 123.415 C 152.370 122.177,152.407 121.073,152.297 120.963 C 152.187 120.853,151.970 121.777,151.815 123.015 M254.233 127.600 C 254.652 131.141,256.326 139.303,256.365 138.000 C 256.382 137.450,256.238 136.370,256.044 135.600 C 255.851 134.830,255.470 132.850,255.197 131.200 C 254.565 127.374,253.923 124.976,254.233 127.600 M150.982 128.582 C 150.829 129.602,150.794 130.527,150.904 130.637 C 151.014 130.747,151.229 130.002,151.382 128.982 C 151.535 127.961,151.570 127.037,151.460 126.927 C 151.350 126.817,151.135 127.561,150.982 128.582 M150.182 133.782 C 150.029 134.802,149.994 135.727,150.104 135.837 C 150.214 135.947,150.429 135.202,150.582 134.182 C 150.735 133.161,150.770 132.237,150.660 132.127 C 150.550 132.017,150.335 132.761,150.182 133.782 M149.400 139.200 C 149.245 140.328,149.202 141.336,149.306 141.439 C 149.409 141.542,149.616 140.700,149.767 139.567 C 149.917 138.434,149.959 137.426,149.861 137.328 C 149.763 137.229,149.555 138.072,149.400 139.200 M256.611 140.600 C 256.933 143.149,257.679 147.294,258.050 148.600 C 258.467 150.067,258.255 148.157,257.539 144.000 C 256.953 140.598,256.316 138.263,256.611 140.600 M148.682 143.550 C 148.527 144.292,148.420 145.373,148.444 145.950 C 148.473 146.642,148.610 146.387,148.847 145.200 C 149.045 144.210,149.152 143.130,149.085 142.800 C 149.019 142.470,148.838 142.808,148.682 143.550 M147.838 149.482 C 147.401 152.713,146.748 156.901,146.365 158.920 C 146.164 159.976,146.021 161.326,146.047 161.920 C 146.094 163.007,146.413 161.482,147.199 156.400 C 148.153 150.243,148.443 147.909,148.275 147.742 C 148.177 147.643,147.980 148.426,147.838 149.482 M258.428 151.233 C 258.444 151.985,258.620 152.960,258.820 153.400 C 259.065 153.939,259.105 153.546,258.941 152.200 C 258.651 149.819,258.389 149.324,258.428 151.233 M259.228 155.633 C 259.244 156.385,259.420 157.360,259.620 157.800 C 259.865 158.339,259.905 157.946,259.741 156.600 C 259.451 154.219,259.189 153.724,259.228 155.633 M260.028 160.033 C 260.044 160.785,260.220 161.760,260.420 162.200 C 260.665 162.739,260.705 162.346,260.541 161.000 C 260.251 158.619,259.989 158.124,260.028 160.033 M145.411 165.463 C 145.119 167.735,144.467 171.806,143.959 174.520 C 143.762 175.576,143.622 177.016,143.650 177.720 C 143.688 178.692,143.776 178.518,144.016 177.000 C 144.189 175.900,144.535 173.740,144.783 172.200 C 145.591 167.188,145.999 163.866,145.828 163.694 C 145.735 163.602,145.548 164.398,145.411 165.463 M260.875 164.600 C 260.865 165.260,261.011 166.160,261.200 166.600 L 261.544 167.400 261.525 166.600 C 261.514 166.160,261.368 165.260,261.200 164.600 L 260.895 163.400 260.875 164.600 M261.675 169.000 C 261.665 169.660,261.811 170.560,262.000 171.000 L 262.344 171.800 262.325 171.000 C 262.314 170.560,262.168 169.660,262.000 169.000 L 261.695 167.800 261.675 169.000 M262.468 173.600 C 262.462 174.150,262.611 174.960,262.800 175.400 L 263.144 176.200 263.132 175.400 C 263.126 174.960,262.976 174.150,262.800 173.600 L 262.480 172.600 262.468 173.600 M263.268 178.000 C 263.262 178.550,263.411 179.360,263.600 179.800 L 263.944 180.600 263.932 179.800 C 263.926 179.360,263.776 178.550,263.600 178.000 L 263.280 177.000 263.268 178.000 M142.800 181.486 C 142.800 181.716,141.405 182.095,139.700 182.329 L 136.600 182.753 139.562 182.595 C 142.346 182.446,143.697 181.963,143.073 181.340 C 142.923 181.190,142.800 181.255,142.800 181.486 M264.102 181.600 C 264.278 182.251,266.921 182.747,270.000 182.707 C 271.061 182.693,270.322 182.521,268.200 182.288 C 266.220 182.071,264.451 181.692,264.270 181.446 C 264.054 181.156,263.996 181.209,264.102 181.600 M129.800 183.211 C 128.893 183.379,129.846 183.418,132.000 183.300 C 134.090 183.185,135.875 183.026,135.967 182.946 C 136.255 182.694,131.476 182.899,129.800 183.211 M272.433 182.949 C 272.525 183.030,274.130 183.196,276.000 183.317 C 278.470 183.476,278.908 183.443,277.600 183.198 C 275.768 182.853,272.130 182.678,272.433 182.949 M122.800 184.000 L 121.400 184.295 122.800 184.318 C 123.570 184.330,125.010 184.197,126.000 184.020 L 127.800 183.700 126.000 183.703 C 125.010 183.704,123.570 183.838,122.800 184.000 M282.200 184.018 C 283.300 184.190,284.830 184.325,285.600 184.319 L 287.000 184.308 285.400 183.977 C 284.520 183.795,282.990 183.660,282.000 183.676 L 280.200 183.707 282.200 184.018 M116.400 184.800 L 115.000 185.095 116.400 185.124 C 117.170 185.141,118.520 185.005,119.400 184.823 L 121.000 184.492 119.400 184.499 C 118.520 184.502,117.170 184.638,116.400 184.800 M288.800 184.800 C 289.350 184.976,290.430 185.117,291.200 185.114 L 292.600 185.108 291.000 184.777 C 288.863 184.335,287.396 184.350,288.800 184.800 M111.000 185.600 C 109.337 186.023,110.974 186.042,113.000 185.623 C 114.345 185.345,114.409 185.292,113.400 185.293 C 112.740 185.294,111.660 185.432,111.000 185.600 M295.000 185.623 C 297.137 186.065,298.604 186.050,297.200 185.600 C 296.650 185.424,295.570 185.283,294.800 185.286 L 293.400 185.292 295.000 185.623 M105.800 186.400 L 104.600 186.705 105.800 186.713 C 106.460 186.717,107.450 186.576,108.000 186.400 L 109.000 186.080 108.000 186.087 C 107.450 186.091,106.460 186.232,105.800 186.400 M299.600 186.400 C 300.150 186.576,301.140 186.720,301.800 186.720 C 302.967 186.720,302.972 186.711,302.000 186.400 C 301.450 186.224,300.460 186.080,299.800 186.080 C 298.633 186.080,298.628 186.089,299.600 186.400 M101.200 187.200 L 100.200 187.520 101.200 187.520 C 101.750 187.520,102.650 187.376,103.200 187.200 L 104.200 186.880 103.200 186.880 C 102.650 186.880,101.750 187.024,101.200 187.200 M304.400 187.200 C 304.950 187.376,305.850 187.520,306.400 187.520 L 307.400 187.520 306.400 187.200 C 305.850 187.024,304.950 186.880,304.400 186.880 L 303.400 186.880 304.400 187.200 M97.000 188.000 C 95.911 188.277,95.893 188.307,96.800 188.325 C 97.350 188.335,98.160 188.189,98.600 188.000 C 99.586 187.576,98.666 187.576,97.000 188.000 M309.000 188.000 C 309.440 188.189,310.250 188.338,310.800 188.332 L 311.800 188.320 310.800 188.000 C 310.250 187.824,309.440 187.674,309.000 187.668 L 308.200 187.656 309.000 188.000 M93.200 188.800 L 92.200 189.120 93.200 189.132 C 93.750 189.138,94.560 188.989,95.000 188.800 L 95.800 188.456 95.000 188.468 C 94.560 188.474,93.750 188.624,93.200 188.800 M312.600 188.800 C 313.040 188.989,313.760 189.144,314.200 189.144 L 315.000 189.144 314.200 188.800 C 313.760 188.611,313.040 188.456,312.600 188.456 L 311.800 188.456 312.600 188.800 M90.000 189.600 C 89.176 189.864,89.141 189.926,89.800 189.954 C 90.240 189.973,90.870 189.813,91.200 189.600 C 91.901 189.147,91.414 189.147,90.000 189.600 M316.200 189.600 C 316.640 189.789,317.450 189.938,318.000 189.932 L 319.000 189.920 318.000 189.600 C 317.450 189.424,316.640 189.274,316.200 189.268 L 315.400 189.256 316.200 189.600 M86.800 190.400 C 85.996 190.657,85.957 190.723,86.600 190.732 C 87.040 190.738,87.760 190.589,88.200 190.400 C 89.219 189.962,88.168 189.962,86.800 190.400 M319.390 190.384 C 319.532 190.613,320.117 190.800,320.690 190.800 C 321.944 190.800,321.799 190.608,320.266 190.240 C 319.523 190.062,319.221 190.111,319.390 190.384 M322.400 191.200 C 322.730 191.413,323.360 191.578,323.800 191.566 L 324.600 191.544 323.800 191.200 C 322.604 190.686,321.605 190.686,322.400 191.200 M81.400 192.000 C 80.629 192.331,80.631 192.345,81.476 192.372 C 81.958 192.387,82.464 192.220,82.600 192.000 C 82.892 191.527,82.501 191.527,81.400 192.000 M324.800 191.746 C 324.800 191.835,325.739 192.215,326.887 192.591 C 340.563 197.064,342.979 203.469,332.700 208.000 C 330.462 208.986,330.112 209.498,332.300 208.584 C 340.549 205.140,341.808 200.502,335.651 196.236 C 333.277 194.590,324.800 191.083,324.800 191.746 M76.632 193.793 C 74.890 194.553,73.270 195.370,73.032 195.608 C 72.794 195.846,73.950 195.433,75.600 194.690 C 77.250 193.948,79.050 193.141,79.600 192.897 C 80.150 192.654,80.420 192.444,80.200 192.432 C 79.980 192.420,78.374 193.032,76.632 193.793 M70.552 197.181 C 68.270 198.859,67.314 201.497,68.379 203.179 C 68.618 203.558,68.669 203.191,68.525 202.121 C 68.325 200.630,69.242 198.036,69.986 197.986 C 70.285 197.966,72.650 196.004,72.379 196.002 C 72.257 196.001,71.435 196.531,70.552 197.181 M69.729 205.070 C 70.775 206.213,74.800 208.724,74.800 208.233 C 74.800 208.114,74.085 207.651,73.211 207.206 C 72.337 206.760,70.942 205.819,70.111 205.116 L 68.600 203.836 69.729 205.070 M75.254 208.587 C 75.590 208.923,78.400 210.016,78.400 209.811 C 78.400 209.701,77.748 209.338,76.951 209.005 C 75.475 208.389,74.918 208.251,75.254 208.587 M328.000 210.054 C 326.974 210.616,326.867 210.752,327.600 210.561 C 328.935 210.213,330.757 209.225,330.000 209.259 C 329.670 209.274,328.770 209.632,328.000 210.054 M82.165 211.237 C 84.125 211.879,85.795 212.338,85.875 212.258 C 86.070 212.063,79.766 209.990,79.114 210.036 C 78.831 210.055,80.204 210.596,82.165 211.237 M324.400 211.218 C 323.962 211.515,324.124 211.552,325.000 211.356 C 326.471 211.027,326.790 210.798,325.767 210.806 C 325.345 210.809,324.730 210.995,324.400 211.218 M321.600 212.000 C 320.805 212.514,321.804 212.514,323.000 212.000 L 323.800 211.656 323.000 211.634 C 322.560 211.622,321.930 211.787,321.600 212.000 M87.400 212.800 C 88.596 213.314,89.595 213.314,88.800 212.800 C 88.470 212.587,87.840 212.422,87.400 212.434 L 86.600 212.456 87.400 212.800 M318.400 212.800 C 317.636 213.294,318.458 213.294,320.000 212.800 L 321.000 212.480 320.000 212.446 C 319.450 212.427,318.730 212.587,318.400 212.800 M90.600 213.600 C 91.796 214.114,92.795 214.114,92.000 213.600 C 91.670 213.387,91.040 213.222,90.600 213.234 L 89.800 213.256 90.600 213.600 M315.400 213.600 L 314.600 213.944 315.400 213.944 C 315.840 213.944,316.560 213.789,317.000 213.600 L 317.800 213.256 317.000 213.256 C 316.560 213.256,315.840 213.411,315.400 213.600 M94.000 214.400 C 94.550 214.576,95.360 214.726,95.800 214.732 L 96.600 214.744 95.800 214.400 C 95.360 214.211,94.550 214.062,94.000 214.068 L 93.000 214.080 94.000 214.400 M311.800 214.400 L 311.000 214.744 311.800 214.732 C 312.240 214.726,313.050 214.576,313.600 214.400 L 314.600 214.080 313.600 214.068 C 313.050 214.062,312.240 214.211,311.800 214.400 M97.800 215.200 C 98.240 215.389,98.960 215.544,99.400 215.544 L 100.200 215.544 99.400 215.200 C 98.960 215.011,98.240 214.856,97.800 214.856 L 97.000 214.856 97.800 215.200 M307.600 215.200 L 306.600 215.520 307.600 215.520 C 308.150 215.520,309.050 215.376,309.600 215.200 L 310.600 214.880 309.600 214.880 C 309.050 214.880,308.150 215.024,307.600 215.200 M101.600 216.000 C 102.150 216.176,103.050 216.320,103.600 216.320 L 104.600 216.320 103.600 216.000 C 103.050 215.824,102.150 215.680,101.600 215.680 L 100.600 215.680 101.600 216.000 M303.400 216.000 L 302.600 216.344 303.400 216.332 C 303.840 216.326,304.650 216.176,305.200 216.000 L 306.200 215.680 305.200 215.668 C 304.650 215.662,303.840 215.811,303.400 216.000 M106.600 216.800 C 107.260 216.968,108.340 217.105,109.000 217.105 L 110.200 217.105 109.000 216.800 C 108.340 216.632,107.260 216.495,106.600 216.495 L 105.400 216.495 106.600 216.800 M298.200 216.800 L 297.000 217.105 298.200 217.105 C 298.860 217.105,299.940 216.968,300.600 216.800 L 301.800 216.495 300.600 216.495 C 299.940 216.495,298.860 216.632,298.200 216.800 M111.600 217.600 C 112.150 217.776,113.230 217.917,114.000 217.914 L 115.400 217.908 113.800 217.577 C 111.663 217.135,110.196 217.150,111.600 217.600 M293.000 217.600 L 291.800 217.905 293.000 217.913 C 293.660 217.917,294.650 217.776,295.200 217.600 L 296.200 217.280 295.200 217.287 C 294.650 217.291,293.660 217.432,293.000 217.600 M117.400 218.400 C 118.060 218.568,119.230 218.706,120.000 218.707 L 121.400 218.708 119.800 218.377 C 117.645 217.931,115.634 217.951,117.400 218.400 M287.000 218.400 L 285.800 218.705 287.000 218.705 C 287.660 218.705,288.740 218.568,289.400 218.400 L 290.600 218.095 289.400 218.095 C 288.740 218.095,287.660 218.232,287.000 218.400 M124.200 219.200 C 124.860 219.368,126.120 219.504,127.000 219.503 L 128.600 219.500 126.800 219.180 C 124.357 218.745,122.470 218.760,124.200 219.200 M280.000 219.200 L 278.200 219.480 280.000 219.493 C 280.990 219.500,282.340 219.368,283.000 219.200 L 284.200 218.895 283.000 218.907 C 282.340 218.914,280.990 219.046,280.000 219.200 M131.600 220.020 C 132.590 220.197,134.210 220.329,135.200 220.314 L 137.000 220.287 134.800 219.983 C 131.639 219.546,129.101 219.576,131.600 220.020 M272.000 220.000 L 269.800 220.270 271.800 220.305 C 272.900 220.325,274.610 220.197,275.600 220.020 L 277.400 219.700 275.800 219.715 C 274.920 219.724,273.210 219.852,272.000 220.000 M139.597 220.684 L 141.200 220.846 141.200 231.204 L 141.200 241.563 139.500 242.328 C 137.745 243.118,135.561 244.800,136.290 244.800 C 136.517 244.800,136.943 244.510,137.237 244.155 C 137.531 243.801,138.589 243.123,139.586 242.649 L 141.400 241.788 141.400 231.194 L 141.400 220.600 139.697 220.561 L 137.994 220.522 139.597 220.684 M264.400 220.693 C 262.401 221.060,262.400 221.065,262.400 231.468 L 262.400 241.238 263.458 242.219 C 264.041 242.759,264.716 243.195,264.958 243.189 C 265.201 243.184,264.905 242.872,264.300 242.497 L 263.200 241.815 263.200 231.545 L 263.200 221.276 266.100 220.892 C 268.302 220.600,268.567 220.507,267.200 220.508 C 266.210 220.509,264.950 220.592,264.400 220.693 M147.380 221.708 C 147.273 221.987,147.234 226.622,147.293 232.008 L 147.401 241.800 147.601 231.500 C 147.796 221.424,147.779 220.669,147.380 221.708 M150.600 221.604 C 153.070 221.922,160.264 222.114,159.967 221.854 C 159.875 221.774,157.190 221.615,154.000 221.502 C 150.445 221.375,149.129 221.415,150.600 221.604 M251.400 221.613 L 247.800 221.888 252.300 221.818 L 256.800 221.749 256.800 231.647 L 256.800 241.546 255.900 241.828 C 253.415 242.606,249.163 246.834,249.218 248.472 C 249.227 248.762,249.590 248.328,250.023 247.508 C 250.997 245.664,253.057 243.579,254.621 242.854 C 255.270 242.553,256.070 242.174,256.400 242.010 C 256.910 241.758,257.000 240.186,257.000 231.556 L 257.000 221.400 256.000 221.368 C 255.450 221.351,253.380 221.461,251.400 221.613 M163.200 222.418 C 166.352 222.709,179.454 222.904,179.167 222.655 C 179.075 222.576,174.770 222.427,169.600 222.325 C 164.430 222.224,161.550 222.265,163.200 222.418 M233.800 222.400 L 226.600 222.628 233.800 222.662 C 237.760 222.680,242.350 222.568,244.000 222.412 L 247.000 222.129 244.000 222.151 C 242.350 222.162,237.760 222.275,233.800 222.400 M192.072 223.100 C 197.941 223.162,207.661 223.162,213.672 223.100 C 219.682 223.038,214.880 222.987,203.000 222.986 C 191.120 222.986,186.202 223.037,192.072 223.100 M148.600 242.663 C 150.301 243.557,152.342 245.562,153.217 247.200 C 153.628 247.970,153.973 248.359,153.982 248.065 C 154.033 246.519,149.335 241.947,147.765 242.016 C 147.564 242.025,147.940 242.316,148.600 242.663 M267.036 244.862 C 267.896 245.886,268.681 246.645,268.780 246.548 C 268.880 246.452,268.176 245.614,267.216 244.686 L 265.472 243.000 267.036 244.862 M134.998 246.002 C 134.598 246.444,134.366 246.899,134.482 247.015 C 134.597 247.130,134.990 246.769,135.355 246.212 C 136.152 244.996,135.993 244.902,134.998 246.002 M146.493 247.624 C 149.758 249.348,150.168 253.951,147.265 256.300 C 146.517 256.905,141.862 256.969,140.778 256.388 C 138.669 255.260,138.185 251.436,139.836 248.956 L 140.872 247.400 139.806 248.439 C 135.367 252.766,141.582 259.807,147.191 256.805 C 150.913 254.813,149.569 246.685,145.538 246.818 C 145.242 246.827,145.672 247.190,146.493 247.624 M255.938 247.702 C 254.922 248.560,253.998 249.979,254.001 250.674 C 254.002 250.853,254.361 250.413,254.798 249.696 C 255.235 248.979,256.179 248.035,256.896 247.598 C 257.613 247.161,257.930 246.803,257.600 246.803 C 257.270 246.804,256.522 247.208,255.938 247.702 M261.904 247.598 C 262.621 248.035,263.565 248.979,264.002 249.696 C 264.923 251.206,265.074 250.890,264.220 249.240 C 263.615 248.069,261.997 246.799,261.114 246.801 C 260.831 246.802,261.187 247.161,261.904 247.598 M154.200 252.200 C 154.200 254.028,154.332 255.316,154.494 255.062 C 154.656 254.808,154.788 253.520,154.788 252.200 C 154.788 250.880,154.656 249.592,154.494 249.338 C 154.332 249.084,154.200 250.372,154.200 252.200 M248.643 249.833 C 248.305 250.712,248.350 254.102,248.706 254.662 C 248.868 254.916,249.000 253.791,249.000 252.162 C 249.000 248.931,248.997 248.910,248.643 249.833 M269.800 252.200 C 269.800 253.808,269.932 254.916,270.094 254.662 C 270.256 254.408,270.388 253.300,270.388 252.200 C 270.388 251.100,270.256 249.992,270.094 249.738 C 269.932 249.484,269.800 250.592,269.800 252.200 M133.331 252.200 C 133.333 253.740,133.405 254.321,133.492 253.491 C 133.579 252.661,133.577 251.401,133.489 250.691 C 133.400 249.981,133.329 250.660,133.331 252.200 M254.012 253.811 C 253.997 254.333,255.172 256.049,255.982 256.687 C 256.334 256.965,257.804 257.175,259.400 257.175 C 260.990 257.175,262.472 256.964,262.830 256.687 C 263.745 255.980,264.951 254.018,264.654 253.721 C 264.514 253.581,264.400 253.663,264.400 253.903 C 264.400 257.742,256.556 257.977,254.467 254.200 C 254.223 253.760,254.019 253.585,254.012 253.811 M133.616 255.631 C 133.572 257.382,138.492 262.451,140.169 262.382 C 140.406 262.373,139.970 262.028,139.200 261.617 C 137.376 260.642,135.418 258.582,134.425 256.591 C 133.989 255.716,133.625 255.284,133.616 255.631 M153.427 256.726 C 153.009 258.027,151.013 260.206,149.272 261.264 C 147.134 262.562,147.213 262.082,147.206 273.871 C 147.199 285.825,147.029 285.006,149.872 286.723 C 152.944 288.577,154.589 292.091,154.326 296.231 C 154.236 297.635,154.304 298.562,154.475 298.292 C 156.301 295.418,153.536 288.460,149.608 286.043 L 147.600 284.807 147.600 273.809 L 147.600 262.810 149.100 261.852 C 151.801 260.128,154.238 257.302,153.894 256.294 C 153.801 256.022,153.591 256.217,153.427 256.726 M250.000 257.882 C 250.000 258.784,254.536 262.424,255.589 262.367 C 255.925 262.349,255.603 262.074,254.873 261.755 C 254.144 261.437,252.749 260.355,251.773 259.351 C 250.798 258.348,250.000 257.687,250.000 257.882 M267.357 259.129 C 266.678 259.938,265.600 260.862,264.961 261.183 C 262.260 262.539,262.400 261.858,262.400 273.586 C 262.400 285.237,262.321 284.835,264.895 286.368 C 265.718 286.859,266.933 287.917,267.595 288.721 C 268.258 289.525,268.800 289.986,268.800 289.746 C 268.800 289.125,265.110 285.752,264.070 285.422 C 263.204 285.147,263.200 285.096,263.200 273.864 L 263.200 262.582 264.559 261.850 C 265.990 261.080,269.074 258.140,268.770 257.837 C 268.672 257.739,268.036 258.321,267.357 259.129 M141.000 273.800 C 141.000 280.070,141.135 285.200,141.300 285.200 C 141.465 285.200,141.600 280.070,141.600 273.800 C 141.600 267.530,141.465 262.400,141.300 262.400 C 141.135 262.400,141.000 267.530,141.000 273.800 M256.712 273.565 L 256.824 284.730 255.334 285.222 C 253.848 285.712,250.000 288.950,250.000 289.710 C 250.000 289.931,250.766 289.289,251.702 288.283 C 252.638 287.278,254.258 286.089,255.302 285.642 L 257.200 284.828 257.200 273.614 C 257.200 267.446,257.065 262.400,256.900 262.400 C 256.735 262.400,256.650 267.424,256.712 273.565 M136.908 287.100 C 135.388 288.424,133.596 291.065,133.611 291.956 C 133.617 292.310,134.022 291.824,134.511 290.875 C 135.000 289.926,136.107 288.441,136.970 287.575 C 138.784 285.756,138.750 285.495,136.908 287.100 M141.400 290.344 C 137.914 292.498,137.325 297.248,140.248 299.629 C 140.664 299.968,140.512 299.553,139.875 298.607 C 135.830 292.611,143.897 286.634,148.402 292.289 C 149.170 293.252,149.210 293.267,148.703 292.400 C 147.210 289.847,143.772 288.879,141.400 290.344 M256.644 290.546 C 255.788 291.064,254.850 291.918,254.558 292.444 C 253.718 293.960,253.918 294.339,254.798 292.896 C 257.632 288.247,264.600 289.982,264.853 295.400 C 264.901 296.432,264.934 296.466,265.090 295.643 C 265.842 291.662,260.314 288.325,256.644 290.546 M248.643 293.033 C 246.144 299.545,254.520 307.839,261.745 306.007 C 264.520 305.303,269.474 301.741,268.722 300.989 C 268.605 300.871,268.217 301.220,267.860 301.764 C 262.418 310.070,248.051 304.637,248.884 294.587 C 249.076 292.274,249.035 292.010,248.643 293.033 M269.800 295.423 C 269.800 297.044,269.922 298.062,270.072 297.685 C 270.442 296.753,270.457 293.508,270.094 292.938 C 269.932 292.684,269.800 293.802,269.800 295.423 M133.331 295.400 C 133.333 296.940,133.405 297.521,133.492 296.691 C 133.579 295.861,133.577 294.601,133.489 293.891 C 133.400 293.181,133.329 293.860,133.331 295.400 M149.270 295.068 C 149.181 297.194,148.151 298.991,146.516 299.872 C 145.809 300.253,145.298 300.631,145.379 300.712 C 146.523 301.856,149.710 297.521,149.494 295.114 L 149.340 293.400 149.270 295.068 M254.000 297.188 C 254.000 297.973,257.016 300.800,257.853 300.799 C 258.337 300.799,258.110 300.553,257.208 300.099 C 256.442 299.715,255.407 298.788,254.908 298.041 C 254.409 297.293,254.000 296.909,254.000 297.188 M263.798 298.146 C 263.357 298.836,262.367 299.715,261.598 300.099 C 260.829 300.484,260.501 300.799,260.869 300.799 C 261.662 300.800,263.840 299.046,264.441 297.923 C 265.134 296.628,264.664 296.791,263.798 298.146 M153.422 299.944 C 152.323 303.360,146.736 306.416,142.617 305.855 C 141.495 305.703,141.245 305.744,141.800 305.990 C 145.407 307.586,154.914 302.480,153.894 299.494 C 153.801 299.222,153.589 299.425,153.422 299.944 M134.400 300.655 C 134.400 301.720,139.124 305.605,140.400 305.590 C 140.730 305.586,140.273 305.252,139.385 304.849 C 138.496 304.445,137.011 303.254,136.085 302.201 C 135.158 301.149,134.400 300.453,134.400 300.655 " stroke="none" fill="#7baccc" fill-rule="evenodd"></path><path id="path4" d="M163.915 110.328 C 163.538 110.478,181.036 110.600,202.800 110.600 C 224.564 110.600,242.062 110.478,241.685 110.328 C 241.308 110.179,223.810 110.056,202.800 110.056 C 181.790 110.056,164.292 110.179,163.915 110.328 M155.210 114.758 C 153.885 116.055,152.801 117.360,152.803 117.658 C 152.804 117.956,153.157 117.660,153.586 117.000 C 154.015 116.340,155.229 115.039,156.283 114.108 C 157.337 113.178,158.070 112.413,157.910 112.408 C 157.751 112.404,156.536 113.461,155.210 114.758 M247.600 112.504 C 247.600 112.598,248.545 113.463,249.700 114.426 C 250.855 115.390,251.547 115.861,251.238 115.474 C 250.618 114.696,247.600 112.232,247.600 112.504 M253.256 119.600 C 253.256 119.930,253.411 120.560,253.600 121.000 C 253.817 121.504,253.944 121.578,253.944 121.200 C 253.944 120.870,253.789 120.240,253.600 119.800 C 253.383 119.296,253.256 119.222,253.256 119.600 M151.314 123.800 C 151.317 124.900,151.395 125.303,151.487 124.695 C 151.579 124.086,151.577 123.186,151.482 122.695 C 151.387 122.203,151.311 122.700,151.314 123.800 M254.068 124.400 C 254.088 125.439,254.718 127.146,254.732 126.200 C 254.738 125.760,254.589 125.040,254.400 124.600 C 254.189 124.110,254.061 124.032,254.068 124.400 M150.501 129.400 C 150.505 130.280,150.587 130.593,150.683 130.095 C 150.779 129.598,150.775 128.878,150.675 128.495 C 150.575 128.113,150.496 128.520,150.501 129.400 M254.868 128.800 C 254.888 129.839,255.518 131.546,255.532 130.600 C 255.538 130.160,255.389 129.440,255.200 129.000 C 254.989 128.510,254.861 128.432,254.868 128.800 M255.656 133.200 C 255.656 133.530,255.811 134.160,256.000 134.600 C 256.217 135.104,256.344 135.178,256.344 134.800 C 256.344 134.470,256.189 133.840,256.000 133.400 C 255.783 132.896,255.656 132.822,255.656 133.200 M149.701 135.000 C 149.705 135.880,149.787 136.193,149.883 135.695 C 149.979 135.198,149.975 134.478,149.875 134.095 C 149.775 133.713,149.696 134.120,149.701 135.000 M256.434 138.000 C 256.446 138.330,256.611 138.960,256.800 139.400 L 257.144 140.200 257.166 139.400 C 257.178 138.960,257.013 138.330,256.800 138.000 C 256.455 137.467,256.415 137.467,256.434 138.000 M148.901 140.200 C 148.905 141.080,148.987 141.393,149.083 140.895 C 149.179 140.398,149.175 139.678,149.075 139.295 C 148.975 138.913,148.896 139.320,148.901 140.200 M257.234 142.400 C 257.246 142.730,257.411 143.360,257.600 143.800 L 257.944 144.600 257.966 143.800 C 257.978 143.360,257.813 142.730,257.600 142.400 C 257.255 141.867,257.215 141.867,257.234 142.400 M148.101 145.400 C 148.105 146.280,148.187 146.593,148.283 146.095 C 148.379 145.598,148.375 144.878,148.275 144.495 C 148.175 144.113,148.096 144.520,148.101 145.400 M258.244 147.400 C 258.573 148.871,258.802 149.190,258.794 148.167 C 258.791 147.745,258.605 147.130,258.382 146.800 C 258.085 146.362,258.048 146.524,258.244 147.400 M147.022 151.822 C 146.872 152.625,146.828 153.362,146.926 153.460 C 147.024 153.557,147.227 152.981,147.378 152.178 C 147.528 151.375,147.572 150.638,147.474 150.540 C 147.376 150.443,147.173 151.019,147.022 151.822 M258.828 151.476 C 258.918 152.515,259.544 153.396,259.572 152.524 C 259.587 152.042,259.420 151.536,259.200 151.400 C 258.980 151.264,258.813 151.298,258.828 151.476 M146.222 157.022 C 146.072 157.825,146.028 158.562,146.126 158.660 C 146.224 158.757,146.427 158.181,146.578 157.378 C 146.728 156.575,146.772 155.838,146.674 155.740 C 146.576 155.643,146.373 156.219,146.222 157.022 M259.628 155.876 C 259.718 156.915,260.344 157.796,260.372 156.924 C 260.387 156.442,260.220 155.936,260.000 155.800 C 259.780 155.664,259.613 155.698,259.628 155.876 M260.640 161.066 C 261.008 162.599,261.200 162.744,261.200 161.490 C 261.200 160.917,261.013 160.332,260.784 160.190 C 260.511 160.021,260.462 160.323,260.640 161.066 M145.473 162.153 C 145.323 162.545,145.211 163.166,145.225 163.533 C 145.242 163.975,145.381 163.874,145.637 163.234 C 145.849 162.703,145.961 162.082,145.885 161.854 C 145.809 161.627,145.624 161.761,145.473 162.153 M261.444 165.000 C 261.773 166.471,262.002 166.790,261.994 165.767 C 261.991 165.345,261.805 164.730,261.582 164.400 C 261.285 163.962,261.248 164.124,261.444 165.000 M144.673 167.353 C 144.523 167.745,144.411 168.366,144.425 168.733 C 144.442 169.175,144.581 169.074,144.837 168.434 C 145.049 167.903,145.161 167.282,145.085 167.054 C 145.009 166.827,144.824 166.961,144.673 167.353 M262.258 169.600 C 262.575 171.325,262.802 171.651,262.794 170.367 C 262.791 169.835,262.611 169.130,262.394 168.800 C 262.118 168.378,262.077 168.615,262.258 169.600 M143.873 172.553 C 143.723 172.945,143.611 173.566,143.625 173.933 C 143.642 174.375,143.781 174.274,144.037 173.634 C 144.249 173.103,144.361 172.482,144.285 172.254 C 144.209 172.027,144.024 172.161,143.873 172.553 M263.058 174.000 C 263.375 175.725,263.602 176.051,263.594 174.767 C 263.591 174.235,263.411 173.530,263.194 173.200 C 262.918 172.778,262.877 173.015,263.058 174.000 M263.858 178.400 C 264.175 180.125,264.402 180.451,264.394 179.167 C 264.391 178.635,264.211 177.930,263.994 177.600 C 263.718 177.178,263.677 177.415,263.858 178.400 M143.067 177.867 C 142.920 178.013,142.815 178.598,142.834 179.167 C 142.868 180.181,142.875 180.179,143.221 179.020 C 143.585 177.803,143.531 177.402,143.067 177.867 M264.766 181.726 C 264.947 181.907,265.793 181.993,266.647 181.919 L 268.200 181.783 266.319 181.590 C 265.284 181.484,264.585 181.545,264.766 181.726 M140.705 181.883 C 141.202 181.979,141.922 181.975,142.305 181.875 C 142.687 181.775,142.280 181.696,141.400 181.701 C 140.520 181.705,140.207 181.787,140.705 181.883 M136.305 182.283 C 136.802 182.379,137.522 182.375,137.905 182.275 C 138.287 182.175,137.880 182.096,137.000 182.101 C 136.120 182.105,135.807 182.187,136.305 182.283 M132.100 182.687 C 132.705 182.778,133.695 182.778,134.300 182.687 C 134.905 182.595,134.410 182.520,133.200 182.520 C 131.990 182.520,131.495 182.595,132.100 182.687 M273.705 182.687 C 274.314 182.779,275.214 182.777,275.705 182.682 C 276.197 182.587,275.700 182.511,274.600 182.514 C 273.500 182.517,273.097 182.595,273.705 182.687 M124.100 183.487 C 124.705 183.578,125.695 183.578,126.300 183.487 C 126.905 183.395,126.410 183.320,125.200 183.320 C 123.990 183.320,123.495 183.395,124.100 183.487 M281.700 183.487 C 282.305 183.578,283.295 183.578,283.900 183.487 C 284.505 183.395,284.010 183.320,282.800 183.320 C 281.590 183.320,281.095 183.395,281.700 183.487 M117.700 184.287 C 118.305 184.378,119.295 184.378,119.900 184.287 C 120.505 184.195,120.010 184.120,118.800 184.120 C 117.590 184.120,117.095 184.195,117.700 184.287 M288.705 184.283 C 289.202 184.379,289.922 184.375,290.305 184.275 C 290.687 184.175,290.280 184.096,289.400 184.101 C 288.520 184.105,288.207 184.187,288.705 184.283 M111.900 185.082 C 112.395 185.178,113.205 185.178,113.700 185.082 C 114.195 184.987,113.790 184.909,112.800 184.909 C 111.810 184.909,111.405 184.987,111.900 185.082 M294.300 185.082 C 294.795 185.178,295.605 185.178,296.100 185.082 C 296.595 184.987,296.190 184.909,295.200 184.909 C 294.210 184.909,293.805 184.987,294.300 185.082 M105.400 186.003 C 104.885 186.226,105.313 186.267,106.600 186.118 C 107.700 185.991,108.675 185.823,108.767 185.744 C 109.114 185.445,106.164 185.672,105.400 186.003 M299.233 185.745 C 299.325 185.825,300.201 185.992,301.179 186.118 C 302.330 186.265,302.754 186.216,302.379 185.979 C 301.845 185.640,298.858 185.419,299.233 185.745 M100.800 186.795 C 100.391 187.055,100.710 187.099,101.800 186.932 C 103.777 186.629,104.114 186.398,102.567 186.406 C 101.925 186.409,101.130 186.584,100.800 186.795 M303.633 186.545 C 303.725 186.625,304.601 186.792,305.579 186.918 C 306.730 187.065,307.154 187.016,306.779 186.779 C 306.245 186.440,303.258 186.219,303.633 186.545 M96.800 187.595 C 96.391 187.855,96.710 187.899,97.800 187.732 C 99.777 187.429,100.114 187.198,98.567 187.206 C 97.925 187.209,97.130 187.384,96.800 187.595 M93.200 188.418 C 92.762 188.715,92.924 188.752,93.800 188.556 C 95.271 188.227,95.590 187.998,94.567 188.006 C 94.145 188.009,93.530 188.195,93.200 188.418 M312.433 188.144 C 312.525 188.223,313.140 188.408,313.800 188.556 C 314.676 188.752,314.838 188.715,314.400 188.418 C 313.860 188.053,312.032 187.798,312.433 188.144 M316.033 188.944 C 316.125 189.023,316.740 189.208,317.400 189.356 C 318.276 189.552,318.438 189.515,318.000 189.218 C 317.460 188.853,315.632 188.598,316.033 188.944 M67.867 199.467 C 67.354 199.979,67.605 203.054,68.222 203.824 C 68.814 204.562,68.822 204.554,68.385 203.657 C 68.133 203.139,67.989 201.924,68.066 200.957 C 68.143 199.991,68.189 199.200,68.170 199.200 C 68.150 199.200,68.013 199.320,67.867 199.467 M337.775 205.250 C 336.952 206.125,336.852 206.347,337.441 205.991 C 338.167 205.551,339.443 204.000,339.078 204.000 C 339.008 204.000,338.421 204.563,337.775 205.250 M335.200 207.200 C 334.650 207.630,334.397 207.986,334.638 207.991 C 334.879 207.996,335.402 207.640,335.800 207.200 C 336.712 206.192,336.488 206.192,335.200 207.200 M319.000 213.200 C 318.229 213.531,318.231 213.545,319.076 213.572 C 319.558 213.587,320.064 213.420,320.200 213.200 C 320.492 212.727,320.101 212.727,319.000 213.200 M316.000 214.000 C 315.176 214.264,315.141 214.326,315.800 214.354 C 316.240 214.373,316.870 214.213,317.200 214.000 C 317.901 213.547,317.414 213.547,316.000 214.000 M94.000 214.782 C 94.330 215.005,94.945 215.191,95.367 215.194 C 96.390 215.202,96.071 214.973,94.600 214.644 C 93.724 214.448,93.562 214.485,94.000 214.782 M312.200 214.800 C 311.093 215.082,311.077 215.109,312.000 215.147 C 312.550 215.169,313.270 215.013,313.600 214.800 C 314.281 214.360,313.929 214.360,312.200 214.800 M308.400 215.600 C 307.016 215.891,307.014 215.895,308.200 215.941 C 308.860 215.967,309.670 215.813,310.000 215.600 C 310.666 215.170,310.445 215.170,308.400 215.600 M101.400 216.381 C 102.168 216.729,104.310 216.956,103.967 216.653 C 103.875 216.572,103.080 216.396,102.200 216.262 C 101.085 216.093,100.842 216.129,101.400 216.381 M304.000 216.400 C 302.616 216.691,302.614 216.695,303.800 216.741 C 304.460 216.767,305.270 216.613,305.600 216.400 C 306.266 215.970,306.045 215.970,304.000 216.400 M107.905 217.483 C 108.402 217.579,109.122 217.575,109.505 217.475 C 109.887 217.375,109.480 217.296,108.600 217.301 C 107.720 217.305,107.407 217.387,107.905 217.483 M297.905 217.483 C 298.402 217.579,299.122 217.575,299.505 217.475 C 299.887 217.375,299.480 217.296,298.600 217.301 C 297.720 217.305,297.407 217.387,297.905 217.483 M112.700 218.282 C 113.195 218.378,114.005 218.378,114.500 218.282 C 114.995 218.187,114.590 218.109,113.600 218.109 C 112.610 218.109,112.205 218.187,112.700 218.282 M292.700 218.282 C 293.195 218.378,294.005 218.378,294.500 218.282 C 294.995 218.187,294.590 218.109,293.600 218.109 C 292.610 218.109,292.205 218.187,292.700 218.282 M119.305 219.087 C 119.914 219.179,120.814 219.177,121.305 219.082 C 121.797 218.987,121.300 218.911,120.200 218.914 C 119.100 218.917,118.697 218.995,119.305 219.087 M286.305 219.083 C 286.802 219.179,287.522 219.175,287.905 219.075 C 288.287 218.975,287.880 218.896,287.000 218.901 C 286.120 218.905,285.807 218.987,286.305 219.083 M125.705 219.887 C 126.314 219.979,127.214 219.977,127.705 219.882 C 128.197 219.787,127.700 219.711,126.600 219.714 C 125.500 219.717,125.097 219.795,125.705 219.887 M279.305 219.887 C 279.914 219.979,280.814 219.977,281.305 219.882 C 281.797 219.787,281.300 219.711,280.200 219.714 C 279.100 219.717,278.697 219.795,279.305 219.887 M133.700 220.687 C 134.305 220.778,135.295 220.778,135.900 220.687 C 136.505 220.595,136.010 220.520,134.800 220.520 C 133.590 220.520,133.095 220.595,133.700 220.687 M271.300 220.687 C 271.905 220.778,272.895 220.778,273.500 220.687 C 274.105 220.595,273.610 220.520,272.400 220.520 C 271.190 220.520,270.695 220.595,271.300 220.687 M263.380 221.708 C 263.273 221.987,263.237 226.622,263.300 232.008 L 263.415 241.800 263.507 231.733 C 263.577 224.125,263.722 221.617,264.100 221.465 C 264.492 221.307,264.489 221.256,264.087 221.232 C 263.806 221.214,263.487 221.428,263.380 221.708 M153.633 222.146 C 153.725 222.227,155.690 222.388,158.000 222.505 C 160.832 222.649,161.549 222.613,160.200 222.394 C 158.160 222.064,153.331 221.881,153.633 222.146 M247.000 222.414 C 245.895 222.573,247.057 222.611,249.600 222.498 C 252.130 222.385,254.275 222.227,254.367 222.147 C 254.641 221.905,249.151 222.104,247.000 222.414 M147.773 231.800 C 147.773 237.080,147.830 239.185,147.899 236.477 C 147.968 233.769,147.968 229.449,147.899 226.877 C 147.829 224.305,147.772 226.520,147.773 231.800 M175.400 223.211 C 177.845 223.519,187.470 223.719,187.167 223.455 C 187.075 223.376,183.850 223.220,180.000 223.110 C 176.042 222.996,174.043 223.040,175.400 223.211 M223.600 223.200 L 219.000 223.440 223.600 223.481 C 226.130 223.503,229.190 223.384,230.400 223.217 L 232.600 222.913 230.400 222.936 C 229.190 222.949,226.130 223.068,223.600 223.200 M151.600 244.200 C 152.346 244.970,153.047 245.600,153.157 245.600 C 153.267 245.600,152.746 244.970,152.000 244.200 C 151.254 243.430,150.553 242.800,150.443 242.800 C 150.333 242.800,150.854 243.430,151.600 244.200 M250.800 244.916 C 249.598 246.372,248.828 247.656,248.830 248.200 C 248.831 248.420,249.116 248.060,249.464 247.400 C 249.811 246.740,250.556 245.707,251.118 245.104 C 251.681 244.501,252.065 243.940,251.971 243.857 C 251.877 243.774,251.350 244.250,250.800 244.916 M268.036 245.300 C 268.751 246.345,269.401 247.200,269.482 247.200 C 269.753 247.200,268.846 245.808,267.788 244.600 C 266.992 243.692,267.052 243.862,268.036 245.300 M147.752 249.367 C 148.941 251.119,149.078 252.702,148.190 254.420 C 147.854 255.069,147.669 255.600,147.779 255.600 C 149.678 255.600,149.368 250.033,147.378 248.382 C 147.007 248.074,147.175 248.517,147.752 249.367 M154.905 252.200 C 154.910 254.197,154.962 254.376,155.212 253.266 C 155.377 252.533,155.375 251.453,155.206 250.866 C 154.979 250.081,154.900 250.432,154.905 252.200 M248.124 252.200 C 248.126 253.520,248.201 254.012,248.290 253.293 C 248.379 252.574,248.377 251.494,248.286 250.893 C 248.195 250.292,248.122 250.880,248.124 252.200 M270.524 252.200 C 270.526 253.520,270.601 254.012,270.690 253.293 C 270.779 252.574,270.777 251.494,270.686 250.893 C 270.595 250.292,270.522 250.880,270.524 252.200 M254.244 251.367 C 254.111 251.899,254.151 252.739,254.334 253.233 C 254.592 253.930,254.667 253.713,254.667 252.266 C 254.667 250.152,254.590 249.989,254.244 251.367 M139.598 254.822 C 139.850 255.383,140.449 256.082,140.928 256.374 C 141.728 256.861,141.718 256.810,140.806 255.753 C 140.259 255.119,139.661 254.420,139.475 254.200 C 139.290 253.980,139.345 254.260,139.598 254.822 M249.560 257.800 C 250.234 259.105,250.788 259.828,250.785 259.400 C 250.783 259.180,250.414 258.550,249.964 258.000 C 249.421 257.336,249.285 257.269,249.560 257.800 M268.614 258.235 C 268.241 258.804,268.005 259.338,268.089 259.422 C 268.173 259.507,268.558 259.041,268.944 258.388 C 269.806 256.928,269.548 256.809,268.614 258.235 M152.226 259.513 C 150.815 261.203,150.788 261.275,151.960 260.200 C 153.071 259.182,154.288 257.570,153.914 257.613 C 153.851 257.620,153.092 258.475,152.226 259.513 M136.086 260.201 C 137.123 261.279,138.033 262.080,138.107 261.981 C 138.181 261.881,137.333 260.999,136.221 260.020 L 134.200 258.240 136.086 260.201 M148.300 262.432 C 147.657 262.807,147.608 263.722,147.693 273.720 L 147.786 284.600 147.900 273.839 C 148.002 264.181,148.084 263.025,148.707 262.552 C 149.530 261.927,149.289 261.856,148.300 262.432 M263.900 262.432 C 263.260 262.805,263.200 263.784,263.200 273.806 L 263.200 284.772 264.100 285.208 C 264.912 285.602,264.932 285.589,264.300 285.078 C 263.665 284.564,263.600 283.519,263.600 273.800 C 263.600 264.067,263.664 263.040,264.300 262.557 C 265.129 261.928,264.893 261.854,263.900 262.432 M135.983 287.500 L 134.200 289.400 136.193 287.600 C 137.288 286.610,138.263 285.755,138.359 285.700 C 138.455 285.645,138.361 285.600,138.150 285.600 C 137.939 285.600,136.964 286.455,135.983 287.500 M150.282 286.202 C 150.754 286.533,151.785 287.556,152.571 288.474 C 153.357 289.393,154.000 290.014,154.000 289.855 C 154.000 289.375,150.323 285.600,149.856 285.600 C 149.617 285.600,149.809 285.871,150.282 286.202 M267.788 288.200 C 269.677 290.717,269.921 290.941,268.962 289.276 C 268.543 288.548,267.770 287.558,267.244 287.076 C 266.681 286.560,266.905 287.022,267.788 288.200 M142.501 290.329 C 142.217 290.509,142.864 290.646,144.000 290.646 C 145.136 290.646,145.783 290.509,145.499 290.329 C 145.225 290.155,144.550 290.012,144.000 290.012 C 143.450 290.012,142.775 290.155,142.501 290.329 M258.138 290.306 C 257.884 290.468,258.452 290.600,259.400 290.600 C 260.348 290.600,260.916 290.468,260.662 290.306 C 260.408 290.144,259.840 290.012,259.400 290.012 C 258.960 290.012,258.392 290.144,258.138 290.306 M148.190 293.180 C 149.300 295.328,148.661 298.012,146.713 299.376 C 146.223 299.719,146.011 300.000,146.241 300.000 C 147.303 300.000,149.200 297.055,149.200 295.406 C 149.200 294.405,148.197 292.000,147.779 292.000 C 147.669 292.000,147.854 292.531,148.190 293.180 M154.915 295.400 C 154.907 297.382,154.964 297.589,155.241 296.587 C 155.426 295.920,155.431 294.840,155.251 294.187 C 154.985 293.221,154.922 293.446,154.915 295.400 M248.124 295.400 C 248.126 296.720,248.201 297.212,248.290 296.493 C 248.379 295.774,248.377 294.694,248.286 294.093 C 248.195 293.492,248.122 294.080,248.124 295.400 M270.524 295.400 C 270.526 296.720,270.601 297.212,270.690 296.493 C 270.779 295.774,270.777 294.694,270.686 294.093 C 270.595 293.492,270.522 294.080,270.524 295.400 M254.244 294.567 C 254.111 295.099,254.151 295.939,254.334 296.433 C 254.592 297.130,254.667 296.913,254.667 295.466 C 254.667 293.352,254.590 293.189,254.244 294.567 M139.514 297.804 C 139.741 298.247,140.348 298.966,140.863 299.402 C 141.767 300.166,141.765 300.152,140.806 298.997 C 139.213 297.079,139.079 296.955,139.514 297.804 M248.400 298.146 C 248.400 298.622,249.548 301.200,249.759 301.200 C 249.869 301.200,249.679 300.525,249.338 299.700 C 248.696 298.151,248.400 297.661,248.400 298.146 M134.160 301.000 C 134.475 301.660,135.416 302.830,136.252 303.600 L 137.772 305.000 136.186 303.174 C 135.314 302.169,134.372 300.999,134.094 300.574 C 133.816 300.148,133.846 300.340,134.160 301.000 M268.674 301.344 C 268.333 301.863,267.760 302.583,267.399 302.944 C 267.038 303.305,266.923 303.600,267.144 303.600 C 267.498 303.600,268.510 302.366,269.358 300.900 C 269.875 300.006,269.310 300.373,268.674 301.344 M251.400 303.200 C 252.259 304.080,253.052 304.800,253.162 304.800 C 253.272 304.800,252.659 304.080,251.800 303.200 C 250.941 302.320,250.148 301.600,250.038 301.600 C 249.928 301.600,250.541 302.320,251.400 303.200 M151.794 303.112 C 151.131 303.710,150.141 304.519,149.594 304.909 L 148.600 305.618 149.800 305.045 C 150.460 304.729,151.529 303.915,152.175 303.236 C 153.622 301.714,153.417 301.647,151.794 303.112 " stroke="none" fill="#367eb4" fill-rule="evenodd"></path></g></svg>