<svg id="svg" version="1.1" xmlns="http://www.w3.org/2000/svg" xmlns:xlink="http://www.w3.org/1999/xlink" width="400" height="400" viewBox="0, 0, 400,400"><g id="svgg"><path id="path0" d="M164.600 111.158 C 158.517 111.807,152.400 117.176,152.400 121.867 C 152.400 122.440,152.037 125.180,151.592 127.955 C 150.147 136.987,150.035 137.716,149.006 144.800 C 148.447 148.650,147.812 152.925,147.595 154.300 C 146.901 158.696,146.450 161.649,145.184 170.102 C 144.945 171.696,144.589 173.990,144.392 175.200 C 144.196 176.410,143.931 178.188,143.805 179.150 C 143.356 182.566,143.447 182.524,134.940 183.197 C 129.966 183.591,110.754 185.977,106.000 186.791 C 100.705 187.698,98.884 188.028,97.100 188.402 C 94.210 189.008,91.967 189.514,90.200 189.960 C 89.320 190.182,88.060 190.476,87.400 190.612 C 86.740 190.749,85.840 191.006,85.400 191.185 C 84.960 191.363,83.790 191.730,82.800 192.000 C 81.810 192.270,80.595 192.651,80.100 192.846 C 79.605 193.041,78.795 193.358,78.300 193.551 C 66.213 198.265,65.220 203.263,75.400 208.143 C 77.380 209.092,79.810 210.099,80.800 210.380 C 81.790 210.661,82.960 211.030,83.400 211.200 C 84.191 211.505,86.193 212.056,89.100 212.767 C 89.925 212.969,91.320 213.321,92.200 213.550 C 93.080 213.779,94.790 214.172,96.000 214.422 C 97.210 214.673,98.920 215.031,99.800 215.219 C 106.220 216.585,119.081 218.333,132.000 219.595 C 136.730 220.058,140.825 220.512,141.100 220.605 C 141.998 220.910,141.804 241.958,140.900 242.255 C 131.609 245.312,131.046 258.017,140.030 261.909 L 141.600 262.589 141.600 273.863 L 141.600 285.138 140.258 285.581 C 130.644 288.754,131.769 303.160,141.818 305.559 C 153.564 308.362,159.339 291.297,148.494 285.831 L 147.188 285.173 147.294 273.721 L 147.400 262.268 148.800 261.498 C 156.101 257.482,156.162 246.668,148.904 242.902 L 147.400 242.122 147.293 231.706 C 147.171 219.707,146.721 220.750,151.821 221.206 C 164.351 222.328,174.513 222.599,203.600 222.587 C 231.417 222.575,240.362 222.359,254.107 221.368 L 257.214 221.144 257.107 231.429 C 257.017 240.098,256.906 241.760,256.400 242.010 C 256.070 242.174,255.276 242.553,254.635 242.854 C 246.708 246.570,247.436 259.030,255.756 262.038 L 257.200 262.561 257.200 273.864 L 257.200 285.168 255.602 285.647 C 246.806 288.282,247.142 302.891,256.053 305.196 C 257.014 305.444,258.125 305.742,258.523 305.858 C 260.405 306.406,264.929 304.685,266.869 302.683 C 271.658 297.741,270.471 289.773,264.387 286.030 L 262.400 284.807 262.400 273.866 C 262.400 262.408,262.524 261.600,264.277 261.600 C 264.505 261.600,265.592 260.713,266.693 259.629 C 271.649 254.751,270.682 247.091,264.600 243.052 L 262.400 241.592 262.400 231.420 C 262.400 225.003,262.549 221.155,262.804 220.998 C 263.026 220.860,264.961 220.582,267.104 220.379 C 279.065 219.247,284.070 218.737,286.400 218.410 C 287.830 218.209,291.700 217.669,295.000 217.210 C 298.300 216.750,301.945 216.200,303.100 215.987 C 309.379 214.830,313.388 214.029,315.400 213.531 C 316.280 213.312,317.675 212.969,318.500 212.767 C 321.321 212.077,323.400 211.509,324.200 211.210 C 324.640 211.045,325.720 210.691,326.600 210.422 C 329.362 209.579,333.217 207.799,335.620 206.258 C 339.593 203.710,340.223 200.594,337.291 197.992 C 335.576 196.470,329.415 193.200,328.263 193.200 C 327.924 193.200,327.536 193.020,327.400 192.800 C 327.264 192.580,326.724 192.400,326.200 192.400 C 325.676 192.400,325.136 192.220,325.000 192.000 C 324.864 191.780,324.234 191.600,323.600 191.600 C 322.966 191.600,322.348 191.440,322.227 191.244 C 322.106 191.049,321.421 190.792,320.704 190.673 C 319.987 190.555,318.680 190.283,317.800 190.069 C 316.920 189.856,315.210 189.464,314.000 189.200 C 312.790 188.936,311.080 188.555,310.200 188.355 C 308.666 188.006,306.705 187.651,301.700 186.817 C 293.276 185.413,286.577 184.536,277.200 183.609 C 272.690 183.163,267.953 182.690,266.674 182.557 C 264.019 182.281,263.832 182.029,263.126 177.800 C 262.318 172.954,261.750 169.756,260.817 164.800 C 260.590 163.590,260.216 161.520,259.987 160.200 C 259.759 158.880,259.404 156.900,259.200 155.800 C 258.996 154.700,258.641 152.720,258.413 151.400 C 258.184 150.080,257.824 148.100,257.614 147.000 C 257.403 145.900,257.054 144.010,256.837 142.800 C 256.621 141.590,256.254 139.565,256.022 138.300 C 255.293 134.327,254.875 131.977,253.803 125.843 C 252.235 116.870,250.567 114.408,244.361 111.903 L 242.200 111.031 204.600 110.966 C 183.920 110.931,165.920 111.017,164.600 111.158 M145.667 246.812 C 149.770 247.951,150.935 252.946,147.880 256.300 C 146.613 257.692,141.343 257.634,139.922 256.213 C 136.426 252.717,138.686 247.026,143.800 246.450 C 144.020 246.425,144.860 246.588,145.667 246.812 M262.903 247.673 C 265.826 249.755,265.798 254.435,262.849 256.680 C 261.558 257.663,256.645 257.335,255.499 256.190 C 250.482 251.173,257.111 243.549,262.903 247.673 M147.811 291.389 C 149.408 292.987,149.600 293.375,149.600 295.009 C 149.600 300.470,143.511 303.163,139.920 299.291 C 134.792 293.761,142.482 286.061,147.811 291.389 M262.304 290.398 C 265.170 292.146,265.934 295.277,264.211 298.217 C 261.933 302.104,256.678 301.967,254.426 297.961 C 251.629 292.985,257.423 287.422,262.304 290.398 " stroke="none" fill="#fbfbfc" fill-rule="evenodd"></path><path id="path1" d="M190.200 47.600 C 190.060 47.827,188.070 48.000,185.600 48.000 C 183.130 48.000,181.140 48.173,181.000 48.400 C 180.864 48.620,179.694 48.800,178.400 48.800 C 177.106 48.800,175.936 48.980,175.800 49.200 C 175.664 49.420,174.584 49.600,173.400 49.600 C 172.216 49.600,171.136 49.780,171.000 50.000 C 170.864 50.220,169.863 50.400,168.776 50.400 C 167.689 50.400,166.800 50.580,166.800 50.800 C 166.800 51.020,166.080 51.200,165.200 51.200 C 164.320 51.200,163.600 51.380,163.600 51.600 C 163.600 51.820,162.981 52.000,162.224 52.000 C 161.467 52.000,160.736 52.180,160.600 52.400 C 160.464 52.620,159.733 52.800,158.976 52.800 C 158.219 52.800,157.600 52.980,157.600 53.200 C 157.600 53.420,157.060 53.600,156.400 53.600 C 155.740 53.600,155.200 53.780,155.200 54.000 C 155.200 54.220,154.660 54.400,154.000 54.400 C 153.340 54.400,152.800 54.580,152.800 54.800 C 152.800 55.020,152.260 55.200,151.600 55.200 C 150.940 55.200,150.400 55.380,150.400 55.600 C 150.400 55.820,149.860 56.000,149.200 56.000 C 148.540 56.000,148.000 56.180,148.000 56.400 C 148.000 56.620,147.460 56.800,146.800 56.800 C 146.140 56.800,145.600 56.980,145.600 57.200 C 145.600 57.420,145.150 57.600,144.600 57.600 C 144.050 57.600,143.600 57.780,143.600 58.000 C 143.600 58.220,143.285 58.401,142.900 58.402 C 142.515 58.404,141.684 58.674,141.054 59.002 C 140.424 59.331,139.740 59.600,139.535 59.600 C 139.329 59.600,138.416 59.960,137.506 60.400 C 136.595 60.840,135.614 61.200,135.325 61.200 C 135.036 61.200,134.800 61.380,134.800 61.600 C 134.800 61.820,134.440 62.000,134.000 62.000 C 133.560 62.000,133.200 62.180,133.200 62.400 C 133.200 62.620,132.840 62.800,132.400 62.800 C 131.960 62.800,131.600 62.980,131.600 63.200 C 131.600 63.420,131.240 63.600,130.800 63.600 C 130.360 63.600,129.999 63.735,129.999 63.900 C 129.998 64.065,129.008 64.650,127.800 65.200 C 126.592 65.750,125.602 66.335,125.601 66.500 C 125.601 66.665,125.280 66.800,124.888 66.800 C 124.497 66.800,123.917 67.160,123.600 67.600 C 123.283 68.040,122.703 68.400,122.312 68.400 C 121.920 68.400,121.600 68.580,121.600 68.800 C 121.600 69.020,121.280 69.200,120.888 69.200 C 120.497 69.200,119.917 69.560,119.600 70.000 C 119.283 70.440,118.743 70.800,118.400 70.800 C 118.057 70.800,117.517 71.160,117.200 71.600 C 116.883 72.040,116.386 72.400,116.095 72.400 C 115.804 72.400,115.180 72.760,114.708 73.200 C 114.236 73.640,113.613 74.000,113.325 74.000 C 113.036 74.000,112.800 74.141,112.800 74.314 C 112.800 74.486,112.215 74.969,111.500 75.386 C 109.909 76.315,107.229 78.353,106.353 79.300 C 105.997 79.685,105.524 80.000,105.301 80.000 C 105.079 80.000,104.200 80.676,103.348 81.502 C 102.497 82.328,101.170 83.450,100.400 83.996 C 98.748 85.166,83.600 100.305,83.600 100.786 C 83.600 100.968,82.790 101.974,81.800 103.022 C 80.810 104.070,80.000 105.103,80.000 105.317 C 80.000 105.531,79.675 105.997,79.277 106.353 C 78.879 106.709,77.670 108.260,76.590 109.800 C 75.511 111.340,74.531 112.690,74.413 112.800 C 74.295 112.910,73.944 113.495,73.632 114.100 C 73.320 114.705,72.915 115.200,72.732 115.200 C 72.550 115.200,72.400 115.520,72.400 115.912 C 72.400 116.303,72.040 116.883,71.600 117.200 C 71.160 117.517,70.800 118.057,70.800 118.400 C 70.800 118.743,70.440 119.283,70.000 119.600 C 69.560 119.917,69.200 120.497,69.200 120.888 C 69.200 121.280,69.020 121.600,68.800 121.600 C 68.580 121.600,68.400 121.920,68.400 122.312 C 68.400 122.703,68.040 123.283,67.600 123.600 C 67.160 123.917,66.800 124.497,66.800 124.888 C 66.800 125.280,66.665 125.601,66.500 125.601 C 66.335 125.602,65.750 126.592,65.200 127.800 C 64.650 129.008,64.065 129.998,63.900 129.999 C 63.735 129.999,63.600 130.360,63.600 130.800 C 63.600 131.240,63.420 131.600,63.200 131.600 C 62.980 131.600,62.800 131.960,62.800 132.400 C 62.800 132.840,62.620 133.200,62.400 133.200 C 62.180 133.200,62.000 133.560,62.000 134.000 C 62.000 134.440,61.820 134.800,61.600 134.800 C 61.380 134.800,61.200 135.124,61.200 135.520 C 61.200 135.916,61.042 136.411,60.849 136.620 C 60.656 136.829,60.184 137.990,59.800 139.200 C 59.416 140.410,58.944 141.571,58.751 141.780 C 58.558 141.989,58.400 142.484,58.400 142.880 C 58.400 143.276,58.220 143.600,58.000 143.600 C 57.780 143.600,57.600 144.050,57.600 144.600 C 57.600 145.150,57.420 145.600,57.200 145.600 C 56.980 145.600,56.800 146.140,56.800 146.800 C 56.800 147.460,56.620 148.000,56.400 148.000 C 56.180 148.000,56.000 148.540,56.000 149.200 C 56.000 149.860,55.820 150.400,55.600 150.400 C 55.380 150.400,55.200 150.940,55.200 151.600 C 55.200 152.260,55.020 152.800,54.800 152.800 C 54.580 152.800,54.400 153.340,54.400 154.000 C 54.400 154.660,54.220 155.200,54.000 155.200 C 53.780 155.200,53.600 155.740,53.600 156.400 C 53.600 157.060,53.420 157.600,53.200 157.600 C 52.980 157.600,52.800 158.219,52.800 158.976 C 52.800 159.733,52.620 160.464,52.400 160.600 C 52.180 160.736,52.000 161.467,52.000 162.224 C 52.000 162.981,51.820 163.600,51.600 163.600 C 51.380 163.600,51.200 164.320,51.200 165.200 C 51.200 166.080,51.020 166.800,50.800 166.800 C 50.580 166.800,50.400 167.689,50.400 168.776 C 50.400 169.863,50.220 170.864,50.000 171.000 C 49.780 171.136,49.600 172.216,49.600 173.400 C 49.600 174.584,49.420 175.664,49.200 175.800 C 48.980 175.936,48.800 177.106,48.800 178.400 C 48.800 179.694,48.620 180.864,48.400 181.000 C 48.173 181.140,48.000 183.130,48.000 185.600 C 48.000 188.070,47.827 190.060,47.600 190.200 C 47.057 190.535,47.057 209.465,47.600 209.800 C 47.827 209.940,48.000 211.930,48.000 214.400 C 48.000 216.870,48.173 218.860,48.400 219.000 C 48.620 219.136,48.800 220.306,48.800 221.600 C 48.800 222.894,48.980 224.064,49.200 224.200 C 49.420 224.336,49.600 225.416,49.600 226.600 C 49.600 227.784,49.780 228.864,50.000 229.000 C 50.220 229.136,50.400 230.137,50.400 231.224 C 50.400 232.311,50.580 233.200,50.800 233.200 C 51.020 233.200,51.200 233.920,51.200 234.800 C 51.200 235.680,51.380 236.400,51.600 236.400 C 51.820 236.400,52.000 237.120,52.000 238.000 C 52.000 238.880,52.180 239.600,52.400 239.600 C 52.620 239.600,52.800 240.230,52.800 241.000 C 52.800 241.770,52.980 242.400,53.200 242.400 C 53.420 242.400,53.600 242.940,53.600 243.600 C 53.600 244.260,53.780 244.800,54.000 244.800 C 54.220 244.800,54.400 245.329,54.400 245.976 C 54.400 246.623,54.580 247.264,54.800 247.400 C 55.020 247.536,55.200 248.076,55.200 248.600 C 55.200 249.124,55.380 249.664,55.600 249.800 C 55.820 249.936,56.000 250.487,56.000 251.024 C 56.000 251.561,56.180 252.000,56.400 252.000 C 56.620 252.000,56.800 252.540,56.800 253.200 C 56.800 253.860,56.980 254.400,57.200 254.400 C 57.420 254.400,57.600 254.850,57.600 255.400 C 57.600 255.950,57.780 256.400,58.000 256.400 C 58.220 256.400,58.400 256.724,58.400 257.120 C 58.400 257.516,58.544 258.011,58.719 258.220 C 58.895 258.429,59.370 259.590,59.775 260.800 C 60.180 262.010,60.667 263.171,60.856 263.380 C 61.045 263.589,61.200 264.084,61.200 264.480 C 61.200 264.876,61.380 265.200,61.600 265.200 C 61.820 265.200,62.000 265.560,62.000 266.000 C 62.000 266.440,62.135 266.801,62.300 266.803 C 62.659 266.807,63.600 268.744,63.600 269.480 C 63.600 269.766,63.780 270.000,64.000 270.000 C 64.220 270.000,64.400 270.360,64.400 270.800 C 64.400 271.240,64.546 271.600,64.725 271.600 C 64.904 271.600,65.298 272.230,65.600 273.000 C 65.902 273.770,66.296 274.400,66.475 274.400 C 66.654 274.400,66.800 274.678,66.800 275.017 C 66.800 275.356,67.160 276.020,67.600 276.492 C 68.040 276.964,68.400 277.587,68.400 277.875 C 68.400 278.164,68.580 278.400,68.800 278.400 C 69.020 278.400,69.200 278.760,69.200 279.200 C 69.200 279.640,69.350 280.000,69.532 280.000 C 69.715 280.000,70.119 280.495,70.430 281.100 C 70.740 281.705,71.311 282.491,71.697 282.847 C 72.084 283.203,72.400 283.748,72.400 284.059 C 72.400 284.369,72.760 284.883,73.200 285.200 C 73.640 285.517,74.000 286.097,74.000 286.488 C 74.000 286.880,74.150 287.200,74.332 287.200 C 74.515 287.200,74.920 287.695,75.232 288.300 C 75.544 288.905,75.890 289.490,76.002 289.600 C 76.113 289.710,76.734 290.520,77.382 291.400 C 78.029 292.280,78.883 293.291,79.279 293.647 C 79.676 294.003,80.000 294.471,80.000 294.688 C 80.000 294.904,80.495 295.606,81.100 296.248 C 81.705 296.889,83.004 298.401,83.987 299.607 C 86.227 302.357,100.693 316.800,101.206 316.800 C 101.415 316.800,102.431 317.610,103.465 318.600 C 104.498 319.590,105.472 320.400,105.629 320.400 C 105.787 320.400,106.493 320.940,107.200 321.600 C 107.907 322.260,108.633 322.800,108.814 322.800 C 108.995 322.800,109.381 323.030,109.671 323.312 C 109.962 323.593,111.055 324.358,112.099 325.012 C 113.144 325.665,113.999 326.335,113.999 326.500 C 114.000 326.665,114.270 326.800,114.600 326.800 C 114.930 326.800,115.200 326.980,115.200 327.200 C 115.200 327.420,115.470 327.600,115.800 327.600 C 116.130 327.600,116.400 327.780,116.400 328.000 C 116.400 328.220,116.670 328.400,117.000 328.400 C 117.330 328.400,117.600 328.580,117.600 328.800 C 117.600 329.020,117.870 329.200,118.200 329.200 C 118.530 329.200,118.800 329.380,118.800 329.600 C 118.800 329.820,119.070 330.000,119.400 330.000 C 119.730 330.000,120.000 330.180,120.000 330.400 C 120.000 330.620,120.278 330.800,120.617 330.800 C 120.956 330.800,121.620 331.160,122.092 331.600 C 122.564 332.040,123.187 332.400,123.475 332.400 C 123.764 332.400,124.000 332.580,124.000 332.800 C 124.000 333.020,124.360 333.200,124.800 333.200 C 125.240 333.200,125.601 333.335,125.603 333.500 C 125.605 333.665,126.010 334.002,126.503 334.250 C 135.175 338.600,137.417 339.671,139.704 340.555 C 141.192 341.130,142.677 341.600,143.004 341.600 C 143.332 341.600,143.600 341.780,143.600 342.000 C 143.600 342.220,143.949 342.400,144.376 342.400 C 144.803 342.400,145.264 342.580,145.400 342.800 C 145.536 343.020,146.087 343.200,146.624 343.200 C 147.161 343.200,147.600 343.380,147.600 343.600 C 147.600 343.820,148.039 344.000,148.576 344.000 C 149.113 344.000,149.664 344.180,149.800 344.400 C 149.936 344.620,150.487 344.800,151.024 344.800 C 151.561 344.800,152.000 344.980,152.000 345.200 C 152.000 345.420,152.529 345.600,153.176 345.600 C 153.823 345.600,154.464 345.780,154.600 346.000 C 154.736 346.220,155.276 346.400,155.800 346.400 C 156.324 346.400,156.864 346.580,157.000 346.800 C 157.136 347.020,157.867 347.200,158.624 347.200 C 159.381 347.200,160.000 347.380,160.000 347.600 C 160.000 347.820,160.619 348.000,161.376 348.000 C 162.133 348.000,162.864 348.180,163.000 348.400 C 163.136 348.620,163.856 348.800,164.600 348.800 C 165.344 348.800,166.064 348.980,166.200 349.200 C 166.336 349.420,167.236 349.600,168.200 349.600 C 169.164 349.600,170.064 349.780,170.200 350.000 C 170.336 350.220,171.326 350.400,172.400 350.400 C 173.474 350.400,174.464 350.580,174.600 350.800 C 174.736 351.020,175.881 351.200,177.144 351.200 C 178.407 351.200,179.611 351.363,179.820 351.563 C 180.712 352.416,210.593 353.179,213.000 352.410 C 213.660 352.200,215.511 351.994,217.114 351.953 C 218.717 351.911,220.123 351.725,220.238 351.539 C 220.353 351.353,221.506 351.200,222.800 351.200 C 224.094 351.200,225.264 351.020,225.400 350.800 C 225.536 350.580,226.526 350.400,227.600 350.400 C 228.674 350.400,229.664 350.220,229.800 350.000 C 229.936 349.780,230.836 349.600,231.800 349.600 C 232.764 349.600,233.664 349.420,233.800 349.200 C 233.936 348.980,234.656 348.800,235.400 348.800 C 236.144 348.800,236.864 348.620,237.000 348.400 C 237.136 348.180,237.766 348.000,238.400 348.000 C 239.034 348.000,239.664 347.820,239.800 347.600 C 239.936 347.380,240.656 347.200,241.400 347.200 C 242.144 347.200,242.864 347.020,243.000 346.800 C 243.136 346.580,243.777 346.400,244.424 346.400 C 245.071 346.400,245.600 346.220,245.600 346.000 C 245.600 345.780,246.140 345.600,246.800 345.600 C 247.460 345.600,248.000 345.420,248.000 345.200 C 248.000 344.980,248.439 344.800,248.976 344.800 C 249.513 344.800,250.042 344.656,250.151 344.479 C 250.260 344.303,251.261 343.910,252.375 343.607 C 253.489 343.304,254.400 342.908,254.400 342.728 C 254.400 342.547,254.850 342.400,255.400 342.400 C 255.950 342.400,256.400 342.220,256.400 342.000 C 256.400 341.780,256.782 341.600,257.250 341.600 C 257.995 341.600,261.684 340.205,263.700 339.162 C 264.085 338.963,264.715 338.636,265.100 338.435 C 265.485 338.235,267.150 337.423,268.800 336.631 C 271.925 335.132,274.058 333.965,274.400 333.568 C 274.510 333.440,275.185 333.081,275.900 332.770 C 276.615 332.459,277.200 332.069,277.200 331.902 C 277.200 331.736,277.455 331.600,277.767 331.600 C 278.078 331.600,278.393 331.465,278.467 331.300 C 278.540 331.135,279.455 330.567,280.500 330.037 C 281.545 329.508,282.400 328.923,282.400 328.737 C 282.400 328.552,282.636 328.400,282.925 328.400 C 283.213 328.400,283.798 328.085,284.225 327.700 C 284.651 327.315,285.495 326.745,286.100 326.432 C 286.705 326.120,287.200 325.715,287.200 325.532 C 287.200 325.350,287.425 325.200,287.700 325.199 C 287.975 325.199,288.830 324.659,289.600 324.000 C 290.370 323.341,291.127 322.801,291.282 322.801 C 291.437 322.800,292.014 322.350,292.564 321.800 C 293.114 321.250,293.708 320.800,293.884 320.800 C 294.060 320.800,294.923 320.124,295.802 319.297 C 296.681 318.470,297.981 317.381,298.690 316.876 C 299.400 316.372,301.439 314.528,303.221 312.780 C 305.003 311.031,306.555 309.600,306.670 309.600 C 306.944 309.600,309.600 306.944,309.600 306.670 C 309.600 306.555,311.031 305.003,312.780 303.221 C 314.528 301.439,316.372 299.400,316.876 298.690 C 317.381 297.981,318.470 296.681,319.297 295.802 C 320.124 294.923,320.800 294.060,320.800 293.884 C 320.800 293.708,321.250 293.114,321.800 292.564 C 322.350 292.014,322.800 291.437,322.801 291.282 C 322.801 291.127,323.341 290.370,324.000 289.600 C 324.659 288.830,325.199 287.975,325.199 287.700 C 325.200 287.425,325.350 287.200,325.532 287.200 C 325.715 287.200,326.120 286.705,326.432 286.100 C 326.745 285.495,327.315 284.651,327.700 284.225 C 328.085 283.798,328.400 283.213,328.400 282.925 C 328.400 282.636,328.552 282.400,328.737 282.400 C 328.923 282.400,329.508 281.545,330.037 280.500 C 330.567 279.455,331.135 278.540,331.300 278.467 C 331.465 278.393,331.600 278.078,331.600 277.767 C 331.600 277.455,331.736 277.200,331.902 277.200 C 332.069 277.200,332.459 276.615,332.770 275.900 C 333.081 275.185,333.440 274.510,333.568 274.400 C 333.965 274.058,335.132 271.925,336.631 268.800 C 337.423 267.150,338.263 265.440,338.498 265.000 C 340.023 262.143,341.600 258.204,341.600 257.250 C 341.600 256.782,341.780 256.400,342.000 256.400 C 342.220 256.400,342.400 255.950,342.400 255.400 C 342.400 254.850,342.547 254.400,342.728 254.400 C 342.908 254.400,343.304 253.489,343.607 252.375 C 343.910 251.261,344.303 250.260,344.479 250.151 C 344.656 250.042,344.800 249.513,344.800 248.976 C 344.800 248.439,344.980 248.000,345.200 248.000 C 345.420 248.000,345.600 247.460,345.600 246.800 C 345.600 246.140,345.780 245.600,346.000 245.600 C 346.220 245.600,346.400 245.071,346.400 244.424 C 346.400 243.777,346.580 243.136,346.800 243.000 C 347.020 242.864,347.200 242.144,347.200 241.400 C 347.200 240.656,347.380 239.936,347.600 239.800 C 347.820 239.664,348.000 239.034,348.000 238.400 C 348.000 237.766,348.180 237.136,348.400 237.000 C 348.620 236.864,348.800 236.144,348.800 235.400 C 348.800 234.656,348.980 233.936,349.200 233.800 C 349.420 233.664,349.600 232.764,349.600 231.800 C 349.600 230.836,349.780 229.936,350.000 229.800 C 350.220 229.664,350.400 228.674,350.400 227.600 C 350.400 226.526,350.580 225.536,350.800 225.400 C 351.020 225.264,351.200 224.094,351.200 222.800 C 351.200 221.506,351.354 220.352,351.541 220.236 C 351.729 220.120,351.918 218.715,351.961 217.113 C 352.044 214.018,352.125 213.355,352.539 212.400 C 353.223 210.824,352.318 180.609,351.563 179.820 C 351.363 179.611,351.200 178.407,351.200 177.144 C 351.200 175.881,351.020 174.736,350.800 174.600 C 350.580 174.464,350.400 173.474,350.400 172.400 C 350.400 171.326,350.220 170.336,350.000 170.200 C 349.780 170.064,349.600 169.164,349.600 168.200 C 349.600 167.236,349.420 166.336,349.200 166.200 C 348.980 166.064,348.800 165.344,348.800 164.600 C 348.800 163.856,348.620 163.136,348.400 163.000 C 348.180 162.864,348.000 162.133,348.000 161.376 C 348.000 160.619,347.820 160.000,347.600 160.000 C 347.380 160.000,347.200 159.381,347.200 158.624 C 347.200 157.867,347.020 157.136,346.800 157.000 C 346.580 156.864,346.400 156.324,346.400 155.800 C 346.400 155.276,346.220 154.736,346.000 154.600 C 345.780 154.464,345.600 153.823,345.600 153.176 C 345.600 152.529,345.420 152.000,345.200 152.000 C 344.980 152.000,344.800 151.561,344.800 151.024 C 344.800 150.487,344.620 149.936,344.400 149.800 C 344.180 149.664,344.000 149.201,344.000 148.771 C 344.000 148.341,343.820 147.632,343.600 147.195 C 343.380 146.758,343.020 146.042,342.800 145.605 C 342.580 145.168,342.400 144.538,342.400 144.205 C 342.400 143.872,342.220 143.600,342.000 143.600 C 341.780 143.600,341.600 143.316,341.600 142.968 C 341.600 141.920,339.668 137.284,337.113 132.200 C 335.786 129.560,334.497 126.996,334.250 126.503 C 334.002 126.010,333.665 125.605,333.500 125.603 C 333.335 125.601,333.200 125.240,333.200 124.800 C 333.200 124.360,333.020 124.000,332.800 124.000 C 332.580 124.000,332.400 123.764,332.400 123.475 C 332.400 123.187,332.040 122.564,331.600 122.092 C 331.160 121.620,330.800 120.956,330.800 120.617 C 330.800 120.278,330.620 120.000,330.400 120.000 C 330.180 120.000,330.000 119.764,330.000 119.475 C 330.000 119.187,329.685 118.602,329.300 118.175 C 328.915 117.749,328.345 116.905,328.032 116.300 C 327.720 115.695,327.315 115.200,327.132 115.200 C 326.950 115.200,326.800 114.930,326.800 114.600 C 326.800 114.270,326.620 114.000,326.400 114.000 C 326.180 114.000,326.000 113.730,326.000 113.400 C 326.000 113.070,325.848 112.800,325.663 112.800 C 325.478 112.800,324.987 112.170,324.572 111.400 C 324.157 110.630,323.691 110.000,323.536 110.000 C 323.381 110.000,323.143 109.649,323.006 109.220 C 322.870 108.792,322.228 107.873,321.580 107.178 C 320.931 106.484,320.400 105.787,320.400 105.629 C 320.400 105.472,319.590 104.498,318.600 103.465 C 317.610 102.431,316.800 101.415,316.800 101.206 C 316.800 100.693,302.357 86.227,299.607 83.987 C 298.401 83.004,296.889 81.705,296.248 81.100 C 295.606 80.495,294.904 80.000,294.688 80.000 C 294.471 80.000,294.003 79.676,293.647 79.279 C 293.291 78.883,292.280 78.029,291.400 77.382 C 290.520 76.734,289.710 76.113,289.600 76.002 C 289.490 75.890,288.905 75.544,288.300 75.232 C 287.695 74.920,287.200 74.515,287.200 74.332 C 287.200 74.150,286.880 74.000,286.488 74.000 C 286.097 74.000,285.517 73.640,285.200 73.200 C 284.883 72.760,284.369 72.400,284.059 72.400 C 283.748 72.400,283.203 72.084,282.847 71.697 C 282.491 71.311,281.705 70.740,281.100 70.430 C 280.495 70.119,280.000 69.715,280.000 69.532 C 280.000 69.350,279.640 69.200,279.200 69.200 C 278.760 69.200,278.400 69.020,278.400 68.800 C 278.400 68.580,278.164 68.400,277.875 68.400 C 277.587 68.400,276.964 68.040,276.492 67.600 C 276.020 67.160,275.356 66.800,275.017 66.800 C 274.678 66.800,274.400 66.654,274.400 66.475 C 274.400 66.296,273.770 65.902,273.000 65.600 C 272.230 65.298,271.600 64.904,271.600 64.725 C 271.600 64.546,271.240 64.400,270.800 64.400 C 270.360 64.400,270.000 64.220,270.000 64.000 C 270.000 63.780,269.766 63.600,269.480 63.600 C 268.744 63.600,266.807 62.659,266.803 62.300 C 266.801 62.135,266.440 62.000,266.000 62.000 C 265.560 62.000,265.200 61.820,265.200 61.600 C 265.200 61.380,264.964 61.200,264.675 61.200 C 264.386 61.200,263.441 60.861,262.575 60.446 C 261.709 60.031,260.010 59.356,258.800 58.946 C 257.590 58.536,256.540 58.065,256.467 57.900 C 256.393 57.735,255.898 57.600,255.367 57.600 C 254.835 57.600,254.400 57.420,254.400 57.200 C 254.400 56.980,253.860 56.800,253.200 56.800 C 252.540 56.800,252.000 56.620,252.000 56.400 C 252.000 56.180,251.561 56.000,251.024 56.000 C 250.487 56.000,249.936 55.820,249.800 55.600 C 249.664 55.380,249.124 55.200,248.600 55.200 C 248.076 55.200,247.536 55.020,247.400 54.800 C 247.264 54.580,246.623 54.400,245.976 54.400 C 245.329 54.400,244.800 54.220,244.800 54.000 C 244.800 53.780,244.260 53.600,243.600 53.600 C 242.940 53.600,242.400 53.420,242.400 53.200 C 242.400 52.980,241.770 52.800,241.000 52.800 C 240.230 52.800,239.600 52.620,239.600 52.400 C 239.600 52.180,238.880 52.000,238.000 52.000 C 237.120 52.000,236.400 51.820,236.400 51.600 C 236.400 51.380,235.680 51.200,234.800 51.200 C 233.920 51.200,233.200 51.020,233.200 50.800 C 233.200 50.580,232.311 50.400,231.224 50.400 C 230.137 50.400,229.136 50.220,229.000 50.000 C 228.864 49.780,227.784 49.600,226.600 49.600 C 225.416 49.600,224.336 49.420,224.200 49.200 C 224.064 48.980,222.894 48.800,221.600 48.800 C 220.306 48.800,219.136 48.620,219.000 48.400 C 218.860 48.173,216.870 48.000,214.400 48.000 C 211.930 48.000,209.940 47.827,209.800 47.600 C 209.646 47.351,205.937 47.200,200.000 47.200 C 194.063 47.200,190.354 47.351,190.200 47.600 M242.294 110.460 C 249.010 112.080,253.180 116.238,254.053 122.184 C 254.248 123.513,254.571 125.500,254.770 126.600 C 254.969 127.700,255.344 129.770,255.603 131.200 C 255.862 132.630,256.237 134.745,256.437 135.900 C 256.793 137.960,257.180 140.110,258.022 144.700 C 258.253 145.965,258.540 147.900,258.658 149.000 C 258.777 150.100,259.037 151.171,259.237 151.380 C 259.437 151.589,259.600 152.613,259.600 153.656 C 259.600 154.699,259.780 155.664,260.000 155.800 C 260.220 155.936,260.400 156.901,260.400 157.944 C 260.400 158.987,260.563 160.011,260.761 160.220 C 260.960 160.429,261.221 161.410,261.342 162.400 C 261.463 163.390,261.751 165.235,261.981 166.500 C 262.212 167.765,262.580 169.790,262.800 171.000 C 263.020 172.210,263.376 174.145,263.590 175.300 C 263.805 176.455,264.120 178.300,264.290 179.400 L 264.600 181.400 271.200 182.080 C 274.830 182.453,279.780 182.948,282.200 183.178 C 284.620 183.409,287.770 183.766,289.200 183.972 C 294.089 184.677,300.697 185.713,304.400 186.354 C 305.610 186.563,307.410 186.853,308.400 186.998 C 309.390 187.143,310.560 187.415,311.000 187.603 C 311.440 187.792,312.340 188.040,313.000 188.155 C 313.660 188.270,315.100 188.562,316.200 188.804 C 317.300 189.046,318.787 189.344,319.504 189.466 C 320.221 189.588,320.906 189.849,321.027 190.044 C 321.148 190.240,321.689 190.400,322.229 190.400 C 322.769 190.400,323.523 190.558,323.905 190.751 C 324.287 190.944,325.320 191.316,326.200 191.577 C 327.831 192.062,329.251 192.614,330.495 193.247 C 330.877 193.441,331.462 193.600,331.795 193.600 C 332.128 193.600,332.400 193.780,332.400 194.000 C 332.400 194.220,332.680 194.400,333.022 194.400 C 334.052 194.400,338.396 197.574,339.224 198.932 C 340.551 201.108,339.825 204.422,337.740 205.709 C 337.465 205.879,336.983 206.274,336.669 206.588 C 335.851 207.406,333.279 208.800,332.588 208.800 C 332.265 208.800,332.000 208.980,332.000 209.200 C 332.000 209.420,331.550 209.600,331.000 209.600 C 330.450 209.600,330.000 209.780,330.000 210.000 C 330.000 210.220,329.651 210.400,329.224 210.400 C 328.797 210.400,328.336 210.580,328.200 210.800 C 328.064 211.020,327.601 211.200,327.171 211.200 C 326.741 211.200,326.077 211.358,325.695 211.551 C 324.539 212.135,322.196 212.800,321.295 212.800 C 320.829 212.800,320.348 212.960,320.227 213.156 C 320.106 213.351,319.421 213.612,318.704 213.734 C 317.987 213.856,316.545 214.146,315.500 214.378 C 309.294 215.757,307.784 216.058,303.200 216.831 C 294.220 218.344,276.372 220.557,269.600 220.995 C 267.510 221.131,265.305 221.337,264.700 221.453 L 263.600 221.664 263.600 231.832 C 263.600 241.733,263.621 242.000,264.400 242.000 C 264.840 242.000,265.200 242.180,265.200 242.400 C 265.200 242.620,265.398 242.800,265.640 242.800 C 266.379 242.800,268.630 245.299,269.595 247.190 C 272.225 252.346,270.083 259.143,264.852 262.233 L 263.600 262.972 263.607 273.786 L 263.614 284.600 265.576 285.882 C 276.651 293.123,268.332 309.862,255.561 306.036 C 245.867 303.131,245.976 287.002,255.707 284.649 L 256.813 284.381 256.707 273.691 L 256.600 263.000 255.605 262.860 C 253.300 262.535,249.967 259.228,248.799 256.106 C 246.724 250.561,249.256 244.561,254.772 241.952 L 256.786 241.000 256.793 231.449 L 256.800 221.898 255.100 222.175 C 245.388 223.758,173.366 223.743,151.700 222.153 L 148.000 221.882 148.000 231.751 L 148.000 241.620 148.956 241.983 C 157.125 245.089,157.218 258.179,149.100 262.368 L 148.000 262.935 148.000 273.841 C 148.000 284.641,148.008 284.749,148.858 285.018 C 154.176 286.706,156.863 295.276,153.882 301.041 C 150.884 306.838,141.642 308.373,136.567 303.918 C 130.353 298.461,132.210 287.305,139.748 284.817 L 141.200 284.338 141.200 273.756 C 141.200 264.033,141.143 263.156,140.500 262.945 C 130.572 259.679,130.030 245.851,139.666 241.676 L 141.200 241.011 141.200 231.157 L 141.200 221.303 137.500 221.025 C 130.334 220.486,115.202 218.677,108.800 217.594 C 107.370 217.352,105.120 216.991,103.800 216.793 C 102.480 216.594,100.500 216.251,99.400 216.031 C 98.300 215.810,96.770 215.521,96.000 215.388 C 95.230 215.255,94.240 214.990,93.800 214.800 C 93.360 214.610,92.370 214.344,91.600 214.208 C 90.830 214.073,89.613 213.861,88.896 213.737 C 88.179 213.613,87.494 213.351,87.373 213.156 C 87.252 212.960,86.771 212.800,86.305 212.800 C 85.404 212.800,83.061 212.135,81.905 211.551 C 81.523 211.358,80.859 211.200,80.429 211.200 C 79.999 211.200,79.536 211.020,79.400 210.800 C 79.264 210.580,78.713 210.400,78.176 210.400 C 77.639 210.400,77.200 210.220,77.200 210.000 C 77.200 209.780,76.955 209.600,76.656 209.600 C 73.477 209.600,67.600 204.348,67.600 201.508 C 67.600 198.701,73.285 193.600,76.412 193.600 C 76.845 193.600,77.200 193.420,77.200 193.200 C 77.200 192.980,77.549 192.800,77.976 192.800 C 78.403 192.800,78.864 192.620,79.000 192.400 C 79.136 192.180,79.676 192.000,80.200 192.000 C 80.724 192.000,81.264 191.820,81.400 191.600 C 81.536 191.380,82.076 191.200,82.600 191.200 C 83.124 191.200,83.664 191.020,83.800 190.800 C 83.936 190.580,84.566 190.400,85.200 190.400 C 85.834 190.400,86.464 190.220,86.600 190.000 C 86.736 189.780,87.456 189.600,88.200 189.600 C 88.944 189.600,89.664 189.420,89.800 189.200 C 89.936 188.980,90.631 188.800,91.344 188.800 C 92.057 188.800,92.811 188.638,93.020 188.441 C 93.229 188.244,94.120 187.983,95.000 187.861 C 95.880 187.740,97.590 187.444,98.800 187.205 C 102.265 186.518,105.119 186.040,113.200 184.795 C 119.083 183.889,139.744 181.605,142.100 181.601 C 142.658 181.600,142.800 181.251,142.800 179.880 C 142.800 178.934,142.965 177.989,143.166 177.780 C 143.368 177.571,143.629 176.320,143.748 175.000 C 143.948 172.767,144.239 170.672,145.194 164.600 C 145.402 163.280,145.752 160.850,145.973 159.200 C 146.194 157.550,146.568 155.030,146.804 153.600 C 147.041 152.170,147.497 149.110,147.817 146.800 C 148.137 144.490,148.651 141.070,148.959 139.200 C 149.267 137.330,149.725 134.270,149.977 132.400 C 150.229 130.530,150.607 128.232,150.818 127.294 C 151.028 126.356,151.200 124.808,151.200 123.854 C 151.200 117.706,156.018 112.255,163.000 110.503 C 165.396 109.901,239.813 109.861,242.294 110.460 M142.000 247.720 C 137.418 249.854,138.675 256.800,143.643 256.800 C 145.906 256.800,147.360 256.025,148.220 254.360 C 150.273 250.392,146.017 245.849,142.000 247.720 M257.600 247.715 C 254.324 249.227,253.577 253.115,256.081 255.620 C 258.580 258.119,263.438 256.708,264.123 253.284 C 264.907 249.364,261.090 246.106,257.600 247.715 M142.800 290.648 C 139.228 291.901,138.035 295.397,140.208 298.246 C 143.760 302.903,150.695 298.402,148.160 293.085 C 147.243 291.161,144.670 289.992,142.800 290.648 M257.330 290.965 C 253.654 292.619,253.695 297.806,257.399 299.599 C 259.470 300.602,261.204 300.334,262.769 298.769 C 266.546 294.992,262.209 288.769,257.330 290.965 " stroke="none" fill="#2394f4" fill-rule="evenodd"></path><path id="path2" d="M164.400 110.760 C 163.410 110.892,180.420 111.000,202.200 111.000 C 239.160 111.000,241.930 111.047,243.748 111.711 C 249.584 113.843,252.204 116.922,253.371 123.019 C 253.897 125.769,253.954 125.896,253.793 123.955 C 253.195 116.767,248.448 111.840,241.097 110.777 C 238.379 110.384,167.339 110.368,164.400 110.760 M160.020 111.929 C 159.040 112.298,157.319 113.500,156.195 114.600 C 155.071 115.700,154.789 116.060,155.567 115.400 C 156.346 114.740,157.084 114.071,157.207 113.914 C 157.330 113.757,158.593 113.090,160.015 112.432 C 162.837 111.127,162.839 110.867,160.020 111.929 M151.813 123.413 C 151.657 124.871,151.620 126.153,151.730 126.263 C 151.840 126.373,152.057 125.271,152.213 123.813 C 152.369 122.356,152.407 121.074,152.297 120.964 C 152.187 120.854,151.969 121.956,151.813 123.413 M254.229 128.000 C 254.343 128.990,254.595 130.610,254.788 131.600 C 254.981 132.590,255.345 134.570,255.597 136.000 C 255.849 137.430,256.222 139.355,256.427 140.277 C 256.632 141.200,256.803 142.460,256.806 143.077 C 256.809 143.695,256.996 144.470,257.221 144.800 C 257.646 145.424,257.533 144.215,256.811 140.400 C 256.147 136.893,255.651 134.166,255.174 131.400 C 254.521 127.615,253.943 125.538,254.229 128.000 M150.982 128.982 C 150.829 130.002,150.794 130.927,150.904 131.037 C 151.014 131.147,151.229 130.402,151.382 129.382 C 151.535 128.361,151.570 127.437,151.460 127.327 C 151.350 127.217,151.135 127.961,150.982 128.982 M150.182 134.182 C 150.029 135.202,149.994 136.127,150.104 136.237 C 150.214 136.347,150.429 135.602,150.582 134.582 C 150.735 133.561,150.770 132.637,150.660 132.527 C 150.550 132.417,150.335 133.161,150.182 134.182 M149.385 139.785 C 149.230 141.023,149.190 142.123,149.295 142.229 C 149.401 142.334,149.607 141.401,149.754 140.154 C 149.900 138.907,149.941 137.807,149.843 137.710 C 149.746 137.612,149.539 138.546,149.385 139.785 M148.669 143.956 C 148.521 144.695,148.421 145.863,148.447 146.550 C 148.479 147.412,148.605 147.125,148.855 145.623 C 149.253 143.221,149.097 141.817,148.669 143.956 M257.628 146.833 C 257.644 147.585,257.812 148.560,258.003 149.000 C 258.226 149.515,258.267 149.087,258.118 147.800 C 257.844 145.422,257.589 144.919,257.628 146.833 M147.815 150.074 C 147.669 151.243,147.380 153.235,147.174 154.500 C 146.968 155.765,146.632 157.835,146.426 159.100 C 145.817 162.838,145.494 165.814,145.720 165.600 C 145.836 165.490,146.126 164.050,146.365 162.400 C 146.603 160.750,146.979 158.230,147.200 156.800 C 148.165 150.557,148.442 148.308,148.268 148.135 C 148.166 148.032,147.962 148.905,147.815 150.074 M258.406 151.633 C 258.409 152.385,258.592 153.270,258.812 153.600 C 259.091 154.019,259.133 153.658,258.950 152.400 C 258.625 150.159,258.398 149.840,258.406 151.633 M259.206 156.033 C 259.209 156.785,259.392 157.670,259.612 158.000 C 259.891 158.419,259.933 158.058,259.750 156.800 C 259.425 154.559,259.198 154.240,259.206 156.033 M260.028 160.433 C 260.044 161.185,260.220 162.160,260.420 162.600 C 260.665 163.139,260.705 162.746,260.541 161.400 C 260.251 159.019,259.989 158.524,260.028 160.433 M260.806 165.033 C 260.809 165.675,260.996 166.470,261.221 166.800 C 261.514 167.230,261.554 166.946,261.362 165.800 C 261.030 163.816,260.798 163.496,260.806 165.033 M144.877 169.400 C 144.589 171.380,144.194 173.900,143.999 175.000 C 143.804 176.100,143.555 177.990,143.445 179.200 C 143.190 182.004,143.705 179.851,144.401 175.200 C 144.648 173.550,145.036 171.200,145.263 169.978 C 145.490 168.756,145.614 167.316,145.538 166.778 C 145.462 166.240,145.165 167.420,144.877 169.400 M261.606 169.433 C 261.609 170.075,261.796 170.870,262.021 171.200 C 262.314 171.630,262.354 171.346,262.162 170.200 C 261.830 168.216,261.598 167.896,261.606 169.433 M262.468 174.000 C 262.462 174.550,262.611 175.360,262.800 175.800 L 263.144 176.600 263.132 175.800 C 263.126 175.360,262.976 174.550,262.800 174.000 L 262.480 173.000 262.468 174.000 M263.275 178.200 C 263.265 178.860,263.411 179.760,263.600 180.200 L 263.944 181.000 263.925 180.200 C 263.914 179.760,263.768 178.860,263.600 178.200 L 263.295 177.000 263.275 178.200 M141.600 182.021 C 140.830 182.207,137.788 182.546,134.840 182.774 C 131.891 183.001,129.373 183.293,129.244 183.422 C 128.981 183.686,134.545 183.328,139.379 182.770 C 141.127 182.568,142.738 182.222,142.959 182.001 C 143.179 181.781,143.279 181.618,143.180 181.641 C 143.081 181.663,142.370 181.834,141.600 182.021 M264.204 181.926 C 264.536 182.289,275.426 183.594,278.167 183.599 C 280.495 183.603,277.769 183.192,271.626 182.613 C 267.790 182.252,264.460 181.849,264.226 181.719 C 263.936 181.558,263.929 181.624,264.204 181.926 M123.400 184.000 L 122.200 184.305 123.400 184.318 C 124.060 184.324,125.500 184.190,126.600 184.018 L 128.600 183.707 126.600 183.701 C 125.500 183.697,124.060 183.832,123.400 184.000 M279.233 183.749 C 279.325 183.830,280.930 183.997,282.800 184.119 C 284.829 184.252,285.716 184.211,285.000 184.018 C 283.802 183.695,278.918 183.467,279.233 183.749 M116.800 184.800 L 115.400 185.095 116.800 185.118 C 117.570 185.130,119.010 184.997,120.000 184.820 L 121.800 184.500 120.000 184.503 C 119.010 184.504,117.570 184.638,116.800 184.800 M288.200 184.823 C 289.080 185.005,290.340 185.144,291.000 185.131 C 292.044 185.111,291.992 185.065,290.600 184.777 C 289.720 184.595,288.460 184.456,287.800 184.469 C 286.756 184.489,286.808 184.535,288.200 184.823 M111.200 185.621 C 110.552 185.842,111.045 185.880,112.600 185.731 C 113.920 185.604,115.075 185.432,115.167 185.350 C 115.490 185.059,112.186 185.284,111.200 185.621 M292.433 185.347 C 292.525 185.428,293.770 185.597,295.200 185.723 C 296.830 185.866,297.427 185.826,296.800 185.616 C 295.820 185.286,292.105 185.058,292.433 185.347 M106.200 186.400 L 105.000 186.705 106.200 186.713 C 106.860 186.717,107.850 186.576,108.400 186.400 L 109.400 186.080 108.400 186.087 C 107.850 186.091,106.860 186.232,106.200 186.400 M299.200 186.400 C 299.750 186.576,300.740 186.720,301.400 186.720 C 302.567 186.720,302.572 186.711,301.600 186.400 C 301.050 186.224,300.060 186.080,299.400 186.080 C 298.233 186.080,298.228 186.089,299.200 186.400 M101.400 187.200 C 100.306 187.670,102.133 187.670,103.600 187.200 C 104.575 186.888,104.570 186.879,103.400 186.868 C 102.740 186.862,101.840 187.011,101.400 187.200 M304.000 187.200 C 304.550 187.376,305.450 187.520,306.000 187.520 L 307.000 187.520 306.000 187.200 C 305.450 187.024,304.550 186.880,304.000 186.880 L 303.000 186.880 304.000 187.200 M97.200 188.000 L 96.200 188.320 97.200 188.332 C 97.750 188.338,98.560 188.189,99.000 188.000 L 99.800 187.656 99.000 187.668 C 98.560 187.674,97.750 187.824,97.200 188.000 M308.600 188.000 C 309.040 188.189,309.850 188.338,310.400 188.332 L 311.400 188.320 310.400 188.000 C 309.850 187.824,309.040 187.674,308.600 187.668 L 307.800 187.656 308.600 188.000 M93.600 188.800 L 92.600 189.120 93.600 189.154 C 94.150 189.173,94.870 189.013,95.200 188.800 C 95.964 188.306,95.142 188.306,93.600 188.800 M312.200 188.800 C 312.640 188.989,313.360 189.144,313.800 189.144 L 314.600 189.144 313.800 188.800 C 313.360 188.611,312.640 188.456,312.200 188.456 L 311.400 188.456 312.200 188.800 M90.200 189.600 L 89.400 189.944 90.200 189.966 C 90.640 189.978,91.270 189.813,91.600 189.600 C 92.395 189.086,91.396 189.086,90.200 189.600 M315.800 189.600 C 316.240 189.789,317.050 189.938,317.600 189.932 L 318.600 189.920 317.600 189.600 C 317.050 189.424,316.240 189.274,315.800 189.268 L 315.000 189.256 315.800 189.600 M87.000 190.400 L 86.200 190.744 87.000 190.766 C 87.440 190.778,88.070 190.613,88.400 190.400 C 89.195 189.886,88.196 189.886,87.000 190.400 M319.200 190.400 C 319.530 190.613,320.160 190.778,320.600 190.766 L 321.400 190.744 320.600 190.400 C 319.404 189.886,318.405 189.886,319.200 190.400 M84.200 191.200 C 83.429 191.531,83.431 191.545,84.276 191.572 C 84.758 191.587,85.264 191.420,85.400 191.200 C 85.692 190.727,85.301 190.727,84.200 191.200 M322.200 191.200 C 322.336 191.420,322.842 191.587,323.324 191.572 C 324.169 191.545,324.171 191.531,323.400 191.200 C 322.299 190.727,321.908 190.727,322.200 191.200 M81.600 192.000 C 80.776 192.264,80.741 192.326,81.400 192.354 C 81.840 192.373,82.470 192.213,82.800 192.000 C 83.501 191.547,83.014 191.547,81.600 192.000 M325.000 192.000 C 325.136 192.220,325.642 192.387,326.124 192.372 C 326.969 192.345,326.971 192.331,326.200 192.000 C 325.099 191.527,324.708 191.527,325.000 192.000 M327.374 192.757 C 327.524 193.001,327.924 193.200,328.263 193.200 C 329.415 193.200,335.576 196.470,337.291 197.992 C 339.290 199.766,339.699 202.343,338.238 203.958 C 337.819 204.421,337.656 204.800,337.875 204.800 C 340.261 204.800,339.872 199.860,337.309 197.604 C 334.926 195.506,326.546 191.419,327.374 192.757 M73.999 195.075 C 65.513 199.304,66.113 204.345,75.627 208.742 C 78.922 210.265,82.091 211.292,80.800 210.418 C 80.470 210.195,79.959 210.009,79.665 210.006 C 78.900 209.997,71.956 206.554,70.997 205.709 C 66.817 202.022,67.886 198.507,74.114 195.459 C 75.371 194.844,76.400 194.264,76.400 194.171 C 76.400 193.896,76.263 193.947,73.999 195.075 M335.600 206.242 C 334.159 207.274,330.260 209.200,329.612 209.200 C 329.411 209.200,329.135 209.382,328.997 209.605 C 328.401 210.569,334.380 207.734,336.754 205.926 C 338.204 204.822,337.198 205.097,335.600 206.242 M82.200 211.200 C 83.301 211.673,83.692 211.673,83.400 211.200 C 83.264 210.980,82.758 210.813,82.276 210.828 C 81.431 210.855,81.429 210.869,82.200 211.200 M324.200 211.200 C 323.908 211.673,324.299 211.673,325.400 211.200 C 326.171 210.869,326.169 210.855,325.324 210.828 C 324.842 210.813,324.336 210.980,324.200 211.200 M84.600 212.000 C 85.796 212.514,86.795 212.514,86.000 212.000 C 85.670 211.787,85.040 211.622,84.600 211.634 L 83.800 211.656 84.600 212.000 M321.600 212.000 C 320.805 212.514,321.804 212.514,323.000 212.000 L 323.800 211.656 323.000 211.634 C 322.560 211.622,321.930 211.787,321.600 212.000 M87.800 212.800 C 88.996 213.314,89.995 213.314,89.200 212.800 C 88.870 212.587,88.240 212.422,87.800 212.434 L 87.000 212.456 87.800 212.800 M318.400 212.800 C 317.605 213.314,318.604 213.314,319.800 212.800 L 320.600 212.456 319.800 212.434 C 319.360 212.422,318.730 212.587,318.400 212.800 M91.000 213.600 C 92.196 214.114,93.195 214.114,92.400 213.600 C 92.070 213.387,91.440 213.222,91.000 213.234 L 90.200 213.256 91.000 213.600 M315.200 213.600 C 314.405 214.114,315.404 214.114,316.600 213.600 L 317.400 213.256 316.600 213.234 C 316.160 213.222,315.530 213.387,315.200 213.600 M94.400 214.400 C 95.768 214.838,96.819 214.838,95.800 214.400 C 95.360 214.211,94.640 214.062,94.200 214.068 C 93.557 214.077,93.596 214.143,94.400 214.400 M311.400 214.400 L 310.600 214.744 311.400 214.732 C 311.840 214.726,312.650 214.576,313.200 214.400 L 314.200 214.080 313.200 214.068 C 312.650 214.062,311.840 214.211,311.400 214.400 M98.000 215.200 C 98.550 215.376,99.360 215.526,99.800 215.532 L 100.600 215.544 99.800 215.200 C 99.360 215.011,98.550 214.862,98.000 214.868 L 97.000 214.880 98.000 215.200 M307.400 215.200 C 306.671 215.513,306.688 215.544,307.600 215.544 C 308.150 215.544,308.960 215.389,309.400 215.200 C 310.129 214.887,310.112 214.856,309.200 214.856 C 308.650 214.856,307.840 215.011,307.400 215.200 M102.000 216.000 C 102.550 216.176,103.450 216.320,104.000 216.320 L 105.000 216.320 104.000 216.000 C 103.450 215.824,102.550 215.680,102.000 215.680 L 101.000 215.680 102.000 216.000 M303.000 216.000 C 302.271 216.313,302.288 216.344,303.200 216.344 C 303.750 216.344,304.560 216.189,305.000 216.000 C 305.729 215.687,305.712 215.656,304.800 215.656 C 304.250 215.656,303.440 215.811,303.000 216.000 M107.000 216.800 C 107.660 216.968,108.740 217.105,109.400 217.105 L 110.600 217.105 109.400 216.800 C 108.740 216.632,107.660 216.495,107.000 216.495 L 105.800 216.495 107.000 216.800 M297.600 216.800 L 296.200 217.095 297.600 217.100 C 298.370 217.103,299.540 216.968,300.200 216.800 L 301.400 216.495 300.200 216.500 C 299.540 216.503,298.370 216.638,297.600 216.800 M112.000 217.600 C 112.550 217.776,113.630 217.917,114.400 217.914 L 115.800 217.908 114.200 217.577 C 112.063 217.135,110.596 217.150,112.000 217.600 M292.400 217.600 L 291.000 217.895 292.400 217.900 C 293.170 217.903,294.340 217.768,295.000 217.600 L 296.200 217.295 295.000 217.300 C 294.340 217.303,293.170 217.438,292.400 217.600 M117.800 218.400 C 118.460 218.568,119.720 218.704,120.600 218.703 L 122.200 218.700 120.400 218.380 C 117.957 217.945,116.070 217.960,117.800 218.400 M286.400 218.400 L 285.000 218.695 286.400 218.700 C 287.170 218.703,288.340 218.568,289.000 218.400 L 290.200 218.095 289.000 218.100 C 288.340 218.103,287.170 218.238,286.400 218.400 M124.600 219.187 C 125.803 219.506,130.280 219.729,129.967 219.454 C 129.875 219.374,128.360 219.209,126.600 219.088 C 124.706 218.959,123.890 218.999,124.600 219.187 M279.200 219.200 L 277.000 219.470 278.800 219.512 C 279.790 219.535,281.320 219.405,282.200 219.223 C 284.220 218.805,282.528 218.792,279.200 219.200 M132.200 220.018 C 133.300 220.190,135.100 220.319,136.200 220.306 L 138.200 220.282 135.800 219.985 C 132.325 219.553,129.392 219.581,132.200 220.018 M271.200 220.000 L 268.600 220.262 271.000 220.301 C 272.320 220.323,274.210 220.197,275.200 220.020 L 277.000 219.700 275.400 219.719 C 274.520 219.730,272.630 219.856,271.200 220.000 M139.597 220.682 C 140.365 220.783,141.143 221.075,141.327 221.333 C 141.555 221.651,141.610 221.609,141.500 221.200 C 141.394 220.808,140.793 220.582,139.769 220.549 C 138.266 220.500,138.259 220.506,139.597 220.682 M263.600 220.758 L 262.600 221.036 262.493 231.263 C 262.411 239.135,262.503 241.588,262.893 241.912 C 263.301 242.250,263.378 240.262,263.287 231.787 L 263.175 221.241 264.487 221.024 C 265.209 220.905,266.430 220.745,267.200 220.668 C 268.157 220.572,267.967 220.520,266.600 220.504 C 265.500 220.491,264.150 220.605,263.600 220.758 M147.693 221.129 C 147.301 221.382,147.210 223.791,147.293 231.789 L 147.400 242.122 148.904 242.902 C 156.162 246.668,156.101 257.482,148.800 261.498 L 147.400 262.268 147.294 273.723 L 147.188 285.178 148.694 285.954 C 150.412 286.839,152.413 288.841,153.337 290.600 C 153.728 291.343,153.974 291.546,153.984 291.132 C 154.006 290.201,150.268 286.208,148.807 285.603 L 147.600 285.103 147.600 273.778 C 147.600 262.503,147.604 262.453,148.470 262.178 C 151.495 261.218,154.800 256.009,154.800 252.200 C 154.800 248.387,151.495 243.182,148.463 242.220 C 147.587 241.942,147.587 241.932,147.693 231.671 L 147.800 221.400 149.000 221.499 C 155.808 222.057,165.124 222.475,173.200 222.583 L 183.000 222.715 173.800 222.400 C 163.826 222.059,150.804 221.318,149.200 221.000 C 148.650 220.891,147.972 220.949,147.693 221.129 M249.000 221.668 C 245.920 221.858,238.810 222.175,233.200 222.372 L 223.000 222.730 233.600 222.568 C 239.430 222.479,246.989 222.239,250.397 222.036 C 255.034 221.759,256.668 221.783,256.891 222.133 C 257.085 222.439,257.190 222.359,257.194 221.900 C 257.201 221.114,257.724 221.129,249.000 221.668 M193.072 223.100 C 198.392 223.163,207.212 223.163,212.672 223.100 C 218.133 223.037,213.780 222.985,203.000 222.985 C 192.220 222.985,187.753 223.037,193.072 223.100 M139.727 242.171 C 136.799 243.621,133.586 247.256,133.609 249.092 C 133.614 249.481,133.950 249.068,134.356 248.174 C 135.672 245.277,138.802 242.400,140.638 242.400 C 141.130 242.400,141.832 241.657,141.540 241.445 C 141.463 241.389,140.647 241.716,139.727 242.171 M253.062 243.436 C 252.224 244.005,251.625 244.558,251.731 244.664 C 251.837 244.770,252.256 244.578,252.662 244.236 C 253.068 243.895,253.760 243.347,254.200 243.020 C 255.546 242.019,254.682 242.335,253.062 243.436 M264.000 242.557 C 264.000 242.655,264.618 243.117,265.373 243.583 C 269.311 246.017,270.794 251.436,268.948 256.648 C 268.774 257.141,268.817 257.262,269.074 257.000 C 271.231 254.795,270.447 248.577,267.572 245.092 C 266.507 243.800,264.000 242.021,264.000 242.557 M249.620 247.757 C 248.007 251.138,248.005 253.257,249.611 256.623 C 250.724 258.956,253.435 261.898,253.974 261.359 C 254.095 261.239,253.881 260.965,253.500 260.752 C 248.831 258.139,247.463 249.908,251.041 245.955 C 251.416 245.540,251.525 245.200,251.282 245.200 C 251.040 245.200,250.292 246.351,249.620 247.757 M140.145 247.980 C 137.267 250.794,138.264 257.304,141.555 257.175 C 142.038 257.156,141.999 257.067,141.400 256.822 C 137.738 255.323,137.738 249.776,141.400 247.537 C 142.087 247.116,142.333 246.802,141.976 246.801 C 141.633 246.801,140.809 247.331,140.145 247.980 M146.617 247.545 C 149.959 249.583,150.120 254.824,146.895 256.574 C 146.236 256.932,146.051 257.174,146.430 257.184 C 147.932 257.222,149.600 254.377,149.600 251.779 C 149.600 249.844,147.365 246.798,145.947 246.801 C 145.646 246.802,145.948 247.137,146.617 247.545 M255.715 247.900 C 255.025 248.505,254.355 249.450,254.226 250.000 C 254.030 250.839,254.097 250.799,254.644 249.751 C 255.003 249.064,255.950 248.123,256.748 247.660 C 257.547 247.197,257.923 246.814,257.585 246.809 C 257.247 246.804,256.405 247.295,255.715 247.900 M261.855 247.477 C 264.440 248.765,265.481 252.278,263.999 254.710 C 263.559 255.430,263.206 256.150,263.212 256.310 C 263.249 257.167,265.196 253.223,265.198 252.287 C 265.202 249.878,262.872 246.743,261.138 246.826 C 260.842 246.840,261.165 247.133,261.855 247.477 M133.324 252.200 C 133.326 253.520,133.401 254.012,133.490 253.293 C 133.579 252.574,133.577 251.494,133.486 250.893 C 133.395 250.292,133.322 250.880,133.324 252.200 M253.648 252.200 C 253.624 252.860,254.048 254.120,254.590 255.000 C 255.132 255.880,255.581 256.459,255.588 256.286 C 255.594 256.113,255.299 255.513,254.931 254.951 C 254.564 254.390,254.134 253.272,253.977 252.466 C 253.708 251.083,253.690 251.068,253.648 252.200 M133.604 255.116 C 133.587 257.319,139.217 263.316,140.293 262.241 C 140.413 262.121,140.056 261.849,139.500 261.638 C 137.766 260.979,135.513 258.691,134.541 256.603 C 134.028 255.501,133.606 254.832,133.604 255.116 M266.600 259.729 C 265.339 261.005,265.043 261.444,265.800 260.916 C 267.200 259.939,269.012 258.070,268.768 257.854 C 268.676 257.772,267.700 258.616,266.600 259.729 M263.055 262.339 C 262.459 262.997,262.398 264.260,262.493 273.990 L 262.600 284.903 263.600 285.495 C 264.465 286.007,264.505 286.008,263.900 285.500 C 263.264 284.966,263.200 283.892,263.200 273.800 C 263.200 263.686,263.263 262.640,263.900 262.157 C 264.285 261.865,264.403 261.620,264.162 261.613 C 263.921 261.606,263.423 261.932,263.055 262.339 M141.200 284.381 C 141.200 284.591,140.435 285.104,139.500 285.521 C 136.972 286.649,133.551 290.501,133.619 292.146 C 133.629 292.396,134.072 291.765,134.604 290.744 C 135.724 288.594,138.325 286.219,140.258 285.581 C 141.333 285.226,142.218 284.000,141.400 284.000 C 141.290 284.000,141.200 284.172,141.200 284.381 M256.655 284.600 C 256.529 284.930,256.070 285.200,255.636 285.200 C 255.202 285.200,254.736 285.380,254.600 285.600 C 254.289 286.103,254.395 286.100,255.940 285.561 C 256.633 285.319,257.200 284.869,257.200 284.561 C 257.200 283.828,256.945 283.846,256.655 284.600 M252.302 287.220 C 241.959 295.746,254.400 311.659,265.610 304.241 C 269.719 301.522,272.027 292.347,269.064 290.516 C 268.830 290.371,268.766 290.534,268.910 290.909 C 270.977 296.297,269.063 302.226,264.513 304.530 C 262.953 305.319,259.388 306.110,258.523 305.858 C 258.125 305.742,257.014 305.444,256.053 305.196 C 248.780 303.314,246.631 293.395,252.288 287.818 C 254.420 285.716,254.426 285.469,252.302 287.220 M266.729 287.948 C 267.758 289.020,268.679 289.826,268.775 289.740 C 268.990 289.547,265.547 286.000,265.145 286.000 C 264.987 286.000,265.699 286.877,266.729 287.948 M141.000 290.498 C 137.650 292.935,137.328 297.025,140.283 299.619 C 141.023 300.269,141.847 300.799,142.114 300.799 C 142.381 300.798,142.003 300.433,141.273 299.988 C 139.333 298.805,138.192 296.054,138.825 294.084 C 140.796 287.943,148.803 288.969,149.303 295.427 L 149.456 297.400 149.528 295.289 C 149.678 290.908,144.464 287.979,141.000 290.498 M256.522 290.382 C 252.386 292.904,253.404 300.818,257.862 300.799 C 258.048 300.798,257.613 300.439,256.896 300.002 C 252.101 297.078,253.909 289.993,259.447 290.003 C 264.934 290.012,266.674 297.094,261.904 300.002 C 260.410 300.913,260.703 301.078,262.324 300.239 C 263.711 299.522,265.200 296.882,265.199 295.146 C 265.194 291.022,260.078 288.214,256.522 290.382 M154.294 294.245 C 155.297 306.090,139.328 310.396,134.434 299.600 C 133.985 298.610,133.614 298.032,133.609 298.316 C 133.563 301.024,137.886 305.019,141.900 305.978 C 149.236 307.731,157.153 299.268,154.415 292.600 C 154.220 292.125,154.171 292.792,154.294 294.245 M133.324 295.400 C 133.326 296.720,133.401 297.212,133.490 296.493 C 133.579 295.774,133.577 294.694,133.486 294.093 C 133.395 293.492,133.322 294.080,133.324 295.400 M147.943 298.900 C 147.296 299.822,147.236 300.035,147.737 299.633 C 148.450 299.060,149.387 297.600,149.041 297.600 C 148.939 297.600,148.444 298.185,147.943 298.900 M145.871 300.262 C 145.727 300.406,144.932 300.671,144.104 300.849 L 142.600 301.174 144.348 301.018 C 145.855 300.885,147.765 300.000,146.547 300.000 C 146.319 300.000,146.015 300.118,145.871 300.262 " stroke="none" fill="#a1d2fc" fill-rule="evenodd"></path><path id="path3" d="M154.975 115.300 L 153.800 116.600 155.100 115.425 C 155.815 114.779,156.400 114.194,156.400 114.125 C 156.400 113.816,156.070 114.088,154.975 115.300 M249.200 114.125 C 249.200 114.194,249.785 114.779,250.500 115.425 L 251.800 116.600 250.625 115.300 C 249.530 114.088,249.200 113.816,249.200 114.125 M255.668 134.400 C 255.688 135.439,256.318 137.146,256.332 136.200 C 256.338 135.760,256.189 135.040,256.000 134.600 C 255.789 134.110,255.661 134.032,255.668 134.400 M138.900 182.276 C 139.285 182.376,139.915 182.376,140.300 182.276 C 140.685 182.175,140.370 182.093,139.600 182.093 C 138.830 182.093,138.515 182.175,138.900 182.276 M267.900 182.282 C 268.395 182.378,269.205 182.378,269.700 182.282 C 270.195 182.187,269.790 182.109,268.800 182.109 C 267.810 182.109,267.405 182.187,267.900 182.282 M135.700 182.676 C 136.085 182.776,136.715 182.776,137.100 182.676 C 137.485 182.575,137.170 182.493,136.400 182.493 C 135.630 182.493,135.315 182.575,135.700 182.676 M69.375 198.100 L 68.200 199.400 69.500 198.225 C 70.215 197.579,70.800 196.994,70.800 196.925 C 70.800 196.616,70.470 196.888,69.375 198.100 M336.800 196.925 C 336.800 196.994,337.385 197.579,338.100 198.225 L 339.400 199.400 338.225 198.100 C 337.130 196.888,336.800 196.616,336.800 196.925 M131.700 220.276 C 132.085 220.376,132.715 220.376,133.100 220.276 C 133.485 220.175,133.170 220.093,132.400 220.093 C 131.630 220.093,131.315 220.175,131.700 220.276 M265.100 221.082 C 265.595 221.178,266.405 221.178,266.900 221.082 C 267.395 220.987,266.990 220.909,266.000 220.909 C 265.010 220.909,264.605 220.987,265.100 221.082 M141.373 231.400 C 141.373 236.900,141.430 239.205,141.499 236.523 C 141.568 233.841,141.568 229.341,141.499 226.523 C 141.430 223.705,141.374 225.900,141.373 231.400 M150.500 221.887 C 151.105 221.978,152.095 221.978,152.700 221.887 C 153.305 221.795,152.810 221.720,151.600 221.720 C 150.390 221.720,149.895 221.795,150.500 221.887 M254.900 221.876 C 255.285 221.976,255.915 221.976,256.300 221.876 C 256.685 221.775,256.370 221.693,255.600 221.693 C 254.830 221.693,254.515 221.775,254.900 221.876 M159.300 222.276 C 159.685 222.376,160.315 222.376,160.700 222.276 C 161.085 222.175,160.770 222.093,160.000 222.093 C 159.230 222.093,158.915 222.175,159.300 222.276 M246.705 222.283 C 247.202 222.379,247.922 222.375,248.305 222.275 C 248.687 222.175,248.280 222.096,247.400 222.101 C 246.520 222.105,246.207 222.187,246.705 222.283 M163.100 222.689 C 163.815 222.778,164.985 222.778,165.700 222.689 C 166.415 222.601,165.830 222.528,164.400 222.528 C 162.970 222.528,162.385 222.601,163.100 222.689 M240.900 222.691 C 241.725 222.778,243.075 222.778,243.900 222.691 C 244.725 222.605,244.050 222.534,242.400 222.534 C 240.750 222.534,240.075 222.605,240.900 222.691 M256.973 231.800 C 256.973 237.080,257.030 239.185,257.099 236.477 C 257.168 233.769,257.168 229.449,257.099 226.877 C 257.029 224.305,256.972 226.520,256.973 231.800 M179.300 223.091 C 180.125 223.178,181.475 223.178,182.300 223.091 C 183.125 223.005,182.450 222.934,180.800 222.934 C 179.150 222.934,178.475 223.005,179.300 223.091 M223.700 223.091 C 224.525 223.178,225.875 223.178,226.700 223.091 C 227.525 223.005,226.850 222.934,225.200 222.934 C 223.550 222.934,222.875 223.005,223.700 223.091 M195.300 223.500 C 199.645 223.564,206.755 223.564,211.100 223.500 C 215.445 223.435,211.890 223.382,203.200 223.382 C 194.510 223.382,190.955 223.435,195.300 223.500 M151.400 244.400 C 152.259 245.280,153.052 246.000,153.162 246.000 C 153.272 246.000,152.659 245.280,151.800 244.400 C 150.941 243.520,150.148 242.800,150.038 242.800 C 149.928 242.800,150.541 243.520,151.400 244.400 M135.113 245.500 C 134.507 246.195,133.280 248.393,133.723 247.990 C 134.083 247.662,135.991 244.800,135.850 244.800 C 135.781 244.800,135.449 245.115,135.113 245.500 M143.100 247.082 C 143.595 247.178,144.405 247.178,144.900 247.082 C 145.395 246.987,144.990 246.909,144.000 246.909 C 143.010 246.909,142.605 246.987,143.100 247.082 M258.705 247.083 C 259.202 247.179,259.922 247.175,260.305 247.075 C 260.687 246.975,260.280 246.896,259.400 246.901 C 258.520 246.905,258.207 246.987,258.705 247.083 M146.000 247.311 C 146.000 247.387,146.585 247.878,147.300 248.401 C 148.104 248.990,148.384 249.087,148.033 248.655 C 147.500 247.999,146.000 247.007,146.000 247.311 M132.893 252.000 C 132.893 252.770,132.975 253.085,133.076 252.700 C 133.176 252.315,133.176 251.685,133.076 251.300 C 132.975 250.915,132.893 251.230,132.893 252.000 M142.900 257.087 C 143.505 257.178,144.495 257.178,145.100 257.087 C 145.705 256.995,145.210 256.920,144.000 256.920 C 142.790 256.920,142.295 256.995,142.900 257.087 M258.307 257.090 C 259.026 257.179,260.106 257.177,260.707 257.086 C 261.308 256.995,260.720 256.922,259.400 256.924 C 258.080 256.926,257.588 257.001,258.307 257.090 M151.578 259.900 L 150.200 261.400 151.700 260.022 C 153.096 258.738,153.384 258.400,153.078 258.400 C 153.012 258.400,152.337 259.075,151.578 259.900 M264.800 261.636 C 264.136 262.179,264.069 262.315,264.600 262.040 C 265.905 261.366,266.628 260.812,266.200 260.815 C 265.980 260.817,265.350 261.186,264.800 261.636 M141.374 273.800 C 141.375 279.520,141.431 281.804,141.499 278.876 C 141.568 275.948,141.567 271.268,141.499 268.476 C 141.430 265.684,141.374 268.080,141.374 273.800 M256.974 273.800 C 256.975 279.520,257.031 281.804,257.099 278.876 C 257.168 275.948,257.167 271.268,257.099 268.476 C 257.030 265.684,256.974 268.080,256.974 273.800 M151.400 287.600 C 152.259 288.480,153.052 289.200,153.162 289.200 C 153.272 289.200,152.659 288.480,151.800 287.600 C 150.941 286.720,150.148 286.000,150.038 286.000 C 149.928 286.000,150.541 286.720,151.400 287.600 M132.893 295.200 C 132.893 295.970,132.975 296.285,133.076 295.900 C 133.176 295.515,133.176 294.885,133.076 294.500 C 132.975 294.115,132.893 294.430,132.893 295.200 M142.021 300.421 C 142.555 300.760,145.542 300.981,145.167 300.655 C 145.075 300.575,144.199 300.408,143.221 300.282 C 142.070 300.135,141.646 300.184,142.021 300.421 M257.738 300.494 C 257.992 300.656,258.740 300.788,259.400 300.788 C 260.060 300.788,260.808 300.656,261.062 300.494 C 261.316 300.332,260.568 300.200,259.400 300.200 C 258.232 300.200,257.484 300.332,257.738 300.494 M136.200 303.200 C 137.059 304.080,137.852 304.800,137.962 304.800 C 138.072 304.800,137.459 304.080,136.600 303.200 C 135.741 302.320,134.948 301.600,134.838 301.600 C 134.728 301.600,135.341 302.320,136.200 303.200 M151.775 302.900 L 150.600 304.200 151.900 303.025 C 153.112 301.930,153.384 301.600,153.075 301.600 C 153.006 301.600,152.421 302.185,151.775 302.900 M256.400 305.982 C 256.730 306.205,257.345 306.391,257.767 306.394 C 258.790 306.402,258.471 306.173,257.000 305.844 C 256.124 305.648,255.962 305.685,256.400 305.982 M261.200 306.000 C 260.376 306.264,260.341 306.326,261.000 306.354 C 261.440 306.373,262.070 306.213,262.400 306.000 C 263.101 305.547,262.614 305.547,261.200 306.000 " stroke="none" fill="#70bcf6" fill-rule="evenodd"></path><path id="path4" d="M163.915 110.328 C 163.538 110.478,181.036 110.600,202.800 110.600 C 224.564 110.600,242.062 110.478,241.685 110.328 C 241.308 110.179,223.810 110.056,202.800 110.056 C 181.790 110.056,164.292 110.179,163.915 110.328 M155.210 114.758 C 153.885 116.055,152.801 117.360,152.803 117.658 C 152.804 117.956,153.157 117.660,153.586 117.000 C 154.015 116.340,155.229 115.039,156.283 114.108 C 157.337 113.178,158.070 112.413,157.910 112.408 C 157.751 112.404,156.536 113.461,155.210 114.758 M248.978 113.694 C 249.650 114.296,250.715 115.376,251.344 116.094 C 251.973 116.812,252.304 117.040,252.078 116.600 C 251.669 115.800,250.127 114.297,248.578 113.188 C 248.126 112.865,248.306 113.092,248.978 113.694 M253.256 119.600 C 253.256 119.930,253.411 120.560,253.600 121.000 C 253.817 121.504,253.944 121.578,253.944 121.200 C 253.944 120.870,253.789 120.240,253.600 119.800 C 253.383 119.296,253.256 119.222,253.256 119.600 M151.456 121.284 C 151.321 121.788,151.233 123.010,151.260 124.000 C 151.303 125.574,151.347 125.473,151.609 123.200 C 151.924 120.466,151.867 119.750,151.456 121.284 M254.068 124.400 C 254.088 125.439,254.718 127.146,254.732 126.200 C 254.738 125.760,254.589 125.040,254.400 124.600 C 254.189 124.110,254.061 124.032,254.068 124.400 M150.656 127.284 C 150.521 127.788,150.431 128.830,150.455 129.600 C 150.489 130.669,150.575 130.480,150.818 128.802 C 151.153 126.492,151.072 125.733,150.656 127.284 M254.868 128.800 C 254.888 129.839,255.518 131.546,255.532 130.600 C 255.538 130.160,255.389 129.440,255.200 129.000 C 254.989 128.510,254.861 128.432,254.868 128.800 M255.656 133.200 C 255.656 133.530,255.811 134.160,256.000 134.600 C 256.217 135.104,256.344 135.178,256.344 134.800 C 256.344 134.470,256.189 133.840,256.000 133.400 C 255.783 132.896,255.656 132.822,255.656 133.200 M149.701 135.000 C 149.705 135.880,149.787 136.193,149.883 135.695 C 149.979 135.198,149.975 134.478,149.875 134.095 C 149.775 133.713,149.696 134.120,149.701 135.000 M256.434 138.000 C 256.446 138.330,256.611 138.960,256.800 139.400 L 257.144 140.200 257.166 139.400 C 257.178 138.960,257.013 138.330,256.800 138.000 C 256.455 137.467,256.415 137.467,256.434 138.000 M148.860 139.650 C 148.827 140.228,148.711 141.308,148.601 142.050 L 148.403 143.400 148.824 142.057 C 149.055 141.319,149.172 140.239,149.082 139.657 L 148.920 138.600 148.860 139.650 M257.234 142.400 C 257.246 142.730,257.411 143.360,257.600 143.800 L 257.944 144.600 257.966 143.800 C 257.978 143.360,257.813 142.730,257.600 142.400 C 257.255 141.867,257.215 141.867,257.234 142.400 M148.101 145.400 C 148.105 146.280,148.187 146.593,148.283 146.095 C 148.379 145.598,148.375 144.878,148.275 144.495 C 148.175 144.113,148.096 144.520,148.101 145.400 M258.244 147.400 C 258.573 148.871,258.802 149.190,258.794 148.167 C 258.791 147.745,258.605 147.130,258.382 146.800 C 258.085 146.362,258.048 146.524,258.244 147.400 M147.022 151.822 C 146.872 152.625,146.828 153.362,146.926 153.460 C 147.024 153.557,147.227 152.981,147.378 152.178 C 147.528 151.375,147.572 150.638,147.474 150.540 C 147.376 150.443,147.173 151.019,147.022 151.822 M258.828 151.476 C 258.918 152.515,259.544 153.396,259.572 152.524 C 259.587 152.042,259.420 151.536,259.200 151.400 C 258.980 151.264,258.813 151.298,258.828 151.476 M146.240 156.840 C 146.093 157.757,146.052 158.585,146.147 158.680 C 146.242 158.776,146.446 158.110,146.600 157.200 C 146.754 156.290,146.796 155.462,146.693 155.360 C 146.590 155.257,146.387 155.923,146.240 156.840 M259.628 155.876 C 259.718 156.915,260.344 157.796,260.372 156.924 C 260.387 156.442,260.220 155.936,260.000 155.800 C 259.780 155.664,259.613 155.698,259.628 155.876 M260.640 161.066 C 261.008 162.599,261.200 162.744,261.200 161.490 C 261.200 160.917,261.013 160.332,260.784 160.190 C 260.511 160.021,260.462 160.323,260.640 161.066 M145.473 162.153 C 145.323 162.545,145.211 163.166,145.225 163.533 C 145.242 163.975,145.381 163.874,145.637 163.234 C 145.849 162.703,145.961 162.082,145.885 161.854 C 145.809 161.627,145.624 161.761,145.473 162.153 M261.234 164.400 C 261.246 164.730,261.411 165.360,261.600 165.800 L 261.944 166.600 261.966 165.800 C 261.978 165.360,261.813 164.730,261.600 164.400 C 261.255 163.867,261.215 163.867,261.234 164.400 M144.673 167.353 C 144.523 167.745,144.411 168.366,144.425 168.733 C 144.442 169.175,144.581 169.074,144.837 168.434 C 145.049 167.903,145.161 167.282,145.085 167.054 C 145.009 166.827,144.824 166.961,144.673 167.353 M262.258 169.600 C 262.575 171.325,262.802 171.651,262.794 170.367 C 262.791 169.835,262.611 169.130,262.394 168.800 C 262.118 168.378,262.077 168.615,262.258 169.600 M143.873 172.553 C 143.723 172.945,143.611 173.566,143.625 173.933 C 143.642 174.375,143.781 174.274,144.037 173.634 C 144.249 173.103,144.361 172.482,144.285 172.254 C 144.209 172.027,144.024 172.161,143.873 172.553 M263.058 174.000 C 263.375 175.725,263.602 176.051,263.594 174.767 C 263.591 174.235,263.411 173.530,263.194 173.200 C 262.918 172.778,262.877 173.015,263.058 174.000 M263.858 178.400 C 264.175 180.125,264.402 180.451,264.394 179.167 C 264.391 178.635,264.211 177.930,263.994 177.600 C 263.718 177.178,263.677 177.415,263.858 178.400 M143.067 177.867 C 142.920 178.013,142.815 178.598,142.834 179.167 C 142.868 180.181,142.875 180.179,143.221 179.020 C 143.585 177.803,143.531 177.402,143.067 177.867 M264.765 181.726 C 264.944 181.905,265.881 181.991,266.846 181.918 L 268.600 181.785 266.519 181.593 C 265.375 181.487,264.585 181.547,264.765 181.726 M140.300 181.882 C 140.795 181.978,141.605 181.978,142.100 181.882 C 142.595 181.787,142.190 181.709,141.200 181.709 C 140.210 181.709,139.805 181.787,140.300 181.882 M133.000 182.400 L 130.600 182.666 132.600 182.698 C 133.700 182.715,135.500 182.590,136.600 182.418 C 139.247 182.006,136.679 181.993,133.000 182.400 M271.800 182.410 C 273.390 182.752,277.085 182.933,276.767 182.654 C 276.675 182.574,275.160 182.408,273.400 182.287 C 271.102 182.129,270.651 182.163,271.800 182.410 M124.100 183.487 C 124.705 183.578,125.695 183.578,126.300 183.487 C 126.905 183.395,126.410 183.320,125.200 183.320 C 123.990 183.320,123.495 183.395,124.100 183.487 M280.433 183.344 C 280.525 183.424,282.220 183.585,284.200 183.703 C 286.648 183.849,287.288 183.810,286.200 183.582 C 284.620 183.250,280.110 183.065,280.433 183.344 M117.700 184.287 C 118.305 184.378,119.295 184.378,119.900 184.287 C 120.505 184.195,120.010 184.120,118.800 184.120 C 117.590 184.120,117.095 184.195,117.700 184.287 M288.700 184.282 C 289.195 184.378,290.005 184.378,290.500 184.282 C 290.995 184.187,290.590 184.109,289.600 184.109 C 288.610 184.109,288.205 184.187,288.700 184.282 M110.600 185.196 C 110.102 185.408,110.631 185.451,112.000 185.312 C 113.210 185.189,114.275 185.023,114.367 184.944 C 114.711 184.647,111.367 184.870,110.600 185.196 M294.300 185.082 C 294.795 185.178,295.605 185.178,296.100 185.082 C 296.595 184.987,296.190 184.909,295.200 184.909 C 294.210 184.909,293.805 184.987,294.300 185.082 M105.400 186.003 C 104.885 186.226,105.313 186.267,106.600 186.118 C 107.700 185.991,108.675 185.823,108.767 185.744 C 109.114 185.445,106.164 185.672,105.400 186.003 M299.233 185.745 C 299.325 185.825,300.201 185.992,301.179 186.118 C 302.330 186.265,302.754 186.216,302.379 185.979 C 301.845 185.640,298.858 185.419,299.233 185.745 M100.800 186.795 C 100.391 187.055,100.710 187.099,101.800 186.932 C 103.777 186.629,104.114 186.398,102.567 186.406 C 101.925 186.409,101.130 186.584,100.800 186.795 M303.633 186.544 C 303.725 186.623,304.700 186.791,305.800 186.918 C 307.087 187.067,307.515 187.026,307.000 186.803 C 306.236 186.472,303.286 186.245,303.633 186.544 M96.800 187.595 C 96.391 187.855,96.710 187.899,97.800 187.732 C 99.777 187.429,100.114 187.198,98.567 187.206 C 97.925 187.209,97.130 187.384,96.800 187.595 M308.000 187.358 C 308.000 187.445,308.705 187.583,309.566 187.665 C 310.428 187.748,311.047 187.676,310.943 187.507 C 310.753 187.200,308.000 187.060,308.000 187.358 M92.990 188.416 C 92.821 188.689,93.123 188.738,93.866 188.560 C 95.399 188.192,95.544 188.000,94.290 188.000 C 93.717 188.000,93.132 188.187,92.990 188.416 M312.433 188.144 C 312.525 188.223,313.140 188.408,313.800 188.556 C 314.676 188.752,314.838 188.715,314.400 188.418 C 313.860 188.053,312.032 187.798,312.433 188.144 M316.033 188.944 C 316.125 189.023,316.740 189.208,317.400 189.356 C 318.276 189.552,318.438 189.515,318.000 189.218 C 317.460 188.853,315.632 188.598,316.033 188.944 M67.867 199.467 C 67.354 199.979,67.605 203.054,68.222 203.824 C 68.814 204.562,68.822 204.554,68.385 203.657 C 68.133 203.139,67.989 201.924,68.066 200.957 C 68.143 199.991,68.189 199.200,68.170 199.200 C 68.150 199.200,68.013 199.320,67.867 199.467 M337.775 205.250 C 336.952 206.125,336.852 206.347,337.441 205.991 C 338.167 205.551,339.443 204.000,339.078 204.000 C 339.008 204.000,338.421 204.563,337.775 205.250 M335.194 207.218 C 334.647 207.639,334.380 207.980,334.600 207.978 C 335.129 207.973,336.591 206.858,336.365 206.631 C 336.268 206.534,335.741 206.798,335.194 207.218 M319.000 213.200 C 318.229 213.531,318.231 213.545,319.076 213.572 C 319.558 213.587,320.064 213.420,320.200 213.200 C 320.492 212.727,320.101 212.727,319.000 213.200 M90.400 213.982 C 90.730 214.205,91.345 214.391,91.767 214.394 C 92.790 214.402,92.471 214.173,91.000 213.844 C 90.124 213.648,89.962 213.685,90.400 213.982 M316.000 214.000 C 315.176 214.264,315.141 214.326,315.800 214.354 C 316.240 214.373,316.870 214.213,317.200 214.000 C 317.901 213.547,317.414 213.547,316.000 214.000 M93.790 214.784 C 93.932 215.013,94.517 215.200,95.090 215.200 C 96.344 215.200,96.199 215.008,94.666 214.640 C 93.923 214.462,93.621 214.511,93.790 214.784 M312.200 214.800 C 311.093 215.082,311.077 215.109,312.000 215.147 C 312.550 215.169,313.270 215.013,313.600 214.800 C 314.281 214.360,313.929 214.360,312.200 214.800 M97.200 215.605 C 97.530 215.816,98.325 215.991,98.967 215.994 C 100.514 216.002,100.177 215.771,98.200 215.468 C 97.110 215.301,96.791 215.345,97.200 215.605 M308.400 215.600 C 307.016 215.891,307.014 215.895,308.200 215.941 C 308.860 215.967,309.670 215.813,310.000 215.600 C 310.666 215.170,310.445 215.170,308.400 215.600 M101.200 216.379 C 101.530 216.604,102.325 216.791,102.967 216.794 C 104.504 216.802,104.184 216.570,102.200 216.238 C 101.054 216.046,100.770 216.086,101.200 216.379 M304.000 216.400 C 302.633 216.688,302.628 216.695,303.800 216.719 C 304.460 216.733,305.360 216.589,305.800 216.400 C 306.762 215.987,305.964 215.987,304.000 216.400 M298.800 217.200 L 297.000 217.480 298.600 217.512 C 299.480 217.529,300.560 217.389,301.000 217.200 C 301.927 216.802,301.361 216.802,298.800 217.200 M107.905 217.483 C 108.402 217.579,109.122 217.575,109.505 217.475 C 109.887 217.375,109.480 217.296,108.600 217.301 C 107.720 217.305,107.407 217.387,107.905 217.483 M112.700 218.282 C 113.195 218.378,114.005 218.378,114.500 218.282 C 114.995 218.187,114.590 218.109,113.600 218.109 C 112.610 218.109,112.205 218.187,112.700 218.282 M292.505 218.287 C 293.114 218.379,294.014 218.377,294.505 218.282 C 294.997 218.187,294.500 218.111,293.400 218.114 C 292.300 218.117,291.897 218.195,292.505 218.287 M119.305 219.087 C 119.914 219.179,120.814 219.177,121.305 219.082 C 121.797 218.987,121.300 218.911,120.200 218.914 C 119.100 218.917,118.697 218.995,119.305 219.087 M286.305 219.083 C 286.802 219.179,287.522 219.175,287.905 219.075 C 288.287 218.975,287.880 218.896,287.000 218.901 C 286.120 218.905,285.807 218.987,286.305 219.083 M125.705 219.887 C 126.314 219.979,127.214 219.977,127.705 219.882 C 128.197 219.787,127.700 219.711,126.600 219.714 C 125.500 219.717,125.097 219.795,125.705 219.887 M277.200 220.017 C 276.335 220.209,276.946 220.246,278.800 220.112 C 280.450 219.993,281.875 219.829,281.967 219.748 C 282.258 219.490,278.657 219.693,277.200 220.017 M129.300 220.276 C 129.685 220.376,130.315 220.376,130.700 220.276 C 131.085 220.175,130.770 220.093,130.000 220.093 C 129.230 220.093,128.915 220.175,129.300 220.276 M133.507 220.690 C 134.226 220.779,135.306 220.777,135.907 220.686 C 136.508 220.595,135.920 220.522,134.600 220.524 C 133.280 220.526,132.788 220.601,133.507 220.690 M271.507 220.690 C 272.226 220.779,273.306 220.777,273.907 220.686 C 274.508 220.595,273.920 220.522,272.600 220.524 C 271.280 220.526,270.788 220.601,271.507 220.690 M263.380 221.708 C 263.273 221.987,263.237 226.622,263.300 232.008 L 263.415 241.800 263.507 231.729 C 263.592 222.520,263.660 221.643,264.300 221.476 C 264.956 221.304,264.955 221.290,264.287 221.246 C 263.896 221.221,263.487 221.428,263.380 221.708 M153.233 222.148 C 153.325 222.229,155.380 222.393,157.800 222.511 C 160.758 222.656,161.544 222.619,160.200 222.398 C 158.170 222.065,152.928 221.877,153.233 222.148 M247.000 222.417 C 245.891 222.579,247.137 222.617,249.800 222.503 C 252.440 222.390,254.675 222.230,254.767 222.149 C 255.044 221.901,249.139 222.105,247.000 222.417 M147.773 231.800 C 147.773 237.080,147.830 239.185,147.899 236.477 C 147.968 233.769,147.968 229.449,147.899 226.877 C 147.829 224.305,147.772 226.520,147.773 231.800 M175.000 223.210 C 177.433 223.517,187.873 223.721,187.567 223.455 C 187.475 223.376,184.070 223.219,180.000 223.108 C 175.850 222.995,173.654 223.039,175.000 223.210 M223.400 223.200 L 218.600 223.439 223.400 223.476 C 226.040 223.497,229.280 223.379,230.600 223.215 L 233.000 222.918 230.600 222.939 C 229.280 222.951,226.040 223.069,223.400 223.200 M135.978 244.300 L 134.600 245.800 136.100 244.422 C 137.496 243.138,137.784 242.800,137.478 242.800 C 137.412 242.800,136.737 243.475,135.978 244.300 M151.600 244.200 C 152.346 244.970,153.047 245.600,153.157 245.600 C 153.267 245.600,152.746 244.970,152.000 244.200 C 151.254 243.430,150.553 242.800,150.443 242.800 C 150.333 242.800,150.854 243.430,151.600 244.200 M251.298 244.226 C 250.354 245.251,248.800 247.711,248.816 248.156 C 248.825 248.400,249.116 248.060,249.464 247.400 C 249.811 246.740,250.556 245.707,251.118 245.104 C 251.681 244.501,252.065 243.935,251.971 243.845 C 251.877 243.754,251.574 243.926,251.298 244.226 M268.013 245.300 C 268.740 246.345,269.401 247.200,269.482 247.200 C 269.802 247.200,268.631 245.386,267.690 244.423 C 266.943 243.658,267.024 243.880,268.013 245.300 M147.752 249.367 C 149.350 251.722,148.879 254.887,146.762 256.021 C 146.305 256.265,146.036 256.569,146.163 256.697 C 146.493 257.026,147.979 255.600,148.641 254.321 C 149.641 252.387,149.092 249.804,147.378 248.382 C 147.007 248.074,147.175 248.517,147.752 249.367 M255.719 248.490 C 254.831 249.638,254.743 250.138,255.581 249.274 C 256.076 248.764,256.398 248.265,256.297 248.164 C 256.196 248.063,255.936 248.210,255.719 248.490 M154.900 252.200 C 154.901 254.198,154.958 254.397,155.240 253.387 C 155.425 252.720,155.425 251.640,155.238 250.987 C 154.958 250.008,154.899 250.220,154.900 252.200 M248.124 252.200 C 248.126 253.520,248.201 254.012,248.290 253.293 C 248.379 252.574,248.377 251.494,248.286 250.893 C 248.195 250.292,248.122 250.880,248.124 252.200 M270.524 252.200 C 270.526 253.520,270.601 254.012,270.690 253.293 C 270.779 252.574,270.777 251.494,270.686 250.893 C 270.595 250.292,270.522 250.880,270.524 252.200 M254.244 251.367 C 254.111 251.899,254.151 252.739,254.334 253.233 C 254.592 253.930,254.667 253.713,254.667 252.266 C 254.667 250.152,254.590 249.989,254.244 251.367 M139.598 254.822 C 139.850 255.383,140.449 256.082,140.928 256.374 C 141.728 256.861,141.718 256.810,140.806 255.753 C 140.259 255.119,139.661 254.420,139.475 254.200 C 139.290 253.980,139.345 254.260,139.598 254.822 M133.215 256.000 C 133.221 256.330,133.490 256.949,133.813 257.376 C 134.568 258.375,134.563 258.005,133.802 256.546 C 133.474 255.916,133.210 255.670,133.215 256.000 M249.560 257.800 C 250.234 259.105,250.788 259.828,250.785 259.400 C 250.783 259.180,250.414 258.550,249.964 258.000 C 249.421 257.336,249.285 257.269,249.560 257.800 M268.614 258.235 C 268.241 258.804,268.005 259.338,268.089 259.422 C 268.173 259.507,268.558 259.041,268.944 258.388 C 269.806 256.928,269.548 256.809,268.614 258.235 M152.226 259.513 C 150.815 261.203,150.788 261.275,151.960 260.200 C 153.071 259.182,154.288 257.570,153.914 257.613 C 153.851 257.620,153.092 258.475,152.226 259.513 M134.993 259.200 C 135.794 260.282,137.976 262.186,138.141 261.947 C 138.197 261.866,137.344 260.990,136.247 260.000 C 135.150 259.010,134.585 258.650,134.993 259.200 M148.300 262.432 C 147.657 262.807,147.608 263.722,147.693 273.720 L 147.786 284.600 147.900 273.839 C 148.002 264.181,148.084 263.025,148.707 262.552 C 149.530 261.927,149.289 261.856,148.300 262.432 M263.900 262.432 C 263.260 262.805,263.200 263.784,263.200 273.806 L 263.200 284.772 264.100 285.208 C 264.912 285.602,264.932 285.589,264.300 285.078 C 263.665 284.564,263.600 283.519,263.600 273.800 C 263.600 264.067,263.664 263.040,264.300 262.557 C 265.129 261.928,264.893 261.854,263.900 262.432 M138.200 285.553 C 137.540 285.965,136.371 286.999,135.602 287.851 L 134.204 289.400 136.002 287.745 C 136.991 286.835,138.340 285.808,139.000 285.461 C 139.660 285.115,140.020 284.825,139.800 284.818 C 139.580 284.810,138.860 285.140,138.200 285.553 M149.253 285.603 C 150.053 286.026,151.448 287.213,152.353 288.242 C 153.259 289.271,154.000 289.993,154.000 289.847 C 154.000 288.859,149.206 284.758,148.120 284.818 C 147.944 284.827,148.454 285.181,149.253 285.603 M267.494 287.800 C 268.188 288.680,269.035 289.940,269.376 290.600 C 269.716 291.260,269.996 291.562,269.998 291.272 C 270.001 290.621,267.927 287.562,266.950 286.777 C 266.555 286.460,266.800 286.920,267.494 287.800 M249.853 289.300 L 249.133 290.600 249.958 289.600 C 250.689 288.713,251.014 288.000,250.686 288.000 C 250.624 288.000,250.249 288.585,249.853 289.300 M142.501 290.329 C 142.217 290.509,142.864 290.646,144.000 290.646 C 145.136 290.646,145.783 290.509,145.499 290.329 C 145.225 290.155,144.550 290.012,144.000 290.012 C 143.450 290.012,142.775 290.155,142.501 290.329 M258.138 290.306 C 257.884 290.468,258.452 290.600,259.400 290.600 C 260.348 290.600,260.916 290.468,260.662 290.306 C 260.408 290.144,259.840 290.012,259.400 290.012 C 258.960 290.012,258.392 290.144,258.138 290.306 M255.601 291.798 C 255.086 292.348,254.739 292.848,254.832 292.911 C 254.924 292.974,255.484 292.524,256.074 291.912 C 256.665 291.301,257.012 290.800,256.844 290.800 C 256.677 290.800,256.117 291.249,255.601 291.798 M262.726 291.912 C 263.316 292.524,263.876 292.974,263.968 292.911 C 264.199 292.755,262.335 290.800,261.956 290.800 C 261.788 290.800,262.135 291.301,262.726 291.912 M148.190 293.180 C 149.300 295.328,148.661 298.012,146.713 299.376 C 146.223 299.719,146.011 300.000,146.241 300.000 C 147.303 300.000,149.200 297.055,149.200 295.406 C 149.200 294.405,148.197 292.000,147.779 292.000 C 147.669 292.000,147.854 292.531,148.190 293.180 M248.128 295.200 C 248.128 296.630,248.201 297.215,248.289 296.500 C 248.378 295.785,248.378 294.615,248.289 293.900 C 248.201 293.185,248.128 293.770,248.128 295.200 M154.915 295.400 C 154.907 297.382,154.964 297.589,155.241 296.587 C 155.426 295.920,155.431 294.840,155.251 294.187 C 154.985 293.221,154.922 293.446,154.915 295.400 M270.524 295.400 C 270.526 296.720,270.601 297.212,270.690 296.493 C 270.779 295.774,270.777 294.694,270.686 294.093 C 270.595 293.492,270.522 294.080,270.524 295.400 M254.244 294.567 C 254.111 295.099,254.151 295.939,254.334 296.433 C 254.592 297.130,254.667 296.913,254.667 295.466 C 254.667 293.352,254.590 293.189,254.244 294.567 M139.499 297.804 C 139.963 298.679,141.545 300.230,141.702 299.964 C 141.756 299.874,141.186 299.170,140.436 298.400 C 139.686 297.630,139.265 297.362,139.499 297.804 M248.650 298.800 C 249.087 300.540,249.883 301.753,251.667 303.400 L 253.400 304.999 251.722 303.200 C 250.799 302.210,249.674 300.590,249.221 299.600 C 248.769 298.610,248.512 298.250,248.650 298.800 M133.200 299.114 C 133.200 299.917,134.992 302.496,136.455 303.797 C 137.786 304.983,137.785 304.979,136.339 303.397 C 135.536 302.519,134.501 301.083,134.039 300.206 C 133.578 299.329,133.200 298.838,133.200 299.114 M268.674 301.344 C 268.333 301.863,267.760 302.583,267.399 302.944 C 267.038 303.305,266.923 303.600,267.144 303.600 C 267.498 303.600,268.510 302.366,269.358 300.900 C 269.875 300.006,269.310 300.373,268.674 301.344 M152.200 302.550 C 151.320 303.478,150.150 304.535,149.600 304.898 C 149.050 305.261,148.800 305.567,149.044 305.579 C 149.614 305.606,153.089 302.554,153.622 301.559 C 154.182 300.512,154.033 300.617,152.200 302.550 M253.600 305.053 C 253.600 305.323,256.455 306.478,256.648 306.286 C 256.736 306.197,256.087 305.841,255.204 305.495 C 254.322 305.148,253.600 304.949,253.600 305.053 M146.800 306.000 C 146.267 306.345,146.267 306.388,146.800 306.388 C 147.130 306.388,147.670 306.213,148.000 306.000 C 148.533 305.655,148.533 305.612,148.000 305.612 C 147.670 305.612,147.130 305.787,146.800 306.000 " stroke="none" fill="#4eacf4" fill-rule="evenodd"></path></g></svg>