<svg width="200" height="200" viewBox="0 0 200 200" fill="none" xmlns="http://www.w3.org/2000/svg">
<path d="M82.4015 139.945C82.1553 139.943 81.9173 139.891 81.6915 139.789C79.4413 138.704 77.2949 137.441 75.2563 135.997C73.2178 134.552 71.3155 132.949 69.5475 131.187C67.7795 129.423 66.1723 127.525 64.7237 125.492C63.2772 123.46 62.0097 121.32 60.9233 119.076C60.8276 118.88 60.7727 118.673 60.7605 118.457C60.7483 118.239 60.7768 118.028 60.848 117.822C60.9212 117.617 61.029 117.434 61.1735 117.271C61.3179 117.108 61.4888 116.98 61.6842 116.886C61.8815 116.791 62.087 116.738 62.3047 116.724C62.5224 116.711 62.734 116.742 62.9394 116.813C63.147 116.884 63.3301 116.992 63.4928 117.137C63.6556 117.281 63.7858 117.45 63.8794 117.645C64.8844 119.725 66.0563 121.706 67.395 123.588C68.7337 125.472 70.2209 127.23 71.8546 128.864C73.4884 130.497 75.2482 131.982 77.1342 133.321C79.0202 134.66 81.0038 135.832 83.0851 136.839C83.2845 136.93 83.4574 137.056 83.6039 137.219C83.7524 137.38 83.8623 137.565 83.9355 137.771C84.0088 137.976 84.0373 138.188 84.0251 138.405C84.0129 138.625 83.9579 138.831 83.8623 139.028C83.724 139.305 83.5225 139.526 83.2621 139.691C82.9997 139.856 82.7128 139.941 82.4015 139.945Z" fill="#3C6A98"/>
<path d="M119.631 139.775C119.446 139.775 119.265 139.746 119.09 139.685C118.913 139.626 118.752 139.539 118.608 139.423C118.461 139.309 118.339 139.172 118.239 139.018C118.14 138.861 118.068 138.692 118.026 138.513C117.983 138.332 117.971 138.151 117.989 137.966C118.009 137.783 118.058 137.606 118.138 137.439C118.217 137.272 118.321 137.122 118.451 136.989C118.581 136.857 118.728 136.749 118.894 136.668C120.957 135.679 122.923 134.524 124.788 133.201C126.654 131.879 128.391 130.408 130.007 128.788C131.62 127.169 133.083 125.425 134.397 123.558C135.714 121.69 136.859 119.722 137.838 117.659C137.933 117.464 138.062 117.293 138.224 117.149C138.385 117.002 138.57 116.895 138.774 116.819C138.979 116.746 139.191 116.713 139.408 116.724C139.626 116.732 139.834 116.783 140.033 116.872C140.23 116.966 140.401 117.094 140.548 117.257C140.694 117.417 140.804 117.6 140.877 117.806C140.948 118.011 140.979 118.223 140.969 118.441C140.957 118.658 140.904 118.866 140.808 119.061C139.752 121.293 138.513 123.419 137.093 125.441C135.675 127.462 134.094 129.35 132.351 131.101C130.609 132.855 128.731 134.448 126.717 135.883C124.703 137.317 122.581 138.57 120.353 139.644C120.121 139.738 119.881 139.781 119.631 139.775Z" fill="#3C6A98"/>
<path d="M139.046 82.605C138.735 82.603 138.446 82.5196 138.18 82.3527C137.915 82.1879 137.714 81.9662 137.575 81.6874C136.58 79.6997 135.421 77.8117 134.094 76.0274C132.77 74.2411 131.301 72.583 129.685 71.0531C128.07 69.5231 126.335 68.1437 124.477 66.9169C122.622 65.6881 120.673 64.6301 118.632 63.7411C118.459 63.6373 118.313 63.5071 118.188 63.3525C118.064 63.1958 117.971 63.0209 117.91 62.8316C117.851 62.6404 117.824 62.4471 117.837 62.2477C117.847 62.0484 117.891 61.8571 117.973 61.674C118.054 61.4909 118.164 61.3281 118.304 61.1857C118.445 61.0433 118.606 60.9314 118.787 60.848C118.97 60.7626 119.159 60.7137 119.358 60.6995C119.558 60.6852 119.755 60.7076 119.946 60.7646C122.154 61.7432 124.259 62.9029 126.267 64.2436C128.274 65.5843 130.151 67.0858 131.899 68.75C133.647 70.4122 135.238 72.2127 136.674 74.1496C138.11 76.0864 139.37 78.1311 140.454 80.2836C140.552 80.4789 140.609 80.6824 140.623 80.9001C140.639 81.1157 140.613 81.3273 140.544 81.5328C140.474 81.7383 140.369 81.9214 140.224 82.0842C140.082 82.249 139.913 82.3771 139.718 82.4728C139.504 82.5643 139.28 82.6091 139.046 82.605Z" fill="#3C6A98"/>
<path d="M62.6831 82.605C62.5448 82.6029 62.4084 82.5826 62.2742 82.546C62.1399 82.5093 62.0137 82.4564 61.8917 82.3873C61.7716 82.3181 61.6618 82.2347 61.5621 82.1391C61.4624 82.0414 61.3749 81.9356 61.3037 81.8176C61.2305 81.6976 61.1735 81.5735 61.1328 81.4412C61.0921 81.309 61.0677 81.1727 61.0596 81.0343C61.0535 80.896 61.0636 80.7576 61.0921 80.6234C61.1206 80.487 61.1633 80.3568 61.2244 80.2327C62.3169 78.0517 63.5803 75.9765 65.0146 74.0031C66.449 72.0296 68.0338 70.1884 69.7734 68.4753C71.5108 66.7623 73.3785 65.2038 75.3743 63.798C77.3702 62.3921 79.4678 61.1572 81.6671 60.0952C81.8624 60.0016 82.0699 59.9487 82.2896 59.9385C82.5073 59.9263 82.7189 59.9568 82.9244 60.0281C83.1299 60.1013 83.315 60.2112 83.4778 60.3556C83.6385 60.5021 83.7667 60.673 83.8623 60.8683C83.9559 61.0657 84.0088 61.2732 84.021 61.4909C84.0312 61.7065 84.0006 61.9181 83.9274 62.1236C83.8562 62.3291 83.7463 62.5122 83.5998 62.6749C83.4534 62.8377 83.2825 62.9638 83.0851 63.0595C81.0465 64.0381 79.1016 65.1794 77.2502 66.4795C75.3988 67.7775 73.6654 69.2199 72.052 70.8048C70.4407 72.3897 68.9677 74.0946 67.6351 75.9196C66.3045 77.7466 65.1306 79.6692 64.1174 81.6874C63.9811 81.96 63.7838 82.1797 63.5274 82.3425C63.2711 82.5073 62.9883 82.5948 62.6831 82.605Z" fill="#3C6A98"/>
<path d="M100.806 42.1367C100.149 42.1367 99.4914 42.1692 98.8342 42.2343C98.1791 42.2994 97.5281 42.395 96.8831 42.5232C96.2382 42.6514 95.5994 42.8121 94.9687 43.0034C94.338 43.1946 93.7195 43.4164 93.1112 43.6666C92.5028 43.9189 91.9088 44.1996 91.3269 44.5089C90.7471 44.8202 90.1835 45.1579 89.6362 45.5221C89.0889 45.8883 88.56 46.2789 88.0514 46.696C87.5427 47.1131 87.0544 47.5545 86.5906 48.0184C86.1247 48.4823 85.6832 48.9685 85.2661 49.4772C84.847 49.9858 84.4564 50.5127 84.0902 51.058C83.724 51.6052 83.3862 52.1668 83.077 52.7466C82.7657 53.3264 82.4849 53.9205 82.2347 54.5268C81.9824 55.1331 81.7607 55.7516 81.5694 56.3802C81.3782 57.0089 81.2195 57.6457 81.0913 58.2886C80.9631 58.9335 80.8675 59.5825 80.8024 60.2356C80.7373 60.8907 80.7068 61.5458 80.7068 62.203C80.7068 62.8581 80.7393 63.5132 80.8044 64.1663C80.8675 64.8214 80.9652 65.4704 81.0933 66.1133C81.2215 66.7582 81.3822 67.393 81.5735 68.0217C81.7647 68.6503 81.9865 69.2688 82.2388 69.8751C82.491 70.4814 82.7718 71.0734 83.0831 71.6533C83.3944 72.2331 83.7321 72.7946 84.0983 73.3399C84.4645 73.8871 84.8551 74.4141 85.2743 74.9207C85.6913 75.4293 86.1328 75.9155 86.5987 76.3794C87.0646 76.8433 87.5529 77.2827 88.0615 77.6998C88.5702 78.1169 89.0991 78.5075 89.6464 78.8717C90.1937 79.2359 90.7593 79.5736 91.3391 79.8828C91.921 80.1921 92.5151 80.4728 93.1234 80.7251C93.7317 80.9754 94.3522 81.1971 94.9809 81.3884C95.6116 81.5776 96.2504 81.7383 96.8953 81.8665C97.5423 81.9926 98.1934 82.0903 98.8485 82.1533C99.5036 82.2184 100.161 82.251 100.82 82.251C101.479 82.251 102.136 82.2184 102.791 82.1533C103.446 82.0882 104.097 81.9926 104.742 81.8644C105.389 81.7363 106.028 81.5776 106.659 81.3863C107.288 81.1951 107.908 80.9733 108.516 80.7231C109.125 80.4708 109.721 80.19 110.301 79.8808C110.883 79.5716 111.446 79.2338 111.993 78.8697C112.541 78.5034 113.07 78.1128 113.578 77.6957C114.089 77.2787 114.575 76.8392 115.041 76.3753C115.507 75.9094 115.948 75.4232 116.368 74.9166C116.785 74.408 117.177 73.881 117.544 73.3358C117.908 72.7885 118.247 72.227 118.557 71.6472C118.868 71.0673 119.149 70.4753 119.401 69.867C119.653 69.2607 119.875 68.6442 120.066 68.0156C120.258 67.3869 120.416 66.7501 120.546 66.1052C120.675 65.4623 120.77 64.8133 120.835 64.1581C120.9 63.5051 120.933 62.85 120.933 62.1928C120.931 61.5357 120.896 60.8806 120.831 60.2275C120.766 59.5744 120.669 58.9254 120.538 58.2805C120.41 57.6376 120.249 57.0008 120.056 56.3721C119.865 55.7455 119.643 55.127 119.389 54.5207C119.137 53.9144 118.854 53.3224 118.545 52.7425C118.233 52.1627 117.893 51.6012 117.527 51.0559C117.161 50.5086 116.768 49.9817 116.351 49.4751C115.932 48.9685 115.491 48.4823 115.025 48.0184C114.559 47.5525 114.073 47.1131 113.562 46.696C113.053 46.2789 112.524 45.8883 111.977 45.5241C111.43 45.1579 110.866 44.8222 110.284 44.5109C109.705 44.2017 109.108 43.9209 108.5 43.6686C107.892 43.4184 107.273 43.1966 106.643 43.0054C106.014 42.8141 105.375 42.6534 104.728 42.5252C104.083 42.3971 103.432 42.2994 102.777 42.2343C102.122 42.1692 101.465 42.1367 100.806 42.1367ZM107.774 57.1859C107.774 57.4036 107.731 57.6111 107.648 57.8125C107.564 58.0139 107.446 58.1909 107.292 58.3435C107.137 58.4981 106.96 58.6162 106.759 58.6996C106.557 58.783 106.348 58.8237 106.13 58.8237C105.912 58.8237 105.703 58.783 105.501 58.6996C105.3 58.6162 105.123 58.4981 104.968 58.3435C104.814 58.1909 104.696 58.0139 104.612 57.8125C104.529 57.6111 104.486 57.4036 104.486 57.1859V55.9916C104.488 55.8533 104.476 55.7149 104.449 55.5786C104.423 55.4403 104.382 55.308 104.329 55.1778C104.277 55.0497 104.211 54.9276 104.136 54.8096C104.059 54.6936 103.971 54.5858 103.872 54.4861C103.774 54.3884 103.668 54.2989 103.552 54.2216C103.436 54.1423 103.314 54.0772 103.184 54.0222C103.056 53.9673 102.924 53.9266 102.785 53.8981C102.649 53.8717 102.511 53.8574 102.37 53.8554H99.3347C99.1943 53.8574 99.056 53.8717 98.9176 53.8981C98.7813 53.9266 98.6471 53.9673 98.5189 54.0222C98.3887 54.0772 98.2666 54.1423 98.1506 54.2196C98.0326 54.2989 97.9268 54.3864 97.8271 54.4861C97.7295 54.5858 97.64 54.6936 97.5627 54.8096C97.4854 54.9256 97.4202 55.0476 97.3653 55.1778C97.3124 55.306 97.2717 55.4403 97.2453 55.5766C97.2188 55.7149 97.2046 55.8533 97.2046 55.9916V58.6141C97.2046 58.9051 97.288 59.1716 97.4528 59.4116C97.6196 59.6497 97.8394 59.8226 98.112 59.9264L104.224 60.9863C104.348 61.0047 104.466 61.0392 104.58 61.0921C105.048 61.2529 105.479 61.4828 105.876 61.7798C106.272 62.0748 106.614 62.4247 106.901 62.8296C107.186 63.2324 107.404 63.6699 107.554 64.1398C107.703 64.6118 107.776 65.094 107.774 65.5884V68.2109C107.772 68.5486 107.739 68.8843 107.674 69.2159C107.609 69.5475 107.513 69.871 107.387 70.1843C107.263 70.4977 107.109 70.7988 106.927 71.0836C106.744 71.3684 106.539 71.635 106.305 71.8811C106.073 72.1273 105.821 72.3491 105.546 72.5484C105.273 72.7478 104.983 72.9208 104.677 73.0652C104.37 73.2097 104.053 73.3236 103.725 73.409C103.398 73.4945 103.064 73.5494 102.726 73.5718V74.8841C102.726 75.0997 102.684 75.3093 102.6 75.5107C102.517 75.7101 102.399 75.8891 102.244 76.0417C102.089 76.1963 101.912 76.3143 101.711 76.3977C101.51 76.4811 101.3 76.5218 101.082 76.5218C100.865 76.5218 100.655 76.4811 100.454 76.3977C100.252 76.3143 100.075 76.1963 99.9207 76.0417C99.766 75.8891 99.648 75.7101 99.5646 75.5107C99.4812 75.3093 99.4385 75.0997 99.4385 74.8841V73.5718H99.3347C98.9787 73.5718 98.6267 73.5372 98.2788 73.468C97.9309 73.3989 97.5932 73.2971 97.2636 73.1629C96.936 73.0266 96.6248 72.8618 96.3298 72.6644C96.0327 72.4691 95.7601 72.2453 95.5098 71.9951C95.2576 71.7448 95.0338 71.4722 94.8344 71.1792C94.637 70.8842 94.4702 70.575 94.3339 70.2474C94.1976 69.9199 94.0938 69.5842 94.0247 69.2363C93.9535 68.8884 93.9189 68.5384 93.9189 68.1844V66.978C93.9189 66.7603 93.9596 66.5528 94.043 66.3513C94.1264 66.1499 94.2444 65.9729 94.399 65.8203C94.5536 65.6657 94.7306 65.5477 94.932 65.4643C95.1335 65.3809 95.343 65.3402 95.5607 65.3402C95.7784 65.3402 95.988 65.3809 96.1894 65.4643C96.3908 65.5477 96.5698 65.6657 96.7224 65.8203C96.877 65.9729 96.995 66.1499 97.0785 66.3513C97.1619 66.5528 97.2046 66.7603 97.2046 66.978V68.1844C97.2046 68.3228 97.2188 68.4611 97.2473 68.5974C97.2758 68.7337 97.3165 68.864 97.3694 68.9921C97.4243 69.1203 97.4894 69.2424 97.5667 69.3583C97.6461 69.4723 97.7336 69.5801 97.8333 69.6778C97.9309 69.7754 98.0387 69.8629 98.1547 69.9402C98.2707 70.0175 98.3927 70.0806 98.523 70.1335C98.6511 70.1884 98.7834 70.2271 98.9197 70.2535C99.056 70.282 99.1943 70.2942 99.3347 70.2942H102.37C102.509 70.2942 102.647 70.282 102.783 70.2535C102.92 70.2271 103.052 70.1864 103.18 70.1335C103.308 70.0806 103.43 70.0155 103.546 69.9402C103.662 69.8629 103.768 69.7754 103.868 69.6757C103.965 69.5781 104.053 69.4723 104.13 69.3563C104.207 69.2424 104.272 69.1203 104.325 68.9921C104.378 68.864 104.419 68.7317 104.445 68.5954C104.474 68.4611 104.486 68.3228 104.486 68.1844V65.562C104.486 65.4053 104.46 65.2527 104.409 65.1042C104.358 64.9577 104.285 64.8214 104.189 64.6953C104.095 64.5711 103.984 64.4633 103.855 64.3738C103.725 64.2843 103.587 64.2171 103.436 64.1724L97.3877 63.1368L97.1639 63.0717C96.6858 62.9232 96.2443 62.7035 95.8354 62.4125C95.4285 62.1216 95.0785 61.7757 94.7835 61.3709C94.4885 60.968 94.2647 60.5266 94.1121 60.0505C93.9596 59.5764 93.8863 59.0882 93.8924 58.5877V55.9672C93.8965 55.6132 93.9351 55.2653 94.0104 54.9195C94.0837 54.5736 94.1895 54.2399 94.3278 53.9164C94.4682 53.5909 94.637 53.2837 94.8364 52.9928C95.0358 52.6998 95.2616 52.4313 95.5139 52.183C95.7662 51.9369 96.0409 51.7151 96.3359 51.5218C96.6309 51.3286 96.9421 51.1638 97.2697 51.0315C97.5973 50.8993 97.935 50.7975 98.2829 50.7304C98.6287 50.6633 98.9807 50.6307 99.3347 50.6307H99.4914V49.5301C99.4914 49.3124 99.5341 49.1028 99.6175 48.9034C99.7009 48.702 99.8189 48.525 99.9736 48.3704C100.126 48.2178 100.305 48.0998 100.507 48.0164C100.708 47.933 100.918 47.8902 101.135 47.8902C101.353 47.8902 101.563 47.933 101.764 48.0164C101.965 48.0998 102.142 48.2178 102.297 48.3704C102.452 48.525 102.57 48.702 102.653 48.9034C102.736 49.1028 102.777 49.3124 102.777 49.5301V50.6307C103.117 50.6531 103.451 50.708 103.778 50.7935C104.108 50.8789 104.425 50.9949 104.732 51.1393C105.039 51.2858 105.328 51.4567 105.603 51.6561C105.878 51.8575 106.13 52.0793 106.364 52.3275C106.596 52.5737 106.801 52.8402 106.984 53.1271C107.166 53.4139 107.32 53.713 107.444 54.0283C107.57 54.3437 107.664 54.6672 107.729 54.9988C107.792 55.3325 107.825 55.6661 107.827 56.0059L107.774 57.1859Z" fill="#4C91D4"/>
<path d="M100.806 117.633C100.149 117.633 99.4914 117.666 98.8342 117.731C98.1791 117.796 97.5281 117.891 96.8831 118.022C96.2382 118.15 95.5994 118.309 94.9687 118.5C94.338 118.691 93.7195 118.913 93.1112 119.165C92.5028 119.415 91.9088 119.696 91.3269 120.007C90.7471 120.317 90.1835 120.654 89.6362 121.021C89.0889 121.385 88.56 121.775 88.0514 122.192C87.5427 122.609 87.0544 123.051 86.5906 123.515C86.1247 123.981 85.6832 124.467 85.2661 124.974C84.847 125.482 84.4564 126.009 84.0902 126.556C83.724 127.102 83.3862 127.665 83.077 128.245C82.7657 128.823 82.4849 129.417 82.2347 130.023C81.9824 130.632 81.7607 131.248 81.5694 131.877C81.3782 132.505 81.2195 133.142 81.0913 133.787C80.9631 134.43 80.8675 135.079 80.8024 135.734C80.7373 136.387 80.7068 137.042 80.7068 137.699C80.7068 138.357 80.7393 139.012 80.8044 139.665C80.8675 140.318 80.9652 140.967 81.0933 141.61C81.2215 142.255 81.3822 142.891 81.5735 143.52C81.7647 144.147 81.9865 144.765 82.2388 145.372C82.491 145.978 82.7718 146.572 83.0831 147.15C83.3944 147.729 83.7321 148.291 84.0983 148.838C84.4645 149.384 84.8551 149.91 85.2743 150.419C85.6913 150.926 86.1328 151.412 86.5987 151.876C87.0646 152.34 87.5529 152.781 88.0615 153.196C88.5702 153.613 89.0991 154.004 89.6464 154.37C90.1937 154.734 90.7593 155.072 91.3391 155.381C91.921 155.691 92.5151 155.971 93.1234 156.222C93.7317 156.474 94.3522 156.694 94.9809 156.885C95.6116 157.076 96.2504 157.235 96.8953 157.363C97.5423 157.491 98.1934 157.587 98.8485 157.652C99.5036 157.715 100.161 157.747 100.82 157.747C101.479 157.747 102.136 157.715 102.791 157.652C103.446 157.587 104.097 157.489 104.742 157.361C105.389 157.233 106.028 157.074 106.659 156.883C107.288 156.691 107.908 156.472 108.516 156.219C109.125 155.969 109.721 155.688 110.301 155.377C110.883 155.068 111.446 154.73 111.993 154.366C112.541 154.002 113.07 153.609 113.578 153.194C114.089 152.777 114.575 152.336 115.041 151.872C115.507 151.408 115.948 150.922 116.368 150.413C116.785 149.904 117.177 149.377 117.544 148.832C117.908 148.287 118.247 147.723 118.557 147.144C118.868 146.566 119.149 145.972 119.401 145.365C119.653 144.759 119.875 144.141 120.066 143.512C120.258 142.883 120.416 142.247 120.546 141.604C120.675 140.959 120.77 140.31 120.835 139.657C120.9 139.001 120.933 138.346 120.933 137.691C120.931 137.034 120.898 136.379 120.833 135.724C120.768 135.071 120.671 134.422 120.54 133.777C120.412 133.134 120.251 132.497 120.06 131.868C119.867 131.24 119.645 130.623 119.393 130.015C119.141 129.409 118.858 128.817 118.549 128.237C118.237 127.657 117.898 127.096 117.531 126.548C117.165 126.003 116.772 125.476 116.355 124.969C115.936 124.461 115.495 123.975 115.029 123.511C114.563 123.047 114.075 122.605 113.566 122.188C113.057 121.773 112.528 121.383 111.981 121.016C111.432 120.652 110.868 120.315 110.286 120.005C109.707 119.696 109.113 119.415 108.502 119.163C107.894 118.911 107.275 118.691 106.645 118.5C106.014 118.309 105.375 118.15 104.73 118.02C104.083 117.891 103.434 117.796 102.777 117.731C102.122 117.666 101.465 117.633 100.806 117.633ZM106.59 136.983C106.807 136.983 107.017 137.024 107.218 137.107C107.42 137.191 107.599 137.309 107.751 137.463C107.906 137.616 108.024 137.793 108.108 137.994C108.191 138.194 108.234 138.403 108.234 138.621C108.234 138.839 108.191 139.048 108.108 139.248C108.024 139.449 107.906 139.626 107.751 139.781C107.599 139.933 107.42 140.051 107.218 140.135C107.017 140.218 106.807 140.259 106.59 140.259H102.488V143.288H106.59C106.807 143.288 107.017 143.329 107.218 143.412C107.42 143.496 107.599 143.614 107.751 143.768C107.906 143.921 108.024 144.098 108.108 144.299C108.191 144.501 108.234 144.71 108.234 144.926C108.234 145.144 108.191 145.353 108.108 145.555C108.024 145.754 107.906 145.931 107.751 146.086C107.599 146.238 107.42 146.358 107.218 146.442C107.017 146.523 106.807 146.566 106.59 146.566H102.488V148.454C102.488 148.671 102.448 148.879 102.364 149.08C102.281 149.282 102.161 149.459 102.008 149.611C101.853 149.766 101.676 149.884 101.475 149.967C101.274 150.051 101.064 150.092 100.846 150.092C100.629 150.092 100.419 150.051 100.218 149.967C100.016 149.884 99.8372 149.766 99.6847 149.611C99.53 149.459 99.41 149.282 99.3266 149.08C99.2432 148.879 99.2025 148.671 99.2025 148.454V146.566H95.1152C94.8954 146.566 94.6859 146.523 94.4845 146.442C94.283 146.358 94.106 146.238 93.9514 146.086C93.7988 145.931 93.6788 145.754 93.5954 145.555C93.512 145.353 93.4713 145.144 93.4713 144.926C93.4713 144.71 93.512 144.501 93.5954 144.299C93.6788 144.098 93.7988 143.921 93.9514 143.768C94.106 143.614 94.283 143.496 94.4845 143.412C94.6859 143.329 94.8954 143.288 95.1152 143.288H99.2025V140.259H95.1152C94.8954 140.259 94.6859 140.218 94.4845 140.135C94.283 140.051 94.106 139.933 93.9514 139.781C93.7988 139.626 93.6788 139.449 93.5954 139.248C93.512 139.048 93.4713 138.839 93.4713 138.621C93.4713 138.403 93.512 138.196 93.5954 137.994C93.6788 137.793 93.7988 137.616 93.9514 137.463C94.106 137.309 94.283 137.191 94.4845 137.107C94.6859 137.024 94.8954 136.983 95.1152 136.983H98.1771L93.6015 129.116C93.4937 128.929 93.4245 128.725 93.396 128.51C93.3695 128.294 93.3838 128.082 93.4408 127.871C93.4957 127.661 93.5913 127.47 93.7236 127.297C93.8578 127.126 94.0186 126.984 94.2078 126.876C94.397 126.768 94.5984 126.699 94.8161 126.67C95.0317 126.642 95.2454 126.656 95.457 126.713C95.6665 126.77 95.8598 126.864 96.0327 126.996C96.2056 127.13 96.346 127.289 96.4559 127.478L100.806 135.042L105.21 127.439C105.326 127.264 105.469 127.118 105.642 126.998C105.813 126.878 106 126.794 106.205 126.748C106.409 126.699 106.614 126.691 106.822 126.721C107.029 126.752 107.222 126.819 107.404 126.925C107.585 127.028 107.741 127.163 107.872 127.327C108 127.49 108.095 127.673 108.156 127.873C108.215 128.072 108.236 128.278 108.217 128.485C108.199 128.693 108.144 128.89 108.049 129.077L103.475 136.943L106.59 136.983Z" fill="#FDD04C"/>
<path d="M62.6831 79.8788C62.0239 79.8767 61.3668 79.9093 60.7117 79.9723C60.0545 80.0374 59.4035 80.1331 58.7565 80.2612C58.1096 80.3894 57.4707 80.5481 56.84 80.7393C56.2093 80.9286 55.5888 81.1503 54.9805 81.4006C54.3701 81.6528 53.7761 81.9336 53.1942 82.2428C52.6123 82.5521 52.0467 82.8898 51.4995 83.254C50.9501 83.6182 50.4212 84.0088 49.9125 84.4259C49.4019 84.8429 48.9136 85.2844 48.4477 85.7483C47.9818 86.2142 47.5383 86.7004 47.1192 87.207C46.7021 87.7157 46.3094 88.2426 45.9432 88.7899C45.575 89.3351 45.2372 89.8987 44.926 90.4785C44.6147 91.0584 44.3339 91.6504 44.0796 92.2587C43.8273 92.865 43.6056 93.4835 43.4143 94.1122C43.2231 94.7428 43.0624 95.3796 42.9342 96.0246C42.804 96.6675 42.7084 97.3185 42.6432 97.9716C42.5781 98.6267 42.5456 99.2818 42.5456 99.939C42.5456 100.598 42.5761 101.253 42.6412 101.908C42.7063 102.561 42.8019 103.212 42.9301 103.857C43.0583 104.502 43.219 105.139 43.4103 105.768C43.6015 106.396 43.8233 107.015 44.0755 107.623C44.3278 108.232 44.6086 108.824 44.9199 109.406C45.2311 109.985 45.5689 110.549 45.9351 111.094C46.3013 111.641 46.6939 112.168 47.111 112.677C47.5301 113.186 47.9716 113.672 48.4375 114.138C48.9034 114.602 49.3917 115.043 49.9024 115.46C50.411 115.877 50.94 116.27 51.4872 116.634C52.0366 117 52.6001 117.338 53.182 117.647C53.7639 117.959 54.3579 118.239 54.9683 118.49C55.5766 118.742 56.1971 118.964 56.8278 119.155C57.4585 119.346 58.0974 119.505 58.7443 119.633C59.3913 119.761 60.0423 119.857 60.6975 119.922C61.3546 119.987 62.0117 120.02 62.6709 120.02C63.3301 120.02 63.9872 119.987 64.6424 119.922C65.2995 119.859 65.9505 119.761 66.5975 119.633C67.2425 119.507 67.8813 119.346 68.512 119.155C69.1427 118.966 69.7632 118.744 70.3715 118.492C70.9819 118.241 71.576 117.961 72.1578 117.651C72.7397 117.34 73.3032 117.002 73.8526 116.638C74.3998 116.272 74.9288 115.881 75.4374 115.464C75.9481 115.047 76.4364 114.606 76.9023 114.142C77.3682 113.678 77.8097 113.19 78.2288 112.683C78.6459 112.174 79.0385 111.648 79.4047 111.1C79.7709 110.553 80.1087 109.991 80.4199 109.412C80.7312 108.832 81.012 108.238 81.2643 107.629C81.5165 107.023 81.7383 106.405 81.9295 105.776C82.1208 105.145 82.2815 104.508 82.4097 103.864C82.5379 103.221 82.6355 102.57 82.7006 101.917C82.7637 101.261 82.7962 100.606 82.7962 99.9491C82.7962 99.292 82.7637 98.6369 82.6966 97.9818C82.6315 97.3287 82.5358 96.6797 82.4056 96.0368C82.2774 95.3919 82.1167 94.7551 81.9255 94.1284C81.7342 93.4998 81.5104 92.8813 81.2582 92.275C81.0059 91.6687 80.7251 91.0746 80.4138 90.4968C80.1046 89.917 79.7648 89.3534 79.3986 88.8082C79.0344 88.2629 78.6418 87.736 78.2247 87.2274C77.8056 86.7188 77.3641 86.2325 76.8982 85.7686C76.4343 85.3048 75.9461 84.8633 75.4374 84.4462C74.9288 84.0291 74.3998 83.6385 73.8526 83.2723C73.3053 82.9081 72.7417 82.5704 72.1599 82.2591C71.58 81.9499 70.9859 81.6691 70.3776 81.4168C69.7693 81.1646 69.1508 80.9428 68.5201 80.7516C67.8894 80.5603 67.2526 80.3996 66.6057 80.2694C65.9607 80.1412 65.3097 80.0435 64.6546 79.9784C63.9995 79.9133 63.3423 79.8788 62.6831 79.8788ZM67.745 95.5302C67.9627 95.5302 68.1722 95.5729 68.3736 95.6543C68.5751 95.7377 68.7521 95.8578 68.9067 96.0103C69.0613 96.165 69.1793 96.342 69.2627 96.5414C69.3461 96.7428 69.3889 96.9523 69.3889 97.17C69.3889 97.3857 69.3461 97.5952 69.2627 97.7966C69.1793 97.996 69.0613 98.1751 68.9067 98.3276C68.7521 98.4823 68.5751 98.6003 68.3736 98.6837C68.1722 98.7671 67.9627 98.8078 67.745 98.8078H57.5175C57.4117 99.5646 57.4117 100.319 57.5175 101.076H67.7185C67.9362 101.076 68.1458 101.117 68.3472 101.2C68.5486 101.284 68.7256 101.402 68.8802 101.556C69.0349 101.709 69.1529 101.886 69.2363 102.087C69.3197 102.289 69.3624 102.496 69.3624 102.714C69.3624 102.932 69.3197 103.141 69.2363 103.341C69.1529 103.542 69.0349 103.719 68.8802 103.874C68.7256 104.026 68.5486 104.144 68.3472 104.228C68.1458 104.311 67.9362 104.354 67.7185 104.354H58.6345C58.9702 104.946 59.375 105.485 59.8511 105.971C60.3272 106.458 60.8582 106.875 61.4441 107.22C62.0301 107.568 62.6506 107.835 63.3077 108.02C63.9628 108.205 64.6322 108.303 65.3137 108.313C66.4938 108.315 67.6107 108.053 68.6646 107.526C68.8599 107.43 69.0654 107.377 69.2831 107.363C69.4987 107.351 69.7103 107.379 69.9158 107.448C70.1213 107.518 70.3044 107.623 70.4671 107.766C70.6299 107.91 70.7601 108.077 70.8578 108.272C70.9534 108.466 71.0083 108.669 71.0246 108.887C71.0388 109.102 71.0124 109.312 70.9432 109.517C70.874 109.723 70.7703 109.906 70.6279 110.071C70.4855 110.234 70.3186 110.364 70.1253 110.461C68.6096 111.216 67.0065 111.593 65.3137 111.589C64.7543 111.58 64.1988 111.532 63.6475 111.44C63.0961 111.351 62.555 111.218 62.0219 111.047C61.4909 110.876 60.9741 110.665 60.4757 110.417C59.9752 110.168 59.4951 109.886 59.0373 109.566C58.5795 109.247 58.1482 108.895 57.7433 108.51C57.3364 108.128 56.9621 107.715 56.6183 107.275C56.2744 106.836 55.9652 106.374 55.6905 105.888C55.4159 105.404 55.1799 104.899 54.9805 104.38H52.4699C52.2522 104.38 52.0427 104.338 51.8412 104.254C51.6398 104.171 51.4628 104.053 51.3082 103.9C51.1536 103.746 51.0356 103.569 50.9522 103.367C50.8688 103.168 50.826 102.958 50.826 102.74C50.826 102.523 50.8688 102.315 50.9522 102.114C51.0356 101.912 51.1536 101.735 51.3082 101.583C51.4628 101.428 51.6398 101.31 51.8412 101.227C52.0427 101.143 52.2522 101.103 52.4699 101.103H54.2053C54.1341 100.346 54.1341 99.589 54.2053 98.8342H52.4699C52.2522 98.8342 52.0427 98.7915 51.8412 98.7101C51.6398 98.6267 51.4628 98.5087 51.3082 98.3541C51.1536 98.1995 51.0356 98.0225 50.9522 97.8231C50.8688 97.6217 50.826 97.4121 50.826 97.1944C50.826 96.9788 50.8688 96.7692 50.9522 96.5678C51.0356 96.3684 51.1536 96.1894 51.3082 96.0368C51.4628 95.8822 51.6398 95.7642 51.8412 95.6808C52.0427 95.5973 52.2522 95.5566 52.4699 95.5566H54.9805C55.1778 95.0338 55.4118 94.5272 55.6844 94.0389C55.9571 93.5486 56.2643 93.0827 56.6081 92.6412C56.9499 92.1977 57.3242 91.7826 57.7291 91.3961C58.134 91.0095 58.5653 90.6535 59.0231 90.332C59.4808 90.0086 59.961 89.7217 60.4614 89.4714C60.964 89.2212 61.4807 89.0076 62.0138 88.8346C62.5468 88.6597 63.09 88.5274 63.6434 88.4338C64.1948 88.3423 64.7522 88.2914 65.3137 88.2813C67.041 88.2772 68.6768 88.6658 70.2169 89.447C70.4122 89.5447 70.5811 89.6769 70.7235 89.8417C70.8679 90.0065 70.9737 90.1917 71.0429 90.3992C71.11 90.6067 71.1365 90.8183 71.1202 91.036C71.1039 91.2537 71.047 91.4592 70.9473 91.6545C70.8496 91.8498 70.7154 92.0166 70.5506 92.159C70.3837 92.3014 70.1966 92.4052 69.989 92.4723C69.7815 92.5395 69.5679 92.5639 69.3502 92.5476C69.1325 92.5293 68.925 92.4703 68.7317 92.3706C67.6575 91.8274 66.5182 91.5568 65.3137 91.5588C64.6301 91.565 63.9588 91.6585 63.2996 91.8396C62.6404 92.0207 62.0178 92.2852 61.4278 92.629C60.8378 92.9749 60.3028 93.3899 59.8226 93.8741C59.3425 94.3604 58.9335 94.8995 58.5958 95.4915L67.745 95.5302Z" fill="#FF6D55"/>
<path d="M139.046 79.8788C138.387 79.8767 137.73 79.9093 137.075 79.9723C136.418 80.0374 135.767 80.1331 135.12 80.2612C134.473 80.3894 133.834 80.5481 133.203 80.7393C132.572 80.9286 131.952 81.1503 131.344 81.4006C130.733 81.6528 130.139 81.9336 129.557 82.2428C128.975 82.5521 128.41 82.8898 127.863 83.254C127.313 83.6182 126.784 84.0088 126.274 84.4259C125.765 84.8429 125.277 85.2844 124.811 85.7483C124.343 86.2142 123.901 86.7004 123.482 87.207C123.065 87.7157 122.673 88.2426 122.306 88.7899C121.938 89.3351 121.6 89.8987 121.289 90.4785C120.978 91.0584 120.697 91.6504 120.443 92.2587C120.19 92.865 119.969 93.4835 119.777 94.1122C119.586 94.7428 119.425 95.3796 119.297 96.0246C119.167 96.6675 119.071 97.3185 119.006 97.9716C118.941 98.6267 118.909 99.2818 118.909 99.939C118.907 100.598 118.939 101.253 119.004 101.908C119.069 102.561 119.165 103.212 119.293 103.857C119.421 104.502 119.582 105.139 119.773 105.768C119.965 106.396 120.186 107.015 120.439 107.623C120.691 108.232 120.972 108.824 121.283 109.406C121.594 109.985 121.932 110.549 122.298 111.094C122.664 111.641 123.057 112.168 123.474 112.677C123.893 113.186 124.335 113.672 124.801 114.138C125.267 114.602 125.755 115.043 126.265 115.46C126.774 115.877 127.303 116.27 127.85 116.634C128.4 117 128.963 117.338 129.545 117.647C130.127 117.959 130.721 118.239 131.331 118.49C131.94 118.742 132.56 118.964 133.191 119.155C133.822 119.346 134.46 119.505 135.107 119.633C135.752 119.761 136.405 119.857 137.061 119.922C137.718 119.987 138.375 120.02 139.034 120.02C139.693 120.02 140.35 119.987 141.005 119.922C141.663 119.859 142.314 119.761 142.961 119.633C143.606 119.507 144.244 119.346 144.875 119.155C145.506 118.966 146.126 118.744 146.735 118.492C147.345 118.241 147.939 117.961 148.521 117.651C149.103 117.34 149.666 117.002 150.216 116.638C150.763 116.272 151.292 115.881 151.801 115.464C152.311 115.047 152.799 114.606 153.265 114.142C153.731 113.678 154.173 113.19 154.592 112.683C155.009 112.174 155.402 111.648 155.768 111.1C156.134 110.553 156.472 109.991 156.783 109.412C157.094 108.832 157.375 108.238 157.627 107.629C157.88 107.023 158.101 106.405 158.293 105.776C158.484 105.145 158.645 104.508 158.773 103.864C158.901 103.221 158.999 102.57 159.064 101.917C159.127 101.261 159.159 100.606 159.159 99.9491C159.159 99.292 159.127 98.6369 159.062 97.9818C158.997 97.3287 158.899 96.6797 158.771 96.0348C158.643 95.3919 158.482 94.7551 158.291 94.1264C158.099 93.4977 157.878 92.8792 157.625 92.273C157.373 91.6667 157.092 91.0726 156.781 90.4928C156.47 89.915 156.132 89.3514 155.766 88.8041C155.4 88.2589 155.009 87.7319 154.592 87.2233C154.173 86.7167 153.731 86.2305 153.265 85.7646C152.799 85.3007 152.313 84.8592 151.805 84.4421C151.294 84.0251 150.767 83.6344 150.22 83.2682C149.67 82.9041 149.107 82.5663 148.527 82.2551C147.945 81.9458 147.351 81.665 146.743 81.4128C146.134 81.1605 145.514 80.9387 144.885 80.7475C144.255 80.5562 143.616 80.3976 142.971 80.2673C142.324 80.1392 141.673 80.0415 141.018 79.9764C140.363 79.9113 139.705 79.8788 139.046 79.8788ZM144.594 111.682H135.077C134.778 111.68 134.499 111.605 134.241 111.452C133.982 111.302 133.781 111.094 133.634 110.834C133.488 110.573 133.419 110.293 133.425 109.993C133.431 109.694 133.512 109.42 133.671 109.163C135.114 106.989 136.108 104.624 136.654 102.071H132.646C132.428 102.071 132.218 102.03 132.017 101.947C131.816 101.864 131.637 101.746 131.484 101.593C131.329 101.438 131.209 101.261 131.126 101.06C131.042 100.861 131.002 100.651 131.002 100.433C131.002 100.216 131.042 100.006 131.126 99.8067C131.209 99.6053 131.329 99.4283 131.484 99.2737C131.637 99.1211 131.816 99.0031 132.017 98.9197C132.218 98.8363 132.428 98.7956 132.646 98.7956H134.985C134.084 97.5566 133.563 96.1751 133.421 94.6513C133.38 94.1671 133.394 93.6808 133.466 93.1987C133.535 92.7165 133.659 92.2485 133.836 91.7928C134.015 91.3391 134.241 90.9098 134.517 90.507C134.794 90.1042 135.111 89.738 135.472 89.4084C138.336 86.8775 142.977 87.5346 143.504 87.6261C143.703 87.675 143.888 87.7584 144.057 87.8764C144.228 87.9944 144.368 88.1409 144.482 88.3118C144.596 88.4847 144.676 88.6719 144.72 88.8733C144.763 89.0747 144.767 89.2761 144.735 89.4796C144.702 89.683 144.633 89.8743 144.527 90.0513C144.421 90.2283 144.287 90.3809 144.124 90.509C143.962 90.6352 143.783 90.7288 143.583 90.7878C143.386 90.8468 143.184 90.8671 142.977 90.8508C141.992 90.7064 139.034 90.5884 137.72 91.86C137.36 92.214 137.095 92.629 136.928 93.1071C136.764 93.5832 136.711 94.0735 136.772 94.574C137.081 96.1365 137.799 97.4833 138.928 98.6104L139.06 98.7956H143.701C143.919 98.7956 144.128 98.8363 144.33 98.9197C144.531 99.0031 144.708 99.1211 144.863 99.2737C145.015 99.4283 145.135 99.6053 145.219 99.8067C145.302 100.006 145.343 100.216 145.343 100.433C145.343 100.651 145.302 100.861 145.219 101.06C145.135 101.261 145.015 101.438 144.863 101.593C144.708 101.746 144.531 101.864 144.33 101.947C144.128 102.03 143.919 102.071 143.701 102.071H139.889C139.614 104.313 138.934 106.423 137.85 108.405H144.541C144.759 108.405 144.969 108.445 145.17 108.529C145.372 108.612 145.551 108.73 145.703 108.885C145.858 109.037 145.976 109.214 146.059 109.416C146.143 109.617 146.185 109.825 146.185 110.042C146.185 110.26 146.143 110.47 146.059 110.669C145.976 110.87 145.858 111.047 145.703 111.202C145.551 111.355 145.372 111.473 145.17 111.556C144.969 111.639 144.759 111.682 144.541 111.682H144.594Z" fill="#3C6A98"/>
</svg>
