<svg width="200" height="200" viewBox="0 0 200 200" fill="none" xmlns="http://www.w3.org/2000/svg">
<path d="M130.237 83.5856C117.391 73.9746 113.796 67.1794 108.315 67.1794C102.834 67.1794 102.834 69.9138 100.094 69.9138C97.3552 69.9138 97.3552 67.1794 91.8742 67.1794C86.3932 67.1794 82.7962 73.9746 69.9524 83.5856C58.9925 91.7888 50.7711 91.7888 50.7711 97.2575C50.7711 102.726 64.4735 113.664 72.6929 121.867C78.1738 127.336 86.3932 132.804 100.094 132.804C113.796 132.804 122.015 127.336 127.496 121.867C135.716 113.664 149.416 102.726 149.416 97.2575C149.416 91.7888 141.197 91.7888 130.237 83.5856Z" fill="#E75A70"/>
<path d="M128.562 93.1559C116.435 89.15 108.315 87.4614 100.094 87.4614C91.8742 87.4614 83.7586 89.15 71.6268 93.1559C61.2752 96.5739 53.5116 94.9809 53.5116 97.2575C53.5116 99.5382 78.1738 110.929 100.094 110.929C122.015 110.929 146.676 99.5382 146.676 97.2575C146.676 94.9809 138.912 96.5739 128.562 93.1559Z" fill="#662113"/>
<path d="M128.562 93.1559C116.435 89.15 108.315 87.4614 100.094 87.4614C91.8742 87.4614 83.7585 89.15 71.6268 93.1559C61.6964 96.4356 54.1707 95.1111 53.5706 97.0073C60.2946 98.0591 78.5563 95.2454 100.094 95.2454C121.631 95.2454 139.893 98.0591 146.619 97.0073C146.018 95.1111 138.489 96.4356 128.562 93.1559Z" fill="white"/>
</svg>
