<svg xmlns="http://www.w3.org/2000/svg" xmlns:xlink="http://www.w3.org/1999/xlink" width="512" zoomAndPan="magnify" viewBox="0 0 384 383.999986" height="512" preserveAspectRatio="xMidYMid meet" version="1.0"><defs><clipPath id="0bcd2f014a"><path d="M 122.609375 72.617188 L 255 72.617188 L 255 311.113281 L 122.609375 311.113281 Z M 122.609375 72.617188 " clip-rule="nonzero"/></clipPath><clipPath id="3c186980bd"><path d="M 251 101 L 261.359375 101 L 261.359375 128 L 251 128 Z M 251 101 " clip-rule="nonzero"/></clipPath></defs><path fill="#e3e3e4" d="M 232.304688 307.890625 L 145.207031 307.890625 C 134.515625 307.890625 125.851562 299.234375 125.851562 288.554688 L 125.851562 95.175781 C 125.851562 84.496094 134.515625 75.839844 145.207031 75.839844 L 232.304688 75.839844 C 242.996094 75.839844 251.660156 84.496094 251.660156 95.175781 L 251.660156 288.554688 C 251.660156 299.234375 242.996094 307.890625 232.304688 307.890625 Z M 232.304688 307.890625 " fill-opacity="1" fill-rule="nonzero"/><path fill="#4a5397" d="M 237.144531 269.214844 L 140.367188 269.214844 C 139.476562 269.214844 138.753906 268.496094 138.753906 267.605469 L 138.753906 103.234375 C 138.753906 102.34375 139.476562 101.621094 140.367188 101.621094 L 237.144531 101.621094 C 238.035156 101.621094 238.757812 102.34375 238.757812 103.234375 L 238.757812 267.605469 C 238.757812 268.496094 238.035156 269.214844 237.144531 269.214844 Z M 237.144531 269.214844 " fill-opacity="1" fill-rule="nonzero"/><path fill="#8f9eb6" d="M 198.433594 286.941406 C 198.433594 287.578125 198.371094 288.207031 198.25 288.828125 C 198.125 289.453125 197.941406 290.054688 197.699219 290.644531 C 197.453125 291.230469 197.15625 291.785156 196.804688 292.316406 C 196.449219 292.84375 196.050781 293.332031 195.601562 293.78125 C 195.152344 294.230469 194.660156 294.628906 194.132812 294.980469 C 193.605469 295.335938 193.046875 295.632812 192.460938 295.875 C 191.875 296.117188 191.269531 296.300781 190.644531 296.425781 C 190.019531 296.550781 189.390625 296.613281 188.757812 296.613281 C 188.121094 296.613281 187.492188 296.550781 186.867188 296.425781 C 186.246094 296.300781 185.640625 296.117188 185.054688 295.875 C 184.464844 295.632812 183.910156 295.335938 183.378906 294.980469 C 182.851562 294.628906 182.363281 294.230469 181.914062 293.78125 C 181.464844 293.332031 181.0625 292.84375 180.710938 292.316406 C 180.355469 291.785156 180.058594 291.230469 179.816406 290.644531 C 179.574219 290.054688 179.390625 289.453125 179.265625 288.828125 C 179.140625 288.207031 179.078125 287.578125 179.078125 286.941406 C 179.078125 286.308594 179.140625 285.679688 179.265625 285.054688 C 179.390625 284.433594 179.574219 283.828125 179.816406 283.242188 C 180.058594 282.65625 180.355469 282.097656 180.710938 281.570312 C 181.0625 281.042969 181.464844 280.554688 181.914062 280.105469 C 182.363281 279.65625 182.851562 279.257812 183.378906 278.902344 C 183.910156 278.550781 184.464844 278.253906 185.054688 278.011719 C 185.640625 277.765625 186.246094 277.582031 186.867188 277.460938 C 187.492188 277.335938 188.121094 277.273438 188.757812 277.273438 C 189.390625 277.273438 190.019531 277.335938 190.644531 277.460938 C 191.269531 277.582031 191.875 277.765625 192.460938 278.011719 C 193.046875 278.253906 193.605469 278.550781 194.132812 278.902344 C 194.660156 279.257812 195.152344 279.65625 195.601562 280.105469 C 196.050781 280.554688 196.449219 281.042969 196.804688 281.570312 C 197.15625 282.097656 197.453125 282.65625 197.699219 283.242188 C 197.941406 283.828125 198.125 284.433594 198.25 285.054688 C 198.371094 285.679688 198.433594 286.308594 198.433594 286.941406 Z M 198.433594 286.941406 " fill-opacity="1" fill-rule="nonzero"/><path fill="#ffffff" d="M 141.980469 174.140625 L 153.273438 170.914062 L 166.175781 187.03125 L 185.53125 177.363281 L 179.078125 161.246094 L 221.015625 141.910156 L 188.757812 164.46875 L 198.433594 183.808594 L 172.628906 196.699219 L 182.304688 209.589844 L 227.46875 209.589844 L 179.078125 219.261719 L 153.273438 190.253906 L 140.367188 193.476562 " fill-opacity="1" fill-rule="nonzero"/><g clip-path="url(#0bcd2f014a)"><path fill="#1f212b" d="M 232.304688 311.113281 L 145.207031 311.113281 C 132.753906 311.113281 122.625 300.996094 122.625 288.554688 L 122.625 95.175781 C 122.625 82.734375 132.753906 72.617188 145.207031 72.617188 L 232.304688 72.617188 C 244.757812 72.617188 254.886719 82.734375 254.886719 95.175781 L 254.886719 288.554688 C 254.886719 300.996094 244.757812 311.113281 232.304688 311.113281 Z M 145.207031 79.0625 C 136.3125 79.0625 129.078125 86.289062 129.078125 95.175781 L 129.078125 288.554688 C 129.078125 297.441406 136.3125 304.667969 145.207031 304.667969 L 232.304688 304.667969 C 241.199219 304.667969 248.4375 297.441406 248.4375 288.554688 L 248.4375 95.175781 C 248.4375 86.289062 241.199219 79.0625 232.304688 79.0625 Z M 145.207031 79.0625 " fill-opacity="1" fill-rule="nonzero"/></g><path fill="#1f212b" d="M 201.65625 91.953125 L 175.851562 91.953125 C 174.960938 91.953125 174.238281 91.230469 174.238281 90.339844 C 174.238281 89.453125 174.960938 88.730469 175.851562 88.730469 L 201.65625 88.730469 C 202.546875 88.730469 203.269531 89.453125 203.269531 90.339844 C 203.269531 91.230469 202.546875 91.953125 201.65625 91.953125 Z M 201.65625 91.953125 " fill-opacity="1" fill-rule="nonzero"/><path fill="#1f212b" d="M 188.757812 298.222656 C 182.53125 298.222656 177.464844 293.164062 177.464844 286.941406 C 177.464844 280.722656 182.53125 275.664062 188.757812 275.664062 C 194.984375 275.664062 200.046875 280.722656 200.046875 286.941406 C 200.046875 293.164062 194.984375 298.222656 188.757812 298.222656 Z M 188.757812 278.886719 C 184.3125 278.886719 180.691406 282.5 180.691406 286.941406 C 180.691406 291.382812 184.3125 295 188.757812 295 C 193.203125 295 196.820312 291.382812 196.820312 286.941406 C 196.820312 282.5 193.203125 278.886719 188.757812 278.886719 Z M 188.757812 278.886719 " fill-opacity="1" fill-rule="nonzero"/><path fill="#8f9eb6" d="M 256.5 125.792969 L 253.273438 125.792969 L 253.273438 103.234375 L 256.5 103.234375 C 258.28125 103.234375 259.726562 104.675781 259.726562 106.457031 L 259.726562 122.570312 C 259.726562 124.351562 258.28125 125.792969 256.5 125.792969 Z M 256.5 125.792969 " fill-opacity="1" fill-rule="nonzero"/><g clip-path="url(#3c186980bd)"><path fill="#1f212b" d="M 256.5 127.40625 L 253.273438 127.40625 C 252.382812 127.40625 251.660156 126.683594 251.660156 125.792969 L 251.660156 103.234375 C 251.660156 102.34375 252.382812 101.621094 253.273438 101.621094 L 256.5 101.621094 C 259.167969 101.621094 261.339844 103.792969 261.339844 106.457031 L 261.339844 122.570312 C 261.339844 125.238281 259.167969 127.40625 256.5 127.40625 Z M 254.886719 124.183594 L 256.5 124.183594 C 257.390625 124.183594 258.113281 123.460938 258.113281 122.570312 L 258.113281 106.457031 C 258.113281 105.566406 257.390625 104.84375 256.5 104.84375 L 254.886719 104.84375 Z M 254.886719 124.183594 " fill-opacity="1" fill-rule="nonzero"/></g><path fill="#1f212b" d="M 140.367188 236.988281 C 139.476562 236.988281 138.753906 236.265625 138.753906 235.375 L 138.753906 228.929688 C 138.753906 228.039062 139.476562 227.316406 140.367188 227.316406 C 141.257812 227.316406 141.980469 228.039062 141.980469 228.929688 L 141.980469 235.375 C 141.980469 236.265625 141.257812 236.988281 140.367188 236.988281 Z M 140.367188 236.988281 " fill-opacity="1" fill-rule="nonzero"/><path fill="#1f212b" d="M 140.367188 211.203125 C 139.476562 211.203125 138.753906 210.480469 138.753906 209.589844 L 138.753906 103.234375 C 138.753906 102.34375 139.476562 101.621094 140.367188 101.621094 L 224.242188 101.621094 C 225.132812 101.621094 225.855469 102.34375 225.855469 103.234375 C 225.855469 104.121094 225.132812 104.84375 224.242188 104.84375 L 141.980469 104.84375 L 141.980469 209.589844 C 141.980469 210.480469 141.257812 211.203125 140.367188 211.203125 Z M 140.367188 211.203125 " fill-opacity="1" fill-rule="nonzero"/><path fill="#1f212b" d="M 237.144531 117.738281 C 236.253906 117.738281 235.53125 117.015625 235.53125 116.125 L 235.53125 103.234375 C 235.53125 102.34375 236.253906 101.621094 237.144531 101.621094 C 238.035156 101.621094 238.757812 102.34375 238.757812 103.234375 L 238.757812 116.125 C 238.757812 117.015625 238.035156 117.738281 237.144531 117.738281 Z M 237.144531 117.738281 " fill-opacity="1" fill-rule="nonzero"/><path fill="#1f212b" d="M 237.144531 127.40625 C 236.253906 127.40625 235.53125 126.683594 235.53125 125.792969 L 235.53125 122.570312 C 235.53125 121.683594 236.253906 120.960938 237.144531 120.960938 C 238.035156 120.960938 238.757812 121.683594 238.757812 122.570312 L 238.757812 125.792969 C 238.757812 126.683594 238.035156 127.40625 237.144531 127.40625 Z M 237.144531 127.40625 " fill-opacity="1" fill-rule="nonzero"/><path fill="#1f212b" d="M 140.367188 153.191406 C 139.914062 153.191406 139.464844 153 139.140625 152.625 C 138.5625 151.953125 138.640625 150.933594 139.320312 150.351562 L 161.902344 131.015625 C 162.328125 130.652344 162.910156 130.539062 163.441406 130.703125 C 163.976562 130.875 164.382812 131.304688 164.515625 131.847656 L 167.050781 141.976562 L 177.941406 131.097656 C 178.304688 130.730469 178.828125 130.5625 179.339844 130.648438 C 179.851562 130.730469 180.292969 131.054688 180.523438 131.519531 L 182.972656 136.40625 L 197.609375 127.632812 C 198.363281 127.179688 199.359375 127.421875 199.820312 128.1875 C 200.28125 128.949219 200.03125 129.9375 199.265625 130.398438 L 183.136719 140.066406 C 182.753906 140.292969 182.285156 140.355469 181.859375 140.230469 C 181.425781 140.105469 181.070312 139.804688 180.867188 139.40625 L 178.644531 134.960938 L 167.320312 146.269531 C 166.910156 146.683594 166.304688 146.84375 165.75 146.683594 C 165.191406 146.527344 164.757812 146.082031 164.613281 145.519531 L 162.019531 135.15625 L 141.417969 152.796875 C 141.113281 153.0625 140.738281 153.191406 140.367188 153.191406 Z M 140.367188 153.191406 " fill-opacity="1" fill-rule="nonzero"/><path fill="#1f212b" d="M 179.078125 220.871094 C 178.621094 220.871094 178.183594 220.679688 177.871094 220.332031 L 152.714844 192.054688 L 140.757812 195.039062 C 139.898438 195.25 139.015625 194.730469 138.804688 193.867188 C 138.589844 193.003906 139.113281 192.128906 139.976562 191.914062 L 152.882812 188.691406 C 153.46875 188.542969 154.078125 188.734375 154.476562 189.183594 L 179.671875 217.5 L 211.175781 211.203125 L 182.304688 211.203125 C 181.796875 211.203125 181.316406 210.964844 181.015625 210.558594 L 171.335938 197.667969 C 171.050781 197.28125 170.949219 196.792969 171.058594 196.328125 C 171.167969 195.863281 171.480469 195.472656 171.90625 195.253906 L 196.273438 183.085938 L 187.316406 165.1875 C 186.964844 164.472656 187.179688 163.605469 187.835938 163.148438 L 205.3125 150.925781 L 181.148438 162.070312 L 187.03125 176.765625 C 187.34375 177.542969 187.003906 178.433594 186.257812 178.804688 L 166.902344 188.476562 C 166.222656 188.808594 165.394531 188.632812 164.921875 188.039062 L 152.6875 172.761719 L 142.429688 175.691406 C 141.558594 175.925781 140.675781 175.4375 140.4375 174.582031 C 140.191406 173.730469 140.683594 172.835938 141.542969 172.59375 L 152.832031 169.367188 C 153.464844 169.199219 154.128906 169.40625 154.535156 169.910156 L 166.625 185.011719 L 183.488281 176.585938 L 177.589844 161.847656 C 177.265625 161.050781 177.628906 160.144531 178.40625 159.785156 L 220.34375 140.445312 C 221.109375 140.09375 222.007812 140.378906 222.421875 141.105469 C 222.839844 141.832031 222.632812 142.75 221.953125 143.230469 L 190.832031 164.992188 L 199.890625 183.085938 C 200.285156 183.882812 199.964844 184.847656 199.167969 185.25 L 175.089844 197.277344 L 183.113281 207.980469 L 227.46875 207.980469 C 228.296875 207.980469 228.992188 208.609375 229.074219 209.433594 C 229.152344 210.257812 228.601562 211.007812 227.785156 211.175781 L 179.394531 220.84375 C 179.289062 220.863281 179.183594 220.871094 179.078125 220.871094 Z M 179.078125 220.871094 " fill-opacity="1" fill-rule="nonzero"/><path fill="#1f212b" d="M 237.144531 269.214844 L 140.367188 269.214844 C 139.476562 269.214844 138.753906 268.496094 138.753906 267.605469 L 138.753906 241.820312 C 138.753906 240.933594 139.476562 240.210938 140.367188 240.210938 C 141.257812 240.210938 141.980469 240.933594 141.980469 241.820312 L 141.980469 265.992188 L 235.53125 265.992188 L 235.53125 255.578125 L 217.597656 243.632812 L 202.257812 249.761719 C 201.585938 250.019531 200.828125 249.820312 200.386719 249.257812 L 187.046875 232.152344 L 175.382812 236.039062 C 174.539062 236.320312 173.628906 235.867188 173.339844 235.019531 C 173.058594 234.175781 173.515625 233.265625 174.359375 232.984375 L 187.105469 228.738281 C 187.746094 228.519531 188.464844 228.738281 188.890625 229.277344 L 202.1875 246.324219 L 217.191406 240.328125 C 217.683594 240.128906 218.246094 240.195312 218.683594 240.484375 L 238.039062 253.375 C 238.488281 253.671875 238.757812 254.175781 238.757812 254.714844 L 238.757812 267.605469 C 238.757812 268.496094 238.035156 269.214844 237.144531 269.214844 Z M 237.144531 269.214844 " fill-opacity="1" fill-rule="nonzero"/><path fill="#1f212b" d="M 237.144531 246.65625 C 236.253906 246.65625 235.53125 245.933594 235.53125 245.042969 L 235.53125 141.910156 C 235.53125 141.019531 236.253906 140.296875 237.144531 140.296875 C 238.035156 140.296875 238.757812 141.019531 238.757812 141.910156 L 238.757812 245.042969 C 238.757812 245.933594 238.035156 246.65625 237.144531 246.65625 Z M 237.144531 246.65625 " fill-opacity="1" fill-rule="nonzero"/></svg>