<svg width="200" height="200" viewBox="0 0 200 200" fill="none" xmlns="http://www.w3.org/2000/svg">
<path d="M112.295 79.7668C113.359 80.7597 113.359 82.4381 112.295 83.433C111.334 84.3343 109.814 84.3343 108.852 83.433C107.79 82.4381 107.79 80.7597 108.852 79.7648C109.814 78.8655 111.334 78.8655 112.295 79.7668ZM51.0905 140.977C61.0107 150.875 77.0976 150.875 87.0199 140.979L115.928 112.14C125.85 102.242 125.85 86.1938 115.93 76.2939C106.01 66.3961 89.9231 66.394 80.0008 76.2919L51.0925 105.131C41.1702 115.029 41.1702 131.077 51.0905 140.977Z" fill="#C69C6D"/>
<path d="M112.122 80.0537C111.269 79.2033 109.88 79.2033 109.025 80.0537C108.173 80.9061 108.171 82.2916 109.025 83.1441C109.88 83.9966 111.269 83.9966 112.122 83.1441C112.976 82.2916 112.976 80.9061 112.122 80.0537ZM108.561 83.608C107.45 82.5012 107.45 80.6986 108.561 79.5919C109.67 78.4831 111.477 78.4831 112.587 79.5919C113.696 80.6986 113.696 82.5012 112.587 83.608C111.477 84.7147 109.67 84.7147 108.561 83.608Z" fill="#723F33"/>
<path d="M155.039 63.0269C154.102 64.6037 152.175 65.391 149.613 65.2446C142.34 64.8295 135.105 66.333 128.113 69.7164C124.845 71.2952 121.651 73.2564 118.465 75.6449C118.146 74.9573 117.67 74.3734 117.053 73.9299C116.833 73.7712 116.604 73.6389 116.368 73.527C118.044 71.4376 120.056 69.045 122.278 66.6463C130.481 57.7901 137.771 52.8809 143.359 52.4496C148.299 52.0691 152.484 53.8269 154.553 57.1493C155.811 59.1675 155.996 61.4197 155.039 63.0269ZM155.298 56.6874C153.052 53.0843 148.564 51.1719 143.29 51.5788C140.029 51.8311 136.277 53.477 132.139 56.4697C128.859 58.844 125.323 62.0707 121.629 66.0604C119.305 68.5689 117.21 71.0693 115.487 73.23C114.766 73.0754 114.038 73.1323 113.424 73.4172C113.204 73.5189 113.11 73.7793 113.212 73.997C113.232 74.0458 113.263 74.0865 113.298 74.1211C113.426 74.2472 113.621 74.2879 113.794 74.2086C114.107 74.0621 114.473 74.0051 114.856 74.0255C112.288 77.2949 110.697 79.6082 110.671 79.6468C110.549 79.8238 110.575 80.0558 110.722 80.2022C110.74 80.2205 110.763 80.2389 110.785 80.2551C110.984 80.3914 111.257 80.3386 111.393 80.1392C111.422 80.1005 113.104 77.651 115.804 74.2371C116.058 74.3388 116.309 74.471 116.541 74.6379C116.919 74.9105 117.428 75.3967 117.753 76.1861C115.881 77.6266 114.01 79.2155 112.128 80.9652C111.951 81.1279 111.941 81.4046 112.105 81.5816C112.27 81.7586 112.547 81.7688 112.724 81.604C114.484 79.9703 116.243 78.4688 118.007 77.0955C118.079 77.533 118.095 78.0355 118.03 78.6072C118.001 78.8493 118.174 79.065 118.414 79.0914C118.654 79.1199 118.872 78.9469 118.901 78.7069C118.988 77.9236 118.943 77.181 118.77 76.5096C128.796 68.9189 138.928 65.5111 149.565 66.1174C152.468 66.2822 154.679 65.3442 155.792 63.4745C156.917 61.5845 156.728 58.9844 155.298 56.6874Z" fill="#C1752F"/>
</svg>
