<svg xmlns="http://www.w3.org/2000/svg" xmlns:xlink="http://www.w3.org/1999/xlink" width="512" zoomAndPan="magnify" viewBox="0 0 384 383.999986" height="512" preserveAspectRatio="xMidYMid meet" version="1.0"><defs><clipPath id="db19920f1c"><path d="M 107.578125 69.203125 L 276.328125 69.203125 L 276.328125 314.453125 L 107.578125 314.453125 Z M 107.578125 69.203125 " clip-rule="nonzero"/></clipPath></defs><path fill="#ff5757" d="M 172.773438 299.125 L 180.445312 299.125 C 182.746094 299.125 184.28125 297.589844 184.28125 295.292969 C 184.28125 292.992188 182.746094 291.460938 180.445312 291.460938 L 172.773438 291.460938 C 170.472656 291.460938 168.941406 292.992188 168.941406 295.292969 C 168.941406 297.589844 170.472656 299.125 172.773438 299.125 Z M 172.773438 299.125 " fill-opacity="1" fill-rule="nonzero"/><path fill="#ff5757" d="M 184.28125 214.820312 L 191.953125 214.820312 L 191.953125 222.484375 L 184.28125 222.484375 Z M 184.28125 214.820312 " fill-opacity="1" fill-rule="nonzero"/><path fill="#ff5757" d="M 237.972656 161.171875 L 245.644531 161.171875 L 245.644531 168.835938 L 237.972656 168.835938 Z M 237.972656 161.171875 " fill-opacity="1" fill-rule="nonzero"/><path fill="#ff5757" d="M 184.28125 161.171875 L 191.953125 161.171875 L 191.953125 168.835938 L 184.28125 168.835938 Z M 184.28125 161.171875 " fill-opacity="1" fill-rule="nonzero"/><path fill="#ff5757" d="M 237.972656 214.820312 L 245.644531 214.820312 L 245.644531 222.484375 L 237.972656 222.484375 Z M 237.972656 214.820312 " fill-opacity="1" fill-rule="nonzero"/><g clip-path="url(#db19920f1c)"><path fill="#ff5757" d="M 264.820312 130.515625 L 245.644531 130.515625 L 245.644531 88.363281 C 245.644531 77.632812 237.207031 69.203125 226.46875 69.203125 L 126.753906 69.203125 C 116.015625 69.203125 107.578125 77.632812 107.578125 88.363281 L 107.578125 295.292969 C 107.578125 306.023438 116.015625 314.453125 126.753906 314.453125 L 226.46875 314.453125 C 237.207031 314.453125 245.644531 306.023438 245.644531 295.292969 L 245.644531 253.140625 L 264.820312 253.140625 C 271.339844 253.140625 276.324219 248.15625 276.324219 241.644531 L 276.324219 142.011719 C 276.324219 135.496094 271.339844 130.515625 264.820312 130.515625 Z M 234.140625 230.148438 C 231.835938 230.148438 230.304688 228.613281 230.304688 226.316406 L 230.304688 210.988281 C 230.304688 208.6875 231.835938 207.15625 234.140625 207.15625 L 249.480469 207.15625 C 251.78125 207.15625 253.316406 208.6875 253.316406 210.988281 L 253.316406 226.316406 C 253.316406 228.613281 251.78125 230.148438 249.480469 230.148438 Z M 249.480469 203.324219 L 234.140625 203.324219 C 231.835938 203.324219 230.304688 201.789062 230.304688 199.492188 C 230.304688 197.191406 231.835938 195.660156 234.140625 195.660156 L 249.480469 195.660156 C 251.78125 195.660156 253.316406 197.191406 253.316406 199.492188 C 253.316406 201.789062 251.78125 203.324219 249.480469 203.324219 Z M 230.304688 187.996094 L 230.304688 184.164062 C 230.304688 181.863281 231.835938 180.332031 234.140625 180.332031 L 237.972656 180.332031 C 240.273438 180.332031 241.808594 181.863281 241.808594 184.164062 C 241.808594 186.460938 240.273438 187.996094 237.972656 187.996094 C 237.972656 190.292969 236.441406 191.828125 234.140625 191.828125 C 231.835938 191.828125 230.304688 190.292969 230.304688 187.996094 Z M 249.480469 191.828125 C 247.179688 191.828125 245.644531 190.292969 245.644531 187.996094 L 245.644531 184.164062 C 245.644531 181.863281 247.179688 180.332031 249.480469 180.332031 C 251.78125 180.332031 253.316406 181.863281 253.316406 184.164062 L 253.316406 187.996094 C 253.316406 190.292969 251.78125 191.828125 249.480469 191.828125 Z M 249.480469 176.5 L 234.140625 176.5 C 231.835938 176.5 230.304688 174.964844 230.304688 172.667969 L 230.304688 157.339844 C 230.304688 155.039062 231.835938 153.507812 234.140625 153.507812 L 249.480469 153.507812 C 251.78125 153.507812 253.316406 155.039062 253.316406 157.339844 L 253.316406 172.667969 C 253.316406 174.964844 251.78125 176.5 249.480469 176.5 Z M 237.972656 295.292969 C 237.972656 301.804688 232.988281 306.789062 226.46875 306.789062 L 126.753906 306.789062 C 120.234375 306.789062 115.246094 301.804688 115.246094 295.292969 L 115.246094 88.363281 C 115.246094 81.847656 120.234375 76.867188 126.753906 76.867188 L 132.121094 76.867188 L 136.722656 85.679688 C 138.640625 89.511719 142.476562 92.195312 147.078125 92.195312 L 206.523438 92.195312 C 210.742188 92.195312 214.960938 89.894531 216.878906 85.679688 L 221.097656 76.867188 L 226.46875 76.867188 C 232.988281 76.867188 237.972656 81.847656 237.972656 88.363281 L 237.972656 130.515625 L 165.105469 130.515625 C 158.585938 130.515625 153.597656 135.496094 153.597656 142.011719 L 153.597656 241.644531 C 153.597656 248.15625 158.585938 253.140625 165.105469 253.140625 L 237.972656 253.140625 Z M 207.292969 214.820312 C 204.992188 214.820312 203.457031 213.285156 203.457031 210.988281 C 203.457031 208.6875 204.992188 207.15625 207.292969 207.15625 L 222.632812 207.15625 C 224.933594 207.15625 226.46875 208.6875 226.46875 210.988281 L 226.46875 226.316406 C 226.46875 228.613281 224.933594 230.148438 222.632812 230.148438 C 220.332031 230.148438 218.796875 228.613281 218.796875 226.316406 L 218.796875 214.820312 Z M 199.621094 172.667969 C 199.621094 174.964844 198.085938 176.5 195.785156 176.5 L 180.445312 176.5 C 178.144531 176.5 176.609375 174.964844 176.609375 172.667969 L 176.609375 157.339844 C 176.609375 155.039062 178.144531 153.507812 180.445312 153.507812 L 195.785156 153.507812 C 198.085938 153.507812 199.621094 155.039062 199.621094 157.339844 Z M 203.457031 184.164062 L 203.457031 187.996094 C 203.457031 190.292969 201.921875 191.828125 199.621094 191.828125 C 197.320312 191.828125 195.785156 190.292969 195.785156 187.996094 L 195.785156 184.164062 C 195.785156 181.863281 197.320312 180.332031 199.621094 180.332031 C 201.921875 180.332031 203.457031 181.863281 203.457031 184.164062 Z M 188.117188 191.828125 L 180.445312 191.828125 C 178.144531 191.828125 176.609375 190.292969 176.609375 187.996094 L 176.609375 184.164062 C 176.609375 181.863281 178.144531 180.332031 180.445312 180.332031 C 182.746094 180.332031 184.28125 181.863281 184.28125 184.164062 L 188.117188 184.164062 C 190.417969 184.164062 191.953125 185.695312 191.953125 187.996094 C 191.953125 190.292969 190.417969 191.828125 188.117188 191.828125 Z M 191.953125 199.492188 C 191.953125 201.789062 190.417969 203.324219 188.117188 203.324219 L 180.445312 203.324219 C 178.144531 203.324219 176.609375 201.789062 176.609375 199.492188 C 176.609375 197.191406 178.144531 195.660156 180.445312 195.660156 L 188.117188 195.660156 C 190.417969 195.660156 191.953125 197.191406 191.953125 199.492188 Z M 180.445312 149.675781 L 172.773438 149.675781 L 172.773438 157.339844 C 172.773438 159.636719 171.242188 161.171875 168.941406 161.171875 C 166.640625 161.171875 165.105469 159.636719 165.105469 157.339844 L 165.105469 145.84375 C 165.105469 143.542969 166.640625 142.011719 168.941406 142.011719 L 180.445312 142.011719 C 182.746094 142.011719 184.28125 143.542969 184.28125 145.84375 C 184.28125 148.140625 182.746094 149.675781 180.445312 149.675781 Z M 168.941406 222.484375 C 171.242188 222.484375 172.773438 224.015625 172.773438 226.316406 L 172.773438 233.980469 L 180.445312 233.980469 C 182.746094 233.980469 184.28125 235.511719 184.28125 237.8125 C 184.28125 240.109375 182.746094 241.644531 180.445312 241.644531 L 168.941406 241.644531 C 166.640625 241.644531 165.105469 240.109375 165.105469 237.8125 L 165.105469 226.316406 C 165.105469 224.015625 166.640625 222.484375 168.941406 222.484375 Z M 180.445312 230.148438 C 178.144531 230.148438 176.609375 228.613281 176.609375 226.316406 L 176.609375 210.988281 C 176.609375 208.6875 178.144531 207.15625 180.445312 207.15625 L 195.785156 207.15625 C 198.085938 207.15625 199.621094 208.6875 199.621094 210.988281 L 199.621094 226.316406 C 199.621094 228.613281 198.085938 230.148438 195.785156 230.148438 Z M 195.785156 199.492188 C 195.785156 197.191406 197.320312 195.660156 199.621094 195.660156 L 207.292969 195.660156 L 207.292969 187.996094 C 207.292969 185.695312 208.828125 184.164062 211.128906 184.164062 C 213.429688 184.164062 214.960938 185.695312 214.960938 187.996094 L 214.960938 199.492188 C 214.960938 201.789062 213.429688 203.324219 211.128906 203.324219 L 199.621094 203.324219 C 197.320312 203.324219 195.785156 201.789062 195.785156 199.492188 Z M 203.457031 165.003906 L 203.457031 157.339844 C 203.457031 155.039062 204.992188 153.507812 207.292969 153.507812 L 211.128906 153.507812 C 213.429688 153.507812 214.960938 155.039062 214.960938 157.339844 C 214.960938 159.636719 213.429688 161.171875 211.128906 161.171875 L 211.128906 165.003906 C 211.128906 167.300781 209.59375 168.835938 207.292969 168.835938 C 204.992188 168.835938 203.457031 167.300781 203.457031 165.003906 Z M 203.457031 222.484375 C 203.457031 220.183594 204.992188 218.652344 207.292969 218.652344 C 209.59375 218.652344 211.128906 220.183594 211.128906 222.484375 L 211.128906 226.316406 C 211.128906 228.613281 209.59375 230.148438 207.292969 230.148438 C 204.992188 230.148438 203.457031 228.613281 203.457031 226.316406 Z M 222.632812 203.324219 C 220.332031 203.324219 218.796875 201.789062 218.796875 199.492188 L 218.796875 180.332031 L 211.128906 180.332031 C 208.828125 180.332031 207.292969 178.796875 207.292969 176.5 C 207.292969 174.199219 208.828125 172.667969 211.128906 172.667969 L 222.632812 172.667969 C 224.933594 172.667969 226.46875 174.199219 226.46875 176.5 L 226.46875 199.492188 C 226.46875 201.789062 224.933594 203.324219 222.632812 203.324219 Z M 222.632812 168.835938 C 220.332031 168.835938 218.796875 167.300781 218.796875 165.003906 L 218.796875 157.339844 C 218.796875 155.039062 220.332031 153.507812 222.632812 153.507812 C 224.933594 153.507812 226.46875 155.039062 226.46875 157.339844 L 226.46875 165.003906 C 226.46875 167.300781 224.933594 168.835938 222.632812 168.835938 Z M 264.820312 237.8125 C 264.820312 240.109375 263.285156 241.644531 260.984375 241.644531 L 249.480469 241.644531 C 247.179688 241.644531 245.644531 240.109375 245.644531 237.8125 C 245.644531 235.511719 247.179688 233.980469 249.480469 233.980469 L 257.148438 233.980469 L 257.148438 226.316406 C 257.148438 224.015625 258.683594 222.484375 260.984375 222.484375 C 263.285156 222.484375 264.820312 224.015625 264.820312 226.316406 Z M 264.820312 157.339844 C 264.820312 159.636719 263.285156 161.171875 260.984375 161.171875 C 258.683594 161.171875 257.148438 159.636719 257.148438 157.339844 L 257.148438 149.675781 L 249.480469 149.675781 C 247.179688 149.675781 245.644531 148.140625 245.644531 145.84375 C 245.644531 143.542969 247.179688 142.011719 249.480469 142.011719 L 260.984375 142.011719 C 263.285156 142.011719 264.820312 143.542969 264.820312 145.84375 Z M 264.820312 157.339844 " fill-opacity="1" fill-rule="nonzero"/></g></svg>